<svg width="450" height="400" xmlns="http://www.w3.org/2000/svg">

 <g>
  <title>background</title>
  <rect fill="none" id="canvas_background" height="402" width="452" y="-1" x="-1"/>
 </g>
 <g>
  <title>Layer 1</title>
  <g id="surface1">
   <path id="svg_1" fill-rule="nonzero" fill="#A0A0A0" d="m126.26172,80.12891l49.76953,0c2.36719,0.01562 4.64063,-0.91407 6.32422,-2.58203l15.13281,-15.22266l28.22266,0l24.1289,24.125c1.67969,1.66797 3.95313,2.59766 6.32032,2.58203l35.61328,0c2.36719,0.01563 4.64062,-0.91406 6.32031,-2.58203l24.03906,-24.125l40.86719,0l0,-17.80859l-44.51562,0c-2.36719,-0.01172 -4.64063,0.91406 -6.32032,2.58203l-24.03906,24.1289l-28.3125,0l-24.03906,-24.1289c-1.67969,-1.66797 -3.95703,-2.59375 -6.32031,-2.58203l-35.61329,0c-2.36718,-0.01172 -4.64062,0.91406 -6.32421,2.58203l-15.13282,15.22656l-49.76953,0c-2.36719,-0.01563 -4.64062,0.91406 -6.32031,2.58203l-11.48828,11.57422l0,-76.48047l-17.80469,0l0,267.09766c0,4.91797 3.98438,8.90234 8.90234,8.90234l267.09766,0l0,-17.80469l-258.19531,0l0,-49.76953l11.48828,11.48438c1.66406,1.69922 3.94141,2.66015 6.32031,2.67187l35.61328,0c2.36719,0.01172 4.64063,-0.91797 6.32032,-2.58203l15.13671,-15.22656l37.125,0l15.22657,15.22656c1.67968,1.66406 3.95312,2.59375 6.32031,2.58203l35.61328,0c2.36719,0.01172 4.64063,-0.91797 6.32031,-2.58203l15.13672,-15.22656l67.57422,0l0,-17.80469l-71.22656,0c-2.36719,-0.01562 -4.64063,0.91406 -6.32031,2.58203l-15.13672,15.22266l-28.3125,0l-15.22266,-15.22266c-1.66016,-1.64453 -3.89844,-2.57422 -6.23437,-2.58203l-44.51563,0c-2.36719,-0.01562 -4.64062,0.91406 -6.32031,2.58203l-15.13672,15.22266l-28.3125,0l-21.45703,-21.45703l0,-40.86328l14.15625,0l15.22656,15.22265c1.65625,1.64453 3.89453,2.57422 6.23047,2.58203l35.61328,0c2.36719,0.01563 4.64063,-0.91406 6.32422,-2.58203l24.03516,-24.1289l19.32031,0l15.22656,15.22656c1.67969,1.66797 3.95313,2.59375 6.32031,2.58203l26.71094,0c2.36719,0.01172 4.64063,-0.91406 6.32031,-2.58203l15.13672,-15.22656l19.32031,0l15.22266,15.22656c1.67969,1.66797 3.95313,2.59375 6.32031,2.58203l26.71094,0l0,-17.80859l-23.05859,0l-15.22657,-15.22266c-1.65625,-1.64453 -3.89453,-2.57422 -6.23046,-2.58203l-26.71094,0c-2.36719,-0.01563 -4.64063,0.91406 -6.32031,2.58203l-15.13672,15.22266l-19.40625,0l-15.22657,-15.22266c-1.65625,-1.64453 -3.89843,-2.57422 -6.23046,-2.58203l-26.71094,0c-2.36719,-0.01563 -4.64063,0.91406 -6.32031,2.58203l-24.03907,24.12891l-28.3125,0l-15.13672,-15.22657c-1.67968,-1.66797 -3.95312,-2.59375 -6.32031,-2.58203l-17.80859,0l0,-23.05859l21.45703,-21.45703zm0,0"/>
  </g>
  <text style="cursor: move;" xml:space="preserve" text-anchor="start" font-family="sans-serif" font-size="80" id="svg_2" y="369.5" x="87.1875" stroke-opacity="null" stroke-width="0" stroke="null" fill="#A0A0A0">SimPlot</text>
 </g>
</svg>