<svg width="450" height="400" xmlns="http://www.w3.org/2000/svg" version="1.1">
 <g>
  <title>Layer 1</title>
  <g stroke="null" id="surface1">
   <path stroke="null" d="m211.45786,30.90565c-55.76121,7.25213 -100.6706,46.77424 -112.63544,99.20292c-3.84135,16.69194 -3.84135,38.13445 0,54.8264c9.40393,41.17644 40.06829,75.78984 80.63645,91.20269c16.52767,6.24207 31.16422,8.85454 49.52886,8.85454c15.80373,0 28.32506,-1.86673 42.23767,-6.34591c21.03635,-6.72114 37.84227,-16.90905 53.59182,-32.48237c20.20159,-19.94631 32.50132,-44.42845 36.34021,-72.2688c1.113,-8.26691 1.113,-24.47978 0,-32.74669c-3.28239,-23.78831 -13.07784,-45.76182 -28.8274,-64.42904c-4.89772,-5.81256 -16.30606,-16.37335 -22.70585,-20.96109c-19.03195,-13.7066 -40.1791,-21.9735 -63.55227,-24.90693c-8.12348,-1.01242 -26.76636,-0.9605 -34.61405,0.05428l-0.00001,-0.00001zm30.88597,15.20044c25.48838,2.61247 50.64187,14.29187 69.34139,32.15906c18.19719,17.49432 29.71634,39.78879 33.33361,64.42904c1.05637,7.52116 1.05637,22.13398 0,29.65516c-5.39759,37.01347 -28.77077,68.37488 -63.55227,85.33585c-16.64095,8.10643 -33.33607,11.89415 -52.47882,11.89415c-19.19939,0 -36.00532,-3.89392 -53.03532,-12.21511c-30.6619,-14.93377 -53.70264,-43.147 -61.048,-74.77506c-4.00634,-17.33385 -3.72808,-36.90729 0.83475,-53.5473c5.9541,-21.7092 19.75589,-42.72221 37.56402,-56.96216c25.37757,-20.37346 56.15028,-29.38848 89.04065,-25.97363l0,-0.00001zm0,0" fill-rule="nonzero" fill="#560A07" id="svg_1"/>
   <path stroke="null" d="m220.08367,82.05288c-8.9607,1.921 -16.75176,6.13351 -22.92747,12.4275c-6.289,6.40019 -10.24116,14.23996 -11.57577,22.82781c-1.0022,6.71878 -1.72616,6.07924 7.45617,6.07924l7.9585,0l0.66731,-3.94584c2.61754,-15.4152 18.42127,-25.65503 33.72513,-21.92159c14.08005,3.46677 22.98411,16.32143 20.97971,30.07995c-1.33462,9.01501 -4.00633,13.22753 -15.86036,25.01549c-9.18231,9.11885 -13.24529,14.40042 -15.91454,20.58585c-2.06103,4.69395 -3.39565,10.93365 -3.39565,15.5214l0,3.52105l7.9585,-0.16048l7.90186,-0.16047l0.38906,-4.00013c0.83475,-8.69406 3.84135,-13.6004 15.58211,-25.33408c11.74322,-11.78796 14.19086,-15.14617 17.14082,-23.62784c8.56918,-24.53405 -4.78692,-49.81385 -29.77297,-56.37453c-4.73028,-1.22718 -15.74956,-1.54577 -20.3124,-0.53335zm0,0" fill-rule="nonzero" fill="#560A07" id="svg_2"/>
   <path stroke="null" d="m219.52717,217.52354l0,7.73356l18.92113,0l0,-15.46712l-18.92113,0l0,7.73356l0,0.00001zm0,0" fill-rule="nonzero" fill="#560A07" id="svg_3"/>
  </g>
<text style="cursor: move;" xml:space="preserve" text-anchor="start" font-family="sans-serif" font-size="80" id="svg_2" y="369.5" x="145" stroke-opacity="null" stroke-width="0" stroke="null" fill="#560A07">Help</text>
 
 </g>

</svg>