<svg width="450" height="400" xmlns="http://www.w3.org/2000/svg">

 <g>
  <title>background</title>
  <rect fill="none" id="canvas_background" height="402" width="452" y="-1" x="-1"/>
 </g>
 <g>
  <title>Layer 1</title>
  <g id="surface1">
   <path id="svg_1" fill-rule="nonzero" fill="#8F1114" d="m342.65234,84.21484c-5.875,-7.17578 -13.83593,-12.42578 -22.67187,-15c-1.16406,-24.22656 -21.24219,-43.57812 -45.75,-43.57812c-2.76563,0 -5.51953,0.25 -8.22656,0.74219c-7.71875,-15.52344 -23.46094,-25.37891 -41.00391,-25.37891c-17.54297,0 -33.28906,9.85547 -41.00391,25.37891c-2.70703,-0.49219 -5.46093,-0.74219 -8.22656,-0.74219c-7.16797,0 -14.03515,1.61328 -20.41015,4.78906c-2.00391,1 -2.81641,3.4336 -1.81641,5.4336c0.99609,2.0039 3.42969,2.8164 5.42969,1.82031c5.24218,-2.61328 10.89453,-3.94141 16.79687,-3.94141c3.22656,0 6.4375,0.41016 9.54297,1.22266c1.96484,0.50781 4.00391,-0.51172 4.77344,-2.39063c5.82031,-14.25781 19.52344,-23.46875 34.91406,-23.46875c15.39063,0 29.09766,9.21094 34.91406,23.46875c0.76953,1.87891 2.8086,2.89844 4.77344,2.39063c3.10547,-0.8125 6.31641,-1.22266 9.54297,-1.22266c20.78906,0 37.70312,16.91406 37.70312,37.70703c-0.26953,2.28125 0.84766,4.36719 3.17969,4.89063c17.25391,3.6914 29.77344,19.19531 29.77344,36.86328c0,2.23828 1.81641,4.05078 4.05078,4.05078c2.23828,0 4.05078,-1.8125 4.05078,-4.05078c0,-10.54297 -3.67187,-20.83594 -10.33594,-28.98438zm0,0"/>
   <path id="svg_2" fill-rule="nonzero" fill="#8F1114" d="m347.34766,125.35156c-2.07032,-0.85156 -4.4375,0.13282 -5.28907,2.20313c-4.74218,11.49609 -14.8125,19.91015 -26.94531,22.50781c-2.33594,0.52734 -3.44922,2.60547 -3.17969,4.89063c0,20.79296 -16.91406,37.70703 -37.70703,37.70703c-4.59375,0 -9.09765,-0.82813 -13.3789,-2.45313c-1.7461,-0.66406 -3.71485,-0.04687 -4.77735,1.48828c-7.05078,10.24219 -18.66406,16.35547 -31.07031,16.35547c-12.40625,0 -24.02344,-6.11328 -31.07422,-16.35547c-1.05859,-1.53515 -3.03125,-2.15234 -4.77344,-1.48828c-4.28515,1.625 -8.78515,2.45313 -13.38281,2.45313c-20.78906,0 -37.70312,-16.91797 -37.70312,-37.70703c0.26953,-2.28125 -0.84766,-4.36719 -3.17969,-4.89063c-17.25391,-3.69531 -29.77344,-19.19531 -29.77344,-36.86328c0,-17.66797 12.51953,-33.17188 29.77344,-36.86328c2.26953,-0.45703 3.48437,-2.6875 3.17969,-4.89063c0,-9.13281 3.30468,-17.94531 9.30859,-24.80859c1.47266,-1.68359 1.30078,-4.24609 -0.38281,-5.71875c-1.6836,-1.47266 -4.24219,-1.30078 -5.71485,0.38281c-6.80468,7.78516 -10.75781,17.6211 -11.25781,27.91406c-8.83594,2.57422 -16.79687,7.82032 -22.67187,15c-6.66407,8.14844 -10.33594,18.44141 -10.33594,28.98438c0,10.54297 3.67187,20.83594 10.33594,28.98437c5.875,7.17579 13.83593,12.42579 22.67187,15c1.16406,24.22266 21.24219,43.57813 45.75,43.57813c4.54297,0 9.01563,-0.66406 13.32813,-1.98047c4.61718,5.82813 10.53125,10.37891 17.16797,13.35938c-3.52735,26.14062 -11.40235,41.90234 -17.50782,50.60156c-4.22265,5.90625 0.14844,14.32031 7.41016,14.25781l57.66406,0c7.26172,0.0625 11.62891,-8.35156 7.41016,-14.25781c-4.00391,-5.70703 -7.5,-12.63281 -10.38672,-20.59375c-0.76172,-2.10156 -3.08594,-3.1875 -5.19141,-2.42578c-2.10156,0.76562 -3.1875,3.08984 -2.42578,5.1914c3.13281,8.62891 6.95703,16.19141 11.3711,22.48047c0.42578,0.74219 0.07031,1.42578 -0.77735,1.50391l-57.66406,0c-0.85156,-0.07813 -1.20313,-0.76172 -0.77734,-1.50391c6.49609,-9.25781 14.82421,-25.76172 18.68359,-52.57422c3.53906,0.8711 7.20312,1.32813 10.92578,1.32813c3.72266,0 7.38672,-0.45703 10.92578,-1.32422c0.69922,4.85937 1.57813,9.57812 2.61719,14.07031c0.43359,1.875 2.09766,3.14063 3.94141,3.14063c0.30468,0 0.60937,-0.03516 0.91796,-0.10547c2.17969,-0.50391 3.53907,-2.67969 3.03516,-4.85938c-1.09766,-4.74218 -2.00391,-9.7539 -2.70312,-14.93359c6.63671,-2.97656 12.55078,-7.52734 17.16796,-13.35547c4.31641,1.3125 8.78516,1.97656 13.32813,1.97656c24.50781,0 44.58594,-19.34765 45.75,-43.57422c13.31641,-3.86328 24.23047,-13.59375 29.57031,-26.54296c0.85156,-2.06641 -0.13672,-4.4336 -2.20312,-5.28907zm0,0"/>
   <path id="svg_3" fill-rule="nonzero" fill="#8F1114" d="m169.26563,111.80078c-2.23829,0 -4.05079,1.81641 -4.05079,4.05469l0,10.97656c-9.13671,1.88281 -16.03125,9.98828 -16.03125,19.67188c0,11.07422 9.00782,20.08203 20.08204,20.08203c11.07421,0 20.08203,-9.00781 20.08203,-20.08203c0,-9.6836 -6.89453,-17.79297 -16.03125,-19.67188l0,-6.92578l47.63281,0l0,6.92578c-9.13672,1.88281 -16.03125,9.98828 -16.03125,19.67188c0,11.07422 9.00781,20.08203 20.08203,20.08203c11.07422,0 20.08203,-9.00781 20.08203,-20.08203c0,-9.6836 -6.89453,-17.79297 -16.03125,-19.67188l0,-6.92578l47.63281,0l0,6.92578c-9.13671,1.88281 -16.03125,9.98828 -16.03125,19.67188c0,11.07422 9.00782,20.08203 20.08204,20.08203c11.07421,0 20.08203,-9.00781 20.08203,-20.08203c0,-9.6836 -6.89453,-17.79297 -16.03125,-19.67188l0,-10.97656c0,-2.23828 -1.8125,-4.05469 -4.05078,-4.05469l-51.6836,0l0,-7.78515l22.12891,0c2.23828,0 4.05078,-1.81641 4.05078,-4.05079l0,-10.625c9.14062,-1.8789 16.03125,-9.98437 16.03125,-19.67187c0,-11.07422 -9.00781,-20.08203 -20.08203,-20.08203c-11.07031,0 -20.08203,9.00781 -20.08203,20.08203c0,9.6875 6.89453,17.79297 16.03125,19.67187l0,6.57422l-44.25782,0l0,-6.57422c9.13672,-1.8789 16.03125,-9.98437 16.03125,-19.67187c0,-11.07422 -9.00781,-20.08203 -20.08203,-20.08203c-11.07422,0 -20.08203,9.00781 -20.08203,20.08203c0,9.6875 6.89453,17.79297 16.03125,19.67187l0,10.625c0,2.23438 1.8125,4.05079 4.05078,4.05079l22.12891,0l0,7.78515l-51.68359,0zm11.98046,34.70313c0,6.60547 -5.375,11.98047 -11.98046,11.98047c-6.60547,0 -11.98047,-5.375 -11.98047,-11.98047c0,-6.60547 5.375,-11.98047 11.98047,-11.98047c6.60546,0 11.98046,5.375 11.98046,11.98047zm55.73438,0c0,6.60547 -5.375,11.98047 -11.98047,11.98047c-6.60547,0 -11.98047,-5.375 -11.98047,-11.98047c0,-6.60547 5.375,-11.98047 11.98047,-11.98047c6.60547,0 11.98047,5.375 11.98047,11.98047zm55.73437,0c0,6.60547 -5.375,11.98047 -11.98046,11.98047c-6.60547,0 -11.98047,-5.375 -11.98047,-11.98047c0,-6.60547 5.375,-11.98047 11.98047,-11.98047c6.60546,0 11.98046,5.375 11.98046,11.98047zm-53.51562,-76.83594c0,-6.60547 5.375,-11.98047 11.98047,-11.98047c6.60547,0 11.98047,5.375 11.98047,11.98047c0,6.60547 -5.375,11.98047 -11.98047,11.98047c-6.60547,0 -11.98047,-5.375 -11.98047,-11.98047zm-52.35938,0c0,-6.60547 5.375,-11.98047 11.98047,-11.98047c6.60547,0 11.98047,5.375 11.98047,11.98047c0,6.60547 -5.375,11.98047 -11.98047,11.98047c-6.60547,0 -11.98047,-5.375 -11.98047,-11.98047zm0,0"/>
  </g>
  <text style="cursor: move;" xml:space="preserve" text-anchor="start" font-family="sans-serif" font-size="80" id="svg_2" y="369.5" x="51.54688" stroke-opacity="null" stroke-width="0" stroke="null" fill="#8F1114">BootScan</text>
 </g>
</svg>
