<svg width="800" height="276" xmlns="http://www.w3.org/2000/svg">

  <g>
  <title>background</title>
  <rect fill="none" id="canvas_background" height="278" width="752" y="-1" x="-1"/>
 </g>
 <g>
  <title>Layer 1</title>
  <g id="surface1">
   <path id="svg_1" fill-rule="nonzero" fill="#8F1114" d="m276,138c0,76.21484 -61.78516,138 -138,138c-76.21484,0 -138,-61.78516 -138,-138c0,-76.21484 61.78516,-138 138,-138c76.21484,0 138,61.78516 138,138zm0,0"/>
   <path id="svg_2" fill-rule="nonzero" fill="#CFCFCF" d="m234.57031,89.14844c-0.10547,-1.06641 -0.51953,-2.14063 -1.25,-3.03125c-0.28515,-0.34375 2.59766,2.5625 -43.01953,-43.0586c-1.08984,-1.08593 -2.5625,-1.65625 -4.0039,-1.65625c-3.4336,0 -124.4961,0 -127.91797,0c-9.36328,0 -16.98047,7.61719 -16.98047,16.98047l0,159.23438c0,9.36328 7.61719,16.98047 16.98047,16.98047l159.23828,0c9.36328,0 16.98047,-7.61719 16.98047,-16.98047c0,-137.42188 0.01562,-128.03516 -0.02735,-128.46875zm-62.98828,-36.42578l0,36.97656c0,3.12109 -2.53906,5.66016 -5.66015,5.66016l-7.16797,0l0,-42.63672l12.82812,0zm-24.14844,0l0,42.63672l-52.45312,0c-3.12109,0 -5.66016,-2.53907 -5.66016,-5.66016l0,-36.97656l58.11328,0zm24.14844,109.80468l-82.26172,0l0,-7.17187c0,-3.11719 2.53907,-5.66016 5.66016,-5.66016l70.94141,0c3.12109,0 5.66015,2.54297 5.66015,5.66016l0,7.17187zm-82.26172,60.75l0,-49.42968l82.26172,0l0,49.42968l-82.26172,0zm133.95703,-5.66015c0,3.12109 -2.53906,5.66015 -5.66015,5.66015l-34.71485,0c0,-7.3789 0,-59.50781 0,-67.92187c0,-9.35938 -7.61718,-16.97656 -16.98046,-16.97656l-70.94141,0c-9.36328,0 -16.98047,7.61718 -16.98047,16.97656l0,67.92187l-19.62109,0c-3.1211,0 -5.66016,-2.53906 -5.66016,-5.66015l0,-159.23438c0,-3.12109 2.53906,-5.66015 5.66016,-5.66015l19.62109,0l0,36.97656c0,9.36328 7.61719,16.98047 16.98047,16.98047l70.94141,0c9.36328,0 16.98046,-7.61719 16.98046,-16.98047l0,-36.97656l1.05079,0l39.32421,39.32422l0,125.57031zm0,0"/>
  </g>
  <text fill="#8F1114" stroke="null" stroke-width="0" opacity="null" x="281.5" y="123" id="svg_14" font-size="80" font-family="sans-serif" text-anchor="start" xml:space="preserve">  Save Groups</text>
  <text fill="#8F1114" stroke="null" stroke-width="0" opacity="null" x="280.5" y="203" id="svg_15" font-size="80" font-family="sans-serif" text-anchor="start" xml:space="preserve">  to .Nexus</text>
 </g>
</svg>