<svg width="800" height="276.157" xmlns="http://www.w3.org/2000/svg">

 <g>
  <title>background</title>
  <rect fill="none" id="canvas_background" height="278.157" width="752" y="-1" x="-1"/>
 </g>
 <g>
  <title>Layer 1</title>
  <circle id="svg_1" fill="#8F1114" cy="138.0785" cx="138.0785" r="138.0785"/>
  <g id="svg_2" transform="matrix(0.7,0,0,0.7,41.42350158691407,41.42324810028077) ">
   <path id="svg_3" fill="#CFCFCF" d="m273.081,101.378c-3.3,-4.651 -8.86,-7.319 -15.255,-7.319l-24.34,0l0,-26.47c0,-10.201 -8.299,-18.5 -18.5,-18.5l-85.322,0c-3.63,0 -9.295,-2.876 -11.436,-5.806l-6.386,-8.735c-4.982,-6.814 -15.104,-11.954 -23.546,-11.954l-29.565,0c-9.293,0 -18.639,6.608 -21.738,15.372l-2.033,5.752c-0.958,2.71 -4.721,5.371 -7.596,5.371l-8.864,0c-10.201,0 -18.5,8.299 -18.5,18.5l0,167.07c0,0.885 0.161,1.73 0.443,2.519c0.152,3.306 1.18,6.424 3.053,9.064c3.3,4.652 8.86,7.319 15.255,7.319l188.486,0c11.395,0 23.27,-8.424 27.035,-19.179l40.677,-116.188c2.112,-6.035 1.432,-12.164 -1.868,-16.816zm-254.581,-37.289l8.864,0c9.295,0 18.64,-6.608 21.738,-15.372l2.032,-5.75c0.959,-2.711 4.722,-5.372 7.597,-5.372l29.564,0c3.63,0 9.295,2.876 11.437,5.806l6.386,8.734c4.982,6.815 15.104,11.954 23.546,11.954l85.322,0c1.898,0 3.5,1.603 3.5,3.5l0,26.47l-149.146,0c-11.395,0 -23.27,8.424 -27.035,19.179l-27.305,77.993l0,-123.642c0,-1.897 1.603,-3.5 3.5,-3.5zm242.291,49.149l-40.677,116.188c-1.674,4.781 -7.812,9.135 -12.877,9.135l-188.486,0c-1.448,0 -2.577,-0.373 -3.02,-0.998c-0.443,-0.625 -0.423,-1.814 0.056,-3.181l40.677,-116.188c1.674,-4.781 7.812,-9.135 12.877,-9.135l188.486,0c1.448,0 2.577,0.373 3.021,0.998c0.442,0.625 0.422,1.814 -0.057,3.181z"/>
   <g id="svg_4"/>
   <g id="svg_5"/>
   <g id="svg_6"/>
   <g id="svg_7"/>
   <g id="svg_8"/>
   <g id="svg_9"/>
   <g id="svg_10"/>
   <g id="svg_11"/>
   <g id="svg_12"/>
   <g id="svg_13"/>
   <g id="svg_14"/>
   <g id="svg_15"/>
   <g id="svg_16"/>
   <g id="svg_17"/>
   <g id="svg_18"/>
  </g>
  <text font-weight="normal" xml:space="preserve" text-anchor="start" font-family="sans-serif" font-size="80" id="svg_20" y="165.53162" x="280.5" stroke-opacity="null" stroke-width="0" stroke="null" fill="#8F1114">  File Browser</text>
 </g>
</svg>