<svg width="800" height="276.157" xmlns="http://www.w3.org/2000/svg">

 <g>
  <title>background</title>
  <rect fill="none" id="canvas_background" height="278.157" width="752" y="-1" x="-1"/>
 </g>
 <g>
  <title>Layer 1</title>
  <g id="surface1">
   <path id="svg_1" fill-rule="nonzero" fill="#8F1114" d="m276,138c0,76.21484 -61.78516,138 -138,138c-76.21484,0 -138,-61.78516 -138,-138c0,-76.21484 61.78516,-138 138,-138c76.21484,0 138,61.78516 138,138zm0,0"/>
   <path id="svg_2" fill-rule="nonzero" fill="#CFCFCF" d="m112.40234,121.89844c-22.19531,0 -40.25,-18.05469 -40.25,-40.25c0,-22.19141 18.05469,-40.25 40.25,-40.25c22.19532,0 40.25,18.05859 40.25,40.25c0,22.19531 -18.05468,40.25 -40.25,40.25zm0,-72.44922c-17.75781,0 -32.19921,14.44141 -32.19921,32.19922c0,17.76172 14.4414,32.20312 32.19921,32.20312c17.75782,0 32.19922,-14.4414 32.19922,-32.20312c0,-17.75781 -14.4414,-32.19922 -32.19922,-32.19922zm0,0"/>
   <path id="svg_3" fill-rule="nonzero" fill="#CFCFCF" d="m108.37891,210.44922l-64.40235,0c-2.22265,0 -4.02343,-1.80078 -4.02343,-4.02344l0,-32.19922c0,-19.97265 16.2539,-36.22656 36.22265,-36.22656l48.30078,0c2.22266,0 4.02735,1.80469 4.02735,4.02344c0,2.22265 -1.80469,4.02734 -4.02735,4.02734l-48.30078,0c-15.53515,0 -28.17187,12.63672 -28.17187,28.17578l0,28.17188l60.375,0c2.21875,0 4.02343,1.80469 4.02343,4.02734c0,2.22266 -1.80468,4.02344 -4.02343,4.02344zm0,0"/>
   <path id="svg_4" fill-rule="nonzero" fill="#CFCFCF" d="m176.80078,202.39844c-11.08984,0 -20.125,-9.03125 -20.125,-20.125c0,-11.08985 9.03516,-20.125 20.125,-20.125c11.09375,0 20.125,9.03515 20.125,20.125c0,11.09375 -9.03125,20.125 -20.125,20.125zm0,-32.19922c-6.65625,0 -12.07422,5.41797 -12.07422,12.07422c0,6.66015 5.41797,12.07812 12.07422,12.07812c6.66016,0 12.07813,-5.41797 12.07813,-12.07812c0,-6.65625 -5.41797,-12.07422 -12.07813,-12.07422zm0,0"/>
   <path id="svg_5" fill-rule="nonzero" fill="#CFCFCF" d="m183.21875,234.60156l-12.83984,0c-4.15235,0 -7.59766,-3.11718 -8.01172,-7.2539l-1.01953,-10.23047c-2.44141,-1.08985 -4.76563,-2.44141 -6.96485,-4.05078l-9.40234,4.24218c-3.77344,1.72266 -8.21094,0.28125 -10.28125,-3.3164l-6.41406,-11.11719c-2.07813,-3.59766 -1.09375,-8.13672 2.26953,-10.5625l8.28515,-5.95703c-0.16406,-1.24609 -0.27343,-2.63281 -0.27343,-4.08203c0,-1.44922 0.10937,-2.83985 0.27343,-4.07813l-8.28515,-5.95703c-3.36328,-2.42578 -4.34766,-6.96484 -2.26953,-10.5625l6.41406,-11.11719c2.07812,-3.59765 6.48828,-5.02343 10.28125,-3.3164l9.40234,4.24219c2.19922,-1.60938 4.52344,-2.96485 6.96485,-4.05079l1.01953,-10.23046c0.41406,-4.12891 3.85937,-7.2461 8.01172,-7.2461l12.83984,0c4.15234,0 7.59766,3.11719 8.00781,7.25391l1.02344,10.23047c2.44922,1.08984 4.77344,2.44922 6.96484,4.05078l9.40235,-4.24219c3.78906,-1.69922 8.21094,-0.27344 10.27734,3.31641l6.41797,11.11718c2.07813,3.59766 1.09375,8.13672 -2.26953,10.5625l-8.28516,5.95704c0.16016,1.24609 0.27344,2.63281 0.27344,4.07812c0,1.44922 -0.11328,2.84375 -0.27344,4.08203l8.28516,5.95703c3.36328,2.42578 4.34766,6.96485 2.26953,10.5625l-6.41016,11.10938c-2.07421,3.58984 -6.48046,5.03125 -10.27734,3.3164l-9.40234,-4.24218c-2.19922,1.60937 -4.52344,2.96093 -6.96485,4.05078l-1.03125,10.23828c-0.41015,4.12891 -3.85547,7.24609 -8.00781,7.24609zm-28.27344,-30.23047c0.92578,0 1.84375,0.32422 2.58594,0.94141c2.72656,2.28906 5.74609,4.03516 8.96094,5.21094c1.44531,0.53125 2.46875,1.84375 2.62109,3.3789l1.27344,12.64844l12.83984,0l1.26563,-12.64844c0.15234,-1.53515 1.17187,-2.84765 2.62109,-3.3789c3.21485,-1.17578 6.23047,-2.92969 8.96094,-5.21094c1.19141,-0.98828 2.83203,-1.21484 4.23437,-0.57812l11.625,5.25l6.41407,-11.11719l-10.28516,-7.39063c-1.25781,-0.90234 -1.87891,-2.44922 -1.62109,-3.96875c0.30078,-1.69922 0.53906,-3.42968 0.53906,-5.21484c0,-1.78906 -0.23828,-3.51953 -0.53906,-5.21875c-0.26563,-1.51953 0.36328,-3.05859 1.62109,-3.96875l10.28516,-7.39063l-6.41407,-11.11718l-11.625,5.24218c-1.41015,0.63672 -3.05078,0.41016 -4.24218,-0.57812c-2.72266,-2.28906 -5.73047,-4.03516 -8.96094,-5.21094c-1.44922,-0.53125 -2.46875,-1.84375 -2.625,-3.3789l-1.26172,-12.67188l-12.83984,0l-1.26563,12.64844c-0.15234,1.53515 -1.17578,2.84765 -2.62109,3.3789c-3.21485,1.17579 -6.23438,2.92969 -8.96094,5.20704c-1.18359,0.99218 -2.82422,1.22656 -4.23437,0.58203l-11.625,-5.25l-6.41407,11.11718l10.28516,7.39063c1.25781,0.90234 1.87891,2.44531 1.62109,3.96875c-0.30078,1.69922 -0.54297,3.42969 -0.54297,5.21484c0,1.78907 0.24219,3.51953 0.54297,5.21875c0.26563,1.51953 -0.36328,3.0586 -1.62109,3.96875l-10.28516,7.38672l6.41407,11.11719l11.625,-5.23828c0.53125,-0.22656 1.08593,-0.33985 1.64843,-0.33985zm0,0"/>
  </g>
  <text fill="#8F1114" stroke="null" stroke-width="0" opacity="null" x="281.5" y="123" id="svg_14" font-size="80" font-family="sans-serif" text-anchor="start" xml:space="preserve">  User</text>
  <text fill="#8F1114" stroke="null" stroke-width="0" opacity="null" x="280.5" y="203" id="svg_15" font-size="80" font-family="sans-serif" text-anchor="start" xml:space="preserve">  Preferences</text>
 </g>
</svg>