<?xml version="1.0" encoding="UTF-8"?>
<svg xmlns="http://www.w3.org/2000/svg" xmlns:xlink="http://www.w3.org/1999/xlink" width="100pt" height="100pt" viewBox="0 0 100 100" version="1.1">
<g id="surface1">
<path style=" stroke:none;fill-rule:nonzero;fill:rgb(0%,0%,0%);fill-opacity:1;" d="M 93.988281 41.082031 C 93.320312 40.414062 92.550781 40.082031 91.683594 40.082031 C 90.816406 40.082031 90.046875 40.414062 89.378906 41.082031 L 50 80.460938 L 10.617188 41.082031 C 9.949219 40.414062 9.179688 40.082031 8.316406 40.082031 C 7.445312 40.082031 6.675781 40.414062 6.007812 41.082031 L 1 46.09375 C 0.332031 46.761719 0 47.53125 0 48.398438 C 0 49.265625 0.332031 50.035156 1 50.703125 L 47.695312 97.394531 C 48.363281 98.066406 49.128906 98.398438 50 98.398438 C 50.867188 98.398438 51.636719 98.0625 52.304688 97.394531 L 98.996094 50.703125 C 99.667969 50.035156 100 49.265625 100 48.394531 C 100 47.53125 99.664062 46.761719 98.996094 46.09375 Z M 93.988281 41.082031 "/>
<path style=" stroke:none;fill-rule:nonzero;fill:rgb(0%,0%,0%);fill-opacity:1;" d="M 47.695312 58.917969 C 48.363281 59.585938 49.128906 59.917969 50 59.917969 C 50.867188 59.917969 51.636719 59.585938 52.304688 58.917969 L 98.996094 12.222656 C 99.667969 11.554688 100 10.789062 100 9.917969 C 100 9.050781 99.664062 8.28125 98.996094 7.613281 L 93.988281 2.601562 C 93.320312 1.9375 92.550781 1.605469 91.683594 1.605469 C 90.816406 1.605469 90.046875 1.9375 89.378906 2.601562 L 50 41.984375 L 10.617188 2.601562 C 9.949219 1.9375 9.179688 1.601562 8.316406 1.601562 C 7.445312 1.601562 6.675781 1.933594 6.007812 2.601562 L 1 7.613281 C 0.332031 8.28125 0 9.050781 0 9.917969 C 0 10.789062 0.332031 11.554688 1 12.222656 Z M 47.695312 58.917969 "/>
</g>
</svg>
