<?xml version="1.0" encoding="UTF-8"?>
<svg xmlns="http://www.w3.org/2000/svg" xmlns:xlink="http://www.w3.org/1999/xlink" width="30pt" height="30pt" viewBox="0 0 30 30" version="1.1">
<g id="surface1">
<path style=" stroke:none;fill-rule:nonzero;fill:rgb(0%,0%,0%);fill-opacity:1;" d="M 27.179688 6.707031 L 26.519531 4.71875 C 26.265625 3.964844 25.558594 3.457031 24.761719 3.457031 L 19.195312 3.457031 L 19.195312 1.644531 C 19.195312 0.738281 18.460938 0 17.554688 0 L 12.457031 0 C 11.550781 0 10.8125 0.738281 10.8125 1.644531 L 10.8125 3.457031 L 5.246094 3.457031 C 4.449219 3.457031 3.746094 3.964844 3.492188 4.71875 L 2.828125 6.707031 C 2.679688 7.15625 2.753906 7.65625 3.035156 8.042969 C 3.3125 8.429688 3.761719 8.664062 4.238281 8.664062 L 4.933594 8.664062 L 6.457031 27.507812 C 6.570312 28.90625 7.757812 30 9.15625 30 L 21.160156 30 C 22.5625 30 23.75 28.90625 23.863281 27.507812 L 25.386719 8.664062 L 25.769531 8.664062 C 26.246094 8.664062 26.699219 8.429688 26.976562 8.046875 C 27.253906 7.660156 27.332031 7.15625 27.179688 6.707031 Z M 12.570312 1.757812 L 17.4375 1.757812 L 17.4375 3.457031 L 12.570312 3.457031 Z M 22.109375 27.363281 C 22.070312 27.855469 21.652344 28.242188 21.160156 28.242188 L 9.15625 28.242188 C 8.664062 28.242188 8.25 27.855469 8.207031 27.363281 L 6.695312 8.664062 L 23.625 8.664062 Z M 4.617188 6.90625 L 5.160156 5.277344 C 5.171875 5.238281 5.207031 5.214844 5.246094 5.214844 L 24.761719 5.214844 C 24.804688 5.214844 24.835938 5.238281 24.851562 5.277344 L 25.394531 6.90625 Z M 4.617188 6.90625 "/>
<path style=" stroke:none;fill-rule:nonzero;fill:rgb(0%,0%,0%);fill-opacity:1;" d="M 19.308594 27.300781 C 19.324219 27.304688 19.339844 27.304688 19.355469 27.304688 C 19.820312 27.304688 20.207031 26.9375 20.230469 26.46875 L 21.054688 10.625 C 21.082031 10.140625 20.707031 9.726562 20.222656 9.703125 C 19.738281 9.675781 19.324219 10.050781 19.300781 10.535156 L 18.476562 26.378906 C 18.449219 26.863281 18.824219 27.277344 19.308594 27.300781 Z M 19.308594 27.300781 "/>
<path style=" stroke:none;fill-rule:nonzero;fill:rgb(0%,0%,0%);fill-opacity:1;" d="M 9.816406 26.472656 C 9.84375 26.941406 10.230469 27.304688 10.695312 27.304688 C 10.710938 27.304688 10.726562 27.304688 10.742188 27.300781 C 11.226562 27.277344 11.601562 26.863281 11.574219 26.375 L 10.710938 10.53125 C 10.683594 10.046875 10.269531 9.675781 9.785156 9.703125 C 9.300781 9.730469 8.929688 10.144531 8.953125 10.628906 Z M 9.816406 26.472656 "/>
<path style=" stroke:none;fill-rule:nonzero;fill:rgb(0%,0%,0%);fill-opacity:1;" d="M 15.015625 27.304688 C 15.5 27.304688 15.894531 26.910156 15.894531 26.425781 L 15.894531 10.582031 C 15.894531 10.09375 15.5 9.703125 15.015625 9.703125 C 14.53125 9.703125 14.136719 10.09375 14.136719 10.582031 L 14.136719 26.425781 C 14.136719 26.910156 14.53125 27.304688 15.015625 27.304688 Z M 15.015625 27.304688 "/>
</g>
</svg>
