<?xml version="1.0" encoding="UTF-8"?>
<svg xmlns="http://www.w3.org/2000/svg" xmlns:xlink="http://www.w3.org/1999/xlink" width="100pt" height="100pt" viewBox="0 0 100 100" version="1.1">
<g id="surface1">
<path style=" stroke:none;fill-rule:nonzero;fill:rgb(0%,0%,0%);fill-opacity:1;" d="M 91.742188 25.90625 C 90.785156 26.863281 89.789062 27.640625 88.742188 28.257812 L 71.703125 11.21875 C 72.320312 10.167969 73.097656 9.171875 74.054688 8.214844 C 75.886719 6.382812 75.886719 3.402344 74.054688 1.570312 C 72.222656 -0.261719 69.242188 -0.261719 67.410156 1.570312 C 59.78125 9.195312 59.671875 18.414062 61.003906 26.738281 C 51.316406 24.742188 40.605469 23.890625 32.054688 32.441406 C 28.1875 36.308594 25.964844 40.847656 25.261719 46.320312 C 25.15625 47.125 25.722656 47.859375 26.527344 47.964844 C 27.328125 48.066406 28.066406 47.5 28.167969 46.695312 C 28.789062 41.890625 30.738281 37.90625 34.128906 34.515625 C 42.003906 26.636719 51.957031 27.769531 61.570312 29.855469 C 61.855469 31.292969 62.109375 32.417969 62.390625 33.65625 C 52.839844 31.484375 43.589844 29.949219 36.617188 37.023438 C 21.023438 52.636719 47.519531 79.273438 30.089844 96.703125 C 29.402344 97.390625 28.28125 97.390625 27.589844 96.703125 C 26.902344 96.015625 26.902344 94.894531 27.589844 94.203125 C 38.640625 83.152344 28.769531 67.277344 27.992188 52.074219 C 27.953125 51.265625 27.269531 50.644531 26.453125 50.6875 C 25.644531 50.726562 25.023438 51.417969 25.0625 52.226562 C 25.226562 55.378906 25.761719 58.539062 26.351562 61.394531 C 18.027344 60.058594 8.808594 60.171875 1.183594 67.796875 C -0.65625 69.632812 -0.65625 72.605469 1.183594 74.441406 C 3.019531 76.277344 5.992188 76.277344 7.828125 74.441406 C 8.785156 73.484375 9.78125 72.707031 10.832031 72.089844 L 27.871094 89.128906 C 27.253906 90.175781 26.476562 91.171875 25.515625 92.132812 C 23.683594 93.960938 23.683594 96.945312 25.515625 98.777344 C 27.347656 100.609375 30.332031 100.609375 32.164062 98.777344 C 39.789062 91.148438 39.902344 81.929688 38.566406 73.609375 C 49.625 75.886719 59.507812 75.914062 67.515625 67.90625 C 76.066406 59.355469 75.21875 48.640625 73.21875 38.953125 C 76 39.394531 78.796875 39.660156 81.609375 39.574219 C 82.417969 39.546875 83.054688 38.871094 83.027344 38.0625 C 83.003906 37.25 82.328125 36.613281 81.515625 36.640625 C 78.890625 36.722656 76.019531 36.476562 72.546875 35.867188 C 72.265625 34.628906 71.988281 33.460938 71.679688 32.121094 C 79.8125 33.757812 87.554688 34.238281 93.816406 27.976562 C 94.503906 27.289062 95.625 27.289062 96.316406 27.976562 C 97.007812 28.667969 97.007812 29.785156 96.316406 30.476562 C 93.574219 33.21875 90.472656 35.003906 86.84375 35.921875 C 86.058594 36.121094 85.582031 36.917969 85.78125 37.703125 C 85.980469 38.488281 86.78125 38.964844 87.5625 38.765625 C 91.71875 37.710938 95.261719 35.679688 98.390625 32.550781 C 99.277344 31.664062 99.765625 30.484375 99.765625 29.226562 C 99.765625 25.054688 94.6875 22.960938 91.742188 25.90625 Z M 5.753906 72.367188 C 5.0625 73.058594 3.945312 73.058594 3.253906 72.367188 C 2.566406 71.675781 2.566406 70.558594 3.253906 69.871094 C 8.003906 65.121094 13.570312 63.691406 19.109375 63.691406 C 21.785156 63.691406 24.457031 64.027344 27.027344 64.480469 C 27.304688 65.710938 27.589844 66.921875 27.890625 68.226562 C 19.757812 66.585938 12.015625 66.105469 5.753906 72.367188 Z M 13.710938 70.820312 C 17.691406 69.597656 22.449219 70.066406 28.589844 71.367188 C 29.894531 77.507812 30.359375 82.269531 29.136719 86.246094 Z M 36.445312 63.511719 C 35.328125 58.683594 34.339844 54.183594 34.382812 50.109375 L 49.851562 65.574219 C 45.777344 65.621094 41.273438 64.628906 36.445312 63.511719 Z M 53.613281 65.191406 L 34.769531 46.347656 C 35.234375 44.121094 36.15625 42.058594 37.710938 40.171875 L 59.785156 62.246094 C 57.902344 63.804688 55.835938 64.722656 53.613281 65.191406 Z M 61.859375 60.175781 L 39.785156 38.097656 C 41.671875 36.542969 43.734375 35.621094 45.960938 35.15625 L 64.804688 54 C 64.335938 56.222656 63.417969 58.289062 61.859375 60.175781 Z M 63.125 36.832031 C 64.242188 41.660156 65.230469 46.164062 65.1875 50.238281 L 49.722656 34.769531 C 53.792969 34.726562 58.296875 35.714844 63.125 36.832031 Z M 65.445312 65.832031 C 57.566406 73.710938 47.613281 72.574219 38 70.492188 C 37.796875 69.460938 37.570312 68.398438 37.179688 66.691406 C 46.855469 68.890625 55.914062 70.363281 62.945312 63.332031 C 78.433594 47.84375 52.152344 20.972656 69.484375 3.644531 C 70.171875 2.953125 71.292969 2.953125 71.980469 3.644531 C 72.667969 4.332031 72.667969 5.453125 71.980469 6.140625 C 56.40625 21.71875 82.867188 48.410156 65.445312 65.832031 Z M 70.980469 28.980469 C 69.679688 22.835938 69.210938 18.078125 70.433594 14.097656 L 85.859375 29.523438 C 81.882812 30.75 77.121094 30.28125 70.980469 28.980469 Z M 70.980469 28.980469 "/>
</g>
</svg>
