<svg width="800" height="276" xmlns="http://www.w3.org/2000/svg">

 <g>
  <title>background</title>
  <rect fill="none" id="canvas_background" height="278" width="278" y="-1" x="-1"/>
 </g>
 <g>
  <title>Layer 1</title>
  <g id="surface1">
   <path id="svg_1" fill-rule="nonzero" fill="#560A07" d="m276,138c0,76.21484 -61.78516,138 -138,138c-76.21484,0 -138,-61.78516 -138,-138c0,-76.21484 61.78516,-138 138,-138c76.21484,0 138,61.78516 138,138zm0,0"/>
   <path id="svg_2" fill-rule="nonzero" fill="#CFCFCF" d="m160.39844,43.15234c-1.13672,-1.13281 -2.67969,-1.76171 -4.28516,-1.7539l-96.60156,0c-10.00391,0 -18.11328,8.10937 -18.11328,18.11328l0,156.97656c0,10.00391 8.10937,18.11328 18.11328,18.11328l42.26172,0l0,-12.07812l-42.26172,0c-3.33203,0 -6.03516,-2.70313 -6.03516,-6.03516l0,-156.97656c0,-3.33203 2.70313,-6.03516 6.03516,-6.03516l90.5625,0l0,24.14844c0,6.66797 5.40625,12.07422 12.07422,12.07422l24.15234,0l0,18.11328l12.07422,0l0,-24.14844c0.00781,-1.60547 -0.62109,-3.14843 -1.75,-4.28906l-36.22656,-36.22266zm0,0"/>
   <path id="svg_3" fill-rule="nonzero" fill="#CFCFCF" d="m107.8125,150.07422l12.07422,0l0,48.30078l12.07422,0l0,-48.30078l12.07812,0l0,-12.07422l-36.22656,0l0,12.07422zm0,0"/>
   <path id="svg_4" fill-rule="nonzero" fill="#CFCFCF" d="m89.69922,162.14844l-12.07422,0l0,-24.14844l-12.07422,0l0,60.375l12.07422,0l0,-24.14844l12.07422,0l0,24.14844l12.07422,0l0,-60.375l-12.07422,0l0,24.14844zm0,0"/>
   <path id="svg_5" fill-rule="nonzero" fill="#CFCFCF" d="m194.63281,138.48438c-2.26172,-0.92969 -4.85937,-0.40625 -6.58203,1.32812l-13.82422,13.82422l-13.82812,-13.82422c-2.34766,-2.36719 -6.17188,-2.38281 -8.53906,-0.03516c-1.13672,1.125 -1.77735,2.66016 -1.78516,4.26172l0,54.33594l12.07422,0l0,-39.78906l7.78906,7.78906c2.35547,2.34375 6.16016,2.34375 8.51563,0l7.84765,-7.78906l0,39.78906l12.07422,0l0,-54.33594c-0.01172,-2.4375 -1.48828,-4.6289 -3.74219,-5.55468zm0,0"/>
   <path id="svg_6" fill-rule="nonzero" fill="#CFCFCF" d="m216.48828,186.30078l0,-48.30078l-12.07422,0l0,54.33594c0,3.33594 2.70313,6.03906 6.03516,6.03906l24.15234,0l0,-12.07422l-18.11328,0zm0,0"/>
  </g>
  <text xml:space="preserve" text-anchor="start" font-family="sans-serif" font-size="80" id="svg_7" y="165" x="280.5" opacity="null" stroke-width="0" stroke="null" fill="#560A07">  Save Text</text>
 </g>
</svg>