<svg width="550" height="400" xmlns="http://www.w3.org/2000/svg" version="1.1">

 <g>
  <title>background</title>
  <rect fill="none" id="canvas_background" height="402" width="452" y="-1" x="-1"/>
 </g>
 <g>
  <title>Layer 1</title>
  <g id="surface1">
   <path id="svg_1" fill-rule="nonzero" fill="#A0A0A0" d="m387.73438,56.76172c-33.75,5.29687 -63.90625,22.54687 -95.55079,54.53125c-3.32812,3.39844 -6.3164,6.17969 -6.58984,6.17969c-0.33984,0 -3.05469,-2.17188 -6.17969,-4.82032c-11.54687,-10.05078 -23.29297,-18.26953 -26.07812,-18.26953c-2.17188,0 -5.4336,1.76563 -6.31641,3.32813c-0.88281,1.69922 -0.88281,5.91015 0,7.53906c0.40625,0.74609 2.78516,2.78516 5.29688,4.55078c5.43359,3.80078 15.55078,11.81641 19.83203,15.6211l3.05469,2.71484l-5.56641,6.04297c-9.23828,10.12109 -12.36328,12.90625 -13.37891,12.15625c-0.54687,-0.40625 -3.53515,-2.78125 -6.65625,-5.29688c-8.21875,-6.78906 -20.71484,-14.87109 -29.33984,-19.08203c-18.19922,-8.82812 -34.63672,-12.5625 -55.55469,-12.63281c-12.08594,0 -13.92187,-0.47656 -14.53125,-3.73438c-0.74609,-4.00781 0,-21.25781 0.94922,-22.20703c1.22266,-1.22265 23.56641,-0.8164 33.75391,0.54297c15.00781,2.03516 14.125,2.03516 16.70703,-0.27344c1.96875,-1.76562 2.30859,-2.51171 2.30859,-5.16015c0,-2.44531 -0.40625,-3.46485 -1.76562,-4.89063c-3.05469,-2.98828 -13.03907,-4.34375 -34.90625,-4.82031l-18.33594,-0.33984l-3.73828,1.96875c-2.57813,1.35937 -4.41406,2.92187 -5.97656,5.23047l-2.17188,3.25781l0,33.6875l2.24219,3.25781c3.32812,5.02734 7.80859,7.0625 15.34765,7.0625c10.52735,0.07031 24.71875,1.22266 31.98829,2.71875c18.74218,3.80078 35.85546,12.15625 53.24218,26.01172c3.19141,2.57812 5.83985,4.88672 5.83985,5.29687c0,0.33985 -2.51172,2.64844 -5.56641,5.09375c-17.32031,13.78516 -35.04297,22.47657 -53.04297,26.07813c-7.1289,1.42578 -22.07031,2.64844 -32.46094,2.71484c-7.53906,0 -12.01953,2.03907 -15.34765,7.0625l-2.24219,3.26172l0,33.6836l2.24219,3.26171c1.49219,2.3086 3.32812,3.8711 5.90625,5.22657l3.73828,1.97265l17.99609,-0.33984c17.79297,-0.33984 23.15625,-0.88281 35.99219,-3.66797c26.35156,-5.70703 52.70313,-19.55859 76.53906,-40.20703c3.125,-2.64844 5.83985,-4.82031 6.04297,-4.82031c0.27344,0 4.6211,4.07422 9.71485,8.96484c30.49218,29.67969 55.34765,44.27734 85.97656,50.52734c4.89062,0.94922 11.13672,1.83204 13.99219,1.83204c4.48046,0.13671 5.63671,-0.13282 9.16796,-1.89844c2.91797,-1.4961 4.61719,-2.92188 6.2461,-5.36719l2.17187,-3.25781l0,-33.55078l-1.96875,-3.125c-2.71484,-4.34375 -6.38281,-6.2461 -16.02734,-8.35157c-9.50781,-2.17578 -15.62109,-4.28125 -23.08984,-8.01562c-12.4961,-6.24609 -24.85547,-15.55078 -38.3711,-28.79297l-8.48828,-8.35547l8.82813,-8.6914c22.0039,-21.59766 40,-32.25782 62.07421,-36.74219c8.55469,-1.69922 12.35938,-3.80078 15.07422,-8.08203l1.96875,-3.125l0,-33.54688l-2.17187,-3.26172c-1.62891,-2.375 -3.25781,-3.80078 -5.97656,-5.16015c-4.82032,-2.375 -9.03125,-2.71485 -16.84375,-1.49219zm9.64453,13.98828c1.15625,0.47656 1.90234,1.49219 2.17578,2.92188c0.60937,3.32421 0,21.2539 -0.75,22.0039c-0.33985,0.33985 -3.80078,1.28906 -7.53516,2.03516c-14.26172,2.92187 -27.23437,8.48828 -40.41015,17.38672c-13.92188,9.4414 -21.66407,16.43359 -50.52735,45.77343c-19.28906,19.5586 -30.28906,29.7461 -40.07031,37.14844c-19.01563,14.39844 -36.73828,23.16016 -57.38672,28.45703c-10.32031,2.64844 -18.40234,3.66797 -33.82031,4.48047c-16.50391,0.88281 -18.13281,0.61328 -18.87891,-3.05469c-0.74609,-4.07421 0,-21.32421 0.94922,-22.27734c0.61328,-0.60937 5.02734,-1.01953 15.96094,-1.35547c12.29297,-0.33984 16.57031,-0.75 23.08984,-2.17578c15.07813,-3.25781 29.47656,-9.03125 42.3086,-17.11328c15.62109,-9.84766 24.51953,-17.58984 56.30078,-49.50781c33.14453,-33.34766 44.21093,-42.44532 63.5,-52.22657c13.17578,-6.72265 26.55468,-10.86718 42.92187,-13.24218c0.26953,-0.07032 1.22266,0.26953 2.17188,0.74609zm-73.27735,105.94531c16.77344,15.75391 27.57422,23.70313 41.42578,30.49219c9.10157,4.41406 15.96094,6.79297 25.0625,8.69531c8.08204,1.69532 8.42188,1.83203 8.96485,4.41407c0.74609,4.07421 0,21.32421 -0.95313,22.27343c-3.125,3.125 -29.26953,-3.46484 -44.89062,-11.33984c-16.50391,-8.21875 -30.28906,-18.60938 -49.50781,-37.28516l-8.35547,-8.14843l9.03515,-9.03516c4.95703,-4.95703 9.16797,-9.03125 9.3711,-9.03125c0.20312,0 4.61718,4.00781 9.84765,8.96484zm0,0"/>
   <path id="svg_2" fill-rule="nonzero" fill="#A0A0A0" d="m222.43359,81.20703c-2.30859,1.22266 -3.25781,2.92188 -3.25781,5.70703c0,4.82032 3.73438,8.08203 8.35156,7.19922c3.46485,-0.67969 5.57032,-3.26172 5.57032,-6.99609c0,-2.58203 -0.33985,-3.32813 -2.24219,-5.02735c-2.44531,-2.23828 -5.43359,-2.51171 -8.42188,-0.88281zm0,0"/>
  </g>
  <text stroke-opacity="null" stroke-width="0" stroke="null" fill="#A0A0A0" x="13" y="366" id="svg_3" font-size="80" font-family="sans-serif" text-anchor="start" xml:space="preserve">Recombination</text>
 </g>

</svg>