<svg width="800" height="276" xmlns="http://www.w3.org/2000/svg">

 <g>
  <title>background</title>
  <rect fill="none" id="canvas_background" height="278" width="278" y="-1" x="-1"/>
 </g>
 <g>
  <title>Layer 1</title>
  <g id="surface1">
   <path id="svg_1" fill-rule="nonzero" fill="#A0A0A0" d="m276,138c0,76.21484 -61.78516,138 -138,138c-76.21484,0 -138,-61.78516 -138,-138c0,-76.21484 61.78516,-138 138,-138c76.21484,0 138,61.78516 138,138zm0,0"/>
   <path id="svg_2" fill-rule="nonzero" fill="#CFCFCF" d="m128.40234,149.35938c3.90625,-2.4375 7.4375,-5.41407 10.50391,-8.82422l11.04297,6.3789l10.05469,-17.41797l-11.02344,-6.36328c1.40234,-4.27734 2.22656,-8.8125 2.38281,-13.51562l12.53516,-2.21094l-3.49219,-19.80469l-12.53516,2.21094c-1.73437,-4.29687 -4.05859,-8.28906 -6.875,-11.875l8.19532,-9.76562l-15.40625,-12.92579l-8.1875,9.75782c-4,-2.14453 -8.32813,-3.7461 -12.89453,-4.70703l0,-12.72266l-20.10938,0l0,12.72266c-4.5625,0.96093 -8.89453,2.5625 -12.89453,4.70703l-8.1875,-9.75782l-15.40234,12.92579l8.1914,9.76562c-2.8164,3.58984 -5.14062,7.58203 -6.875,11.875l-12.53515,-2.21094l-3.49219,19.80469l12.53906,2.21094c0.15234,4.70312 0.97656,9.23828 2.37891,13.51953l-11.02344,6.36328l10.05859,17.41406l11.04297,-6.375c3.0625,3.40625 6.59375,6.38282 10.5,8.82032l-4.35937,11.97656l18.89843,6.875l4.35157,-11.95703c2.24218,0.3164 4.53515,0.48437 6.86328,0.48437c2.33203,0 4.62109,-0.16797 6.86328,-0.48437l4.35547,11.96093l18.89453,-6.8789l-4.35938,-11.97656zm-25.7539,-15.6836c-14.16016,0 -25.67969,-11.51953 -25.67969,-25.67969c0,-14.16015 11.51953,-25.68359 25.67969,-25.68359c14.16015,0 25.67969,11.52344 25.67969,25.68359c0,14.16016 -11.51954,25.67969 -25.67969,25.67969zm0,0"/>
   <path id="svg_3" fill-rule="nonzero" fill="#CFCFCF" d="m214.83984,164.46094l-8.66796,2.80469c-1.65235,-2.875 -3.69532,-5.47657 -6.04688,-7.74219l4.84375,-7.73047l-12.19922,-7.64063l-4.83984,7.72266c-3.04688,-1.125 -6.27344,-1.83203 -9.60547,-2.0625l-1.25781,-9.01953l-14.25782,1.98828l1.25782,9.01953c-3.14063,1.13281 -6.05469,2.69922 -8.67969,4.60938l-6.76563,-6.10547l-9.64453,10.68359l6.77344,6.11719c-1.64453,2.82031 -2.89453,5.87891 -3.69922,9.09766l-9.10937,-0.32813l-0.51953,14.38281l9.10546,0.33203c0.57422,3.32032 1.60938,6.45313 3.02735,9.34766l-7.1875,5.60156l8.85156,11.35157l7.19922,-5.60938c2.50781,2.11328 5.30859,3.875 8.31641,5.21875l-1.91016,8.92188l14.07812,3.00781l1.90625,-8.91016c1.6211,0.00391 3.26172,-0.10547 4.91407,-0.33594c1.65234,-0.23046 3.25781,-0.57421 4.8164,-1.01953l4.26953,8.04688l12.71875,-6.74219l-4.27343,-8.05859c2.52734,-2.11719 4.73828,-4.57422 6.57422,-7.29297l8.45703,3.42969l5.41015,-13.33985l-8.44531,-3.42578c0.57031,-3.17187 0.70703,-6.46875 0.35547,-9.82031l8.66797,-2.80469l-4.4336,-13.69531zm-36.39453,38.37109c-10.04297,1.39844 -19.34765,-5.6289 -20.74609,-15.66797c-1.40234,-10.04297 5.62891,-19.34765 15.67187,-20.74609c10.03907,-1.40234 19.34375,5.62891 20.7461,15.67187c1.39453,10.03907 -5.63281,19.34375 -15.67188,20.74219zm0,0"/>
   <path id="svg_4" fill-rule="nonzero" fill="#CFCFCF" d="m234.26172,114.57422l0.33594,-11.35938l-7.1875,-0.21484c-0.44922,-2.50391 -1.25391,-4.98437 -2.4375,-7.36719l5.64453,-4.46093l-7.04297,-8.91407l-5.64453,4.45703c-2.01172,-1.67187 -4.23828,-3.03515 -6.60156,-4.0664l1.45703,-7.05078l-11.125,-2.30469l-1.46094,7.04687c-2.56641,0.00391 -5.14844,0.36719 -7.67578,1.11329l-3.41016,-6.33204l-10.00781,5.39063l3.41016,6.33203c-2.01172,1.69922 -3.73829,3.66016 -5.15625,5.79688l-6.6836,-2.66407l-4.20312,10.5586l6.6914,2.66797c-0.4414,2.53906 -0.52734,5.14453 -0.23828,7.74609l-6.82812,2.26172l3.5664,10.78906l6.82813,-2.25781c1.33984,2.30078 2.96484,4.33203 4.80859,6.08984l-3.77734,6.11719l9.66797,5.97266l3.78906,-6.13282c2.4375,0.875 4.99219,1.41016 7.58594,1.57813l1.03906,7.125l11.24609,-1.64063l-1.03515,-7.12109c1.19922,-0.44141 2.38672,-0.97266 3.54297,-1.59766c1.16406,-0.62109 2.25781,-1.32031 3.28515,-2.07812l5.375,4.78125l7.5586,-8.48438l-5.37891,-4.78906c1.28906,-2.25781 2.25,-4.6875 2.86328,-7.20312l7.19922,0.21484zm-27.07813,6.08594c-7.04687,3.79297 -15.86718,1.14843 -19.66015,-5.89453c-3.79688,-7.04688 -1.15235,-15.8711 5.89453,-19.66407c7.04687,-3.79297 15.86719,-1.14843 19.66016,5.89844c3.79296,7.04688 1.14843,15.86328 -5.89454,19.66016zm0,0"/>
  </g>
  <text xml:space="preserve" text-anchor="start" font-family="sans-serif" font-size="80" id="svg_5" y="165" x="280.5" opacity="null" stroke-width="0" stroke="null" fill="#A0A0A0">  Settings</text>
 </g>
</svg>