<svg width="450" height="400" xmlns="http://www.w3.org/2000/svg">

 <g>
  <title>background</title>
  <rect fill="none" id="canvas_background" height="402" width="452" y="-1" x="-1"/>
 </g>
 <g>
  <title>Layer 1</title>
  <g id="surface1">
   <path id="svg_1" fill-rule="nonzero" fill="#00344C" d="m96.09671,276l9.20312,0c0.00781,-3.08203 0.26563,-6.16016 0.77344,-9.19922l99.65234,0c0.50391,3.03906 0.76563,6.11719 0.77344,9.19922l9.19922,0c0.01562,-24.36719 -13.33594,-46.77734 -34.76563,-58.37109l-43.03906,-23.3086c-5.10547,-2.77734 -9.80469,-6.25 -13.94922,-10.32031l18.15235,0l0,-9.19922l-25.88672,0c-3.85938,-5.62109 -6.76563,-11.83594 -8.61328,-18.40234l29.90234,0l0,-9.19922l-31.71484,0c-0.78516,-6.12109 -0.61719,-12.32813 0.49218,-18.39844l31.22266,0l0,-9.19922l-28.87891,0c2.27735,-6.65234 5.65235,-12.87109 9.99219,-18.40234l23.48438,0l0,-9.19922l-14.60547,0c2.71093,-2.30078 5.61718,-4.36719 8.6875,-6.16797l46.58203,-27.17578c20.36328,-11.93359 32.89062,-33.74609 32.9375,-57.34375l0,-1.3125l-9.19922,0l0,1.3125c-0.00781,2.63672 -0.19922,5.27344 -0.57422,7.88672l-100.05078,0c-0.375,-2.61328 -0.56641,-5.25 -0.57422,-7.88672l0,-1.3125l-9.20312,0l0,1.3125c0.05078,23.59766 12.57812,45.41016 32.9375,57.34375l17.73437,10.34375l-15.22656,8.88281c-22.29297,13.00782 -35.83985,37.02735 -35.42969,62.83594c0.41016,25.80469 14.70703,49.38672 37.40234,61.67969l12.72266,6.90234l-15.37109,8.32813c-21.4336,11.59375 -34.78125,34.0039 -34.76563,58.37109l-0.0039,0zm107.64062,-257.60156c-2.08984,6.67578 -5.38281,12.91015 -9.71484,18.40234l-76.26563,0c-4.32812,-5.49219 -7.61328,-11.72656 -9.69922,-18.40234l95.67969,0zm-70.07031,32.30859c-2.375,-1.40234 -4.64453,-2.97265 -6.78516,-4.70703l58.03516,0c-2.14453,1.73438 -4.41406,3.30469 -6.78516,4.70703l-22.23437,12.96485l-22.23047,-12.96485zm69.78125,206.89453l-95.09766,0c2.28906,-6.73047 5.81641,-12.96875 10.39453,-18.40234l74.3086,0c4.57812,5.43359 8.10547,11.67187 10.39453,18.40234zm-47.55078,-43.07031l20.65625,11.18359c2.33984,1.26954 4.58593,2.70313 6.73047,4.28516l-54.76954,0c2.14063,-1.58203 4.39063,-3.01562 6.73047,-4.28516l20.65235,-11.18359zm0,0"/>
   <path id="svg_2" fill-rule="nonzero" fill="#00344C" d="m224.89749,78.19922c-33.02735,0 -59.80078,26.77344 -59.80078,59.80078c0,33.02734 26.77343,59.80078 59.80078,59.80078c33.02734,0 59.80078,-26.77344 59.80078,-59.80078c-0.03906,-33.01172 -26.78906,-59.76172 -59.80078,-59.80078zm50.60156,59.80078c-0.01172,3.08594 -0.30469,6.16406 -0.87891,9.19922l-45.12109,0l7.35937,-5.51953c1.15625,-0.86719 1.83985,-2.23047 1.83985,-3.67969c0,-1.44922 -0.6836,-2.8125 -1.83985,-3.67969l-7.35937,-5.51953l45.12109,0c0.57422,3.03125 0.86719,6.11328 0.87891,9.19922zm-101.19922,0c0.01172,-3.08594 0.30469,-6.16797 0.87891,-9.19922l38.98828,0l12.26172,9.19922l-12.26172,9.19922l-38.98828,0c-0.57422,-3.03516 -0.86719,-6.11328 -0.87891,-9.19922zm50.59766,-50.60156c20.82422,0.03515 39.5039,12.80859 47.08593,32.20312l-94.16796,0c7.58203,-19.39453 26.26171,-32.16797 47.08203,-32.20312zm0,101.20312c-20.82032,-0.03515 -39.5,-12.80859 -47.08203,-32.20312l94.16796,0c-7.58203,19.39453 -26.26171,32.16797 -47.08593,32.20312zm0,0"/>
   <path id="svg_3" fill-rule="nonzero" fill="#00344C" d="m314.20217,184l5.94922,-5.94922l-6.5039,-6.5039l-5.94922,5.94921l-10.3086,-10.30859c13.96485,-34.55078 1.66407,-74.15625 -29.40625,-94.72266c-31.07421,-20.57031 -72.33593,-16.41406 -98.6875,9.9336c-26.34765,26.35156 -30.5039,67.61328 -9.93359,98.6875c20.56641,31.07031 60.17188,43.36719 94.72266,29.40625l10.30859,10.30859l-5.94922,5.94531l6.50781,6.50782l5.94532,-5.94922l30.52734,30.52344c7.71094,7.85937 19.04688,10.97265 29.6875,8.15625c10.64453,-2.8125 18.95703,-11.125 21.77344,-21.76954c2.8125,-10.64453 -0.30078,-21.98046 -8.15625,-29.6914l-30.52735,-30.52344zm-158.30468,-46c0,-38.10547 30.89453,-69 69,-69c38.10937,0 69,30.89453 69,69c0,38.10547 -30.89063,69 -69,69c-38.08985,-0.04297 -68.95703,-30.91016 -69,-69zm106.99609,68.29297c12.70703,-7.10547 23.19141,-17.59375 30.29688,-30.29688l8.0039,8.00391l-30.29687,30.29688l-8.00391,-8.00391zm60.18359,51.30859c-5.68359,0.01563 -11.14062,-2.24609 -15.14843,-6.27734l-30.52735,-30.52344l30.29688,-30.29687l30.52734,30.52343c6.125,6.12891 7.95703,15.34375 4.64063,23.34766c-3.3125,8.00391 -11.125,13.22656 -19.78907,13.22656zm0,0"/>
  </g>
  <text xml:space="preserve" text-anchor="start" font-family="sans-serif" font-size="80" id="svg_10" y="366" x="9.29688" stroke-opacity="null" stroke-width="0" stroke="null" fill="#00344C">Find Sites</text>
   </g>
</svg>