<svg width="450" height="400" xmlns="http://www.w3.org/2000/svg">

 <g>
  <title>background</title>
  <rect fill="none" id="canvas_background" height="402" width="452" y="-1" x="-1"/>
 </g>
 <g>
  <title>Layer 1</title>
  <g id="surface1">
   <path id="svg_1" fill-rule="nonzero" fill="#560A07" d="m301.77591,275.92969c-11.19922,0 -24.17188,-3.53906 -39.07813,-10.61328c-16.6289,-7.89063 -24.64453,-7.61328 -29.94531,-7.35938c-4.26563,0.125 -8.71484,0.33203 -13.10938,-4.05859c-1.53906,-1.54297 -8.54296,-9.9375 5.22266,-23.70313c6.86328,-6.86718 16.28125,-8.84375 24.46094,-8.95703l-47.67969,-47.67969c-3.16406,-3.15234 -4.91016,-7.37109 -4.89844,-11.84375c0.00782,-4.47656 1.75782,-8.67187 4.9336,-11.83593c3.17187,-3.16016 7.37109,-4.92188 11.84375,-4.9336l0.02343,0c4.46094,0 8.66016,1.73828 11.82032,4.91016l19.80468,19.81641c0.79297,-1.58594 1.85157,-3.04688 3.13672,-4.32422c4.54297,-4.55469 11.05469,-5.95703 16.81641,-4.16407c0.80469,-2.27734 2.125,-4.42578 3.94141,-6.24218c6.24609,-6.25782 16.22656,-6.53516 22.78125,-0.86328c0.78515,-1.58985 1.83984,-3.0586 3.15234,-4.3711c6.54297,-6.54297 17.16016,-6.55469 23.69141,-0.03515l31.05078,31.05078c19.49218,19.48047 17.3164,47.72656 -5.30469,70.35547c-0.04297,0.04687 -0.08984,0.09375 -0.14844,0.15234l-12.84375,12.83203c-8.0039,7.91406 -17.84765,11.86719 -29.67187,11.86719zm-65.90625,-29.54297c6.27734,0 15.92578,1.03516 31.76172,8.53516c34.32812,16.29296 48.24218,8.38281 55.74218,0.98828l12.94922,-12.94922c0.03516,-0.04688 0.07813,-0.08203 0.11328,-0.11719c13.71094,-13.86719 23.10547,-36.07422 5.28125,-53.89844l-31.14453,-31.14062c-2.03515,-2.03906 -5.37109,-2.01563 -7.42969,0.03125c-2.04687,2.04687 -2.0664,5.37109 -0.04296,7.41797l7.77343,7.77343c1.125,1.12891 1.67969,2.60157 1.67969,4.07422c0,1.46875 -0.56641,2.94141 -1.67969,4.07032c-2.24218,2.24218 -5.89062,2.24218 -8.13281,0l-18.10937,-18.11329c-2.03907,-2.03515 -5.3711,-2.02343 -7.42969,0.03516c-2.0586,2.05859 -2.07031,5.38281 -0.02344,7.42969l12.9375,12.9375c1.125,1.125 1.67969,2.59765 1.67969,4.07031c0,1.47266 -0.56641,2.94141 -1.67969,4.07031c-2.24219,2.24219 -5.88672,2.24219 -8.13281,0l-18.10938,-18.11328c-2.03515,-2.03515 -5.35937,-2.01172 -7.42968,0.03516c-1,1 -1.55469,2.33594 -1.55469,3.73828c0,1.39062 0.54297,2.70312 1.51953,3.67969l12.9375,12.9375c1.12891,1.125 1.67969,2.59765 1.67969,4.07031c0,1.47266 -0.5625,2.94531 -1.67969,4.07031c-2.24219,2.24219 -5.88672,2.24219 -8.12891,0l-43.98828,-43.97656c-0.98828,-0.98828 -2.30078,-1.53906 -3.6914,-1.53906c-1.40235,0.01172 -2.72657,0.5625 -3.72657,1.5625c-1,1 -1.55468,2.32422 -1.5625,3.72656c0,1.39062 0.53907,2.70312 1.52735,3.69141l59.51172,59.51171c1.86328,1.85157 2.21875,4.73829 0.875,6.99219c-1.34375,2.25391 -4.07032,3.3125 -6.56641,2.58985c-0.21875,-0.0586 -20.81641,-5.96875 -30.61328,3.80468c-4.44922,4.46094 -5.10547,7.19922 -4.99219,7.8086c0.48438,0.33593 0.59766,0.46093 4.30078,0.3125c1.07031,-0.07032 2.25391,-0.11719 3.57813,-0.11719zm63.22656,-92.60938l0.11719,0l-0.11719,0zm0,0"/>
   <path id="svg_2" fill-rule="nonzero" fill="#560A07" d="m299.74075,92l-172.5,0c-22.19531,0 -40.25,-18.05469 -40.25,-40.25c0,-22.19531 18.05469,-40.25 40.25,-40.25l172.5,0c22.19531,0 40.25,18.05469 40.25,40.25c0,22.19531 -18.05469,40.25 -40.25,40.25zm-172.5,-69c-15.84766,0 -28.75,12.89063 -28.75,28.75c0,15.85938 12.90234,28.75 28.75,28.75l172.5,0c15.84766,0 28.75,-12.89062 28.75,-28.75c0,-15.85937 -12.90234,-28.75 -28.75,-28.75l-172.5,0zm0,0"/>
   <path id="svg_3" fill-rule="nonzero" fill="#560A07" d="m138.74075,69c-9.51172,0 -17.25,-7.73828 -17.25,-17.25c0,-9.51172 7.73828,-17.25 17.25,-17.25c9.51172,0 17.25,7.73828 17.25,17.25c0,9.51172 -7.73828,17.25 -17.25,17.25zm0,-23c-3.17578,0 -5.75,2.58594 -5.75,5.75c0,3.16406 2.57422,5.75 5.75,5.75c3.17578,0 5.75,-2.58594 5.75,-5.75c0,-3.16406 -2.57422,-5.75 -5.75,-5.75zm0,0"/>
   <path id="svg_4" fill-rule="nonzero" fill="#560A07" d="m196.24075,69c-9.51172,0 -17.25,-7.73828 -17.25,-17.25c0,-9.51172 7.73828,-17.25 17.25,-17.25c9.51172,0 17.25,7.73828 17.25,17.25c0,9.51172 -7.73828,17.25 -17.25,17.25zm0,-23c-3.17578,0 -5.75,2.58594 -5.75,5.75c0,3.16406 2.57422,5.75 5.75,5.75c3.17578,0 5.75,-2.58594 5.75,-5.75c0,-3.16406 -2.57422,-5.75 -5.75,-5.75zm0,0"/>
   <path id="svg_5" fill-rule="nonzero" fill="#560A07" d="m173.24075,161l-46,0c-22.19531,0 -40.25,-18.05469 -40.25,-40.25c0,-10.74219 4.1875,-20.83984 11.80078,-28.44922c7.60938,-7.61328 17.71875,-11.80078 28.44922,-11.80078l172.5,0c22.19531,0 40.25,18.05469 40.25,40.25c0,3.17578 -2.57422,5.75 -5.75,5.75c-3.17578,0 -5.75,-2.57422 -5.75,-5.75c0,-15.85937 -12.90234,-28.75 -28.75,-28.75l-172.5,0c-7.66016,0 -14.87109,3 -20.32031,8.42969c-5.45313,5.42969 -8.42969,12.66015 -8.42969,20.32031c0,15.85938 12.90234,28.75 28.75,28.75l46,0c3.17578,0 5.75,2.57422 5.75,5.75c0,3.17578 -2.57422,5.75 -5.75,5.75zm0,0"/>
   <path id="svg_6" fill-rule="nonzero" fill="#560A07" d="m138.74075,138c-9.51172,0 -17.25,-7.73828 -17.25,-17.25c0,-9.51172 7.73828,-17.25 17.25,-17.25c9.51172,0 17.25,7.73828 17.25,17.25c0,9.51172 -7.73828,17.25 -17.25,17.25zm0,-23c-3.17578,0 -5.75,2.58594 -5.75,5.75c0,3.16406 2.57422,5.75 5.75,5.75c3.17578,0 5.75,-2.58594 5.75,-5.75c0,-3.16406 -2.57422,-5.75 -5.75,-5.75zm0,0"/>
   <path id="svg_7" fill-rule="nonzero" fill="#560A07" d="m196.24075,138c-9.51172,0 -17.25,-7.73828 -17.25,-17.25c0,-9.51172 7.73828,-17.25 17.25,-17.25c9.51172,0 17.25,7.73828 17.25,17.25c0,9.51172 -7.73828,17.25 -17.25,17.25zm0,-23c-3.17578,0 -5.75,2.58594 -5.75,5.75c0,3.16406 2.57422,5.75 5.75,5.75c3.17578,0 5.75,-2.58594 5.75,-5.75c0,-3.16406 -2.57422,-5.75 -5.75,-5.75zm0,0"/>
   <path id="svg_8" fill-rule="nonzero" fill="#560A07" d="m196.24075,230l-69,0c-22.19531,0 -40.25,-18.05469 -40.25,-40.25c0,-10.74219 4.1875,-20.83984 11.80078,-28.44922c7.60938,-7.61328 17.71875,-11.80078 28.44922,-11.80078l46,0c3.17578,0 5.75,2.57422 5.75,5.75c0,3.17578 -2.57422,5.75 -5.75,5.75l-46,0c-7.66016,0 -14.87109,3 -20.32031,8.42969c-5.45313,5.42969 -8.42969,12.66015 -8.42969,20.32031c0,15.85938 12.90234,28.75 28.75,28.75l69,0c3.17578,0 5.75,2.57422 5.75,5.75c0,3.17578 -2.57422,5.75 -5.75,5.75zm0,0"/>
   <path id="svg_9" fill-rule="nonzero" fill="#560A07" d="m138.74075,207c-9.51172,0 -17.25,-7.73828 -17.25,-17.25c0,-9.51172 7.73828,-17.25 17.25,-17.25c9.51172,0 17.25,7.73828 17.25,17.25c0,9.51172 -7.73828,17.25 -17.25,17.25zm0,-23c-3.17578,0 -5.75,2.58594 -5.75,5.75c0,3.16406 2.57422,5.75 5.75,5.75c3.17578,0 5.75,-2.58594 5.75,-5.75c0,-3.16406 -2.57422,-5.75 -5.75,-5.75zm0,0"/>
  </g>
  <text xml:space="preserve" text-anchor="start" font-family="sans-serif" font-size="80" id="svg_10" y="366" x="9.29688" stroke-opacity="null" stroke-width="0" stroke="null" fill="#560A07">Group Page</text>
 </g>
</svg>