<svg width="800" height="276" xmlns="http://www.w3.org/2000/svg">
 <g>
  <title>background</title>
  <rect x="-1" y="-1" width="802" height="278" id="canvas_background" fill="none"/>
 </g>

 <g>
  <title>Layer 1</title>
  <g id="surface1">
   <path d="m276,138c0,76.21484 -61.78516,138 -138,138c-76.21484,0 -138,-61.78516 -138,-138c0,-76.21484 61.78516,-138 138,-138c76.21484,0 138,61.78516 138,138zm0,0" fill="#560A07" fill-rule="nonzero" id="svg_1"/>
   <path d="m187.71094,61.26172l-0.02344,0c-2.08203,0 -3.76172,1.69141 -3.76172,3.77344c0,2.08593 1.69922,3.77343 3.78516,3.77343c2.08203,0 3.77344,-1.6875 3.77344,-3.77343c0,-2.08203 -1.69141,-3.77344 -3.77344,-3.77344zm0,0" fill="#CFCFCF" fill-rule="nonzero" id="svg_2"/>
   <path d="m208.07422,61.26172l-0.01953,0c-2.08594,0 -3.76172,1.69141 -3.76172,3.77344c0,2.08593 1.69922,3.77343 3.78125,3.77343c2.08594,0 3.77344,-1.6875 3.77344,-3.77343c0,-2.08203 -1.6875,-3.77344 -3.77344,-3.77344zm0,0" fill="#CFCFCF" fill-rule="nonzero" id="svg_3"/>
   <path d="m167.34375,61.26172l-0.01953,0c-2.08594,0 -3.76172,1.69141 -3.76172,3.77344c0,2.08593 1.69922,3.77343 3.78125,3.77343c2.08594,0 3.77344,-1.6875 3.77344,-3.77343c0,-2.08203 -1.6875,-3.77344 -3.77344,-3.77344zm0,0" fill="#CFCFCF" fill-rule="nonzero" id="svg_4"/>
   <path d="m124.61328,61.26172l-56.69922,0c-2.08593,0 -3.77343,1.69141 -3.77343,3.77344c0,2.08593 1.6875,3.77343 3.77343,3.77343l56.69922,0c2.08594,0 3.77344,-1.6875 3.77344,-3.77343c0,-2.08203 -1.6875,-3.77344 -3.77344,-3.77344zm0,0" fill="#CFCFCF" fill-rule="nonzero" id="svg_5"/>
   <path d="m222.49609,41.39844l-168.98828,0c-6.67578,0 -12.10937,5.43359 -12.10937,12.10937l0,139.72266c0,6.67578 5.43359,12.10547 12.10937,12.10547l20.20703,0l0,15.20312c0,7.75391 6.3086,14.0625 14.0625,14.0625l100.44532,0c7.75781,0 14.0664,-6.30859 14.0664,-14.0625l0,-15.20312l20.20703,0c6.67188,0 12.10547,-5.42969 12.10547,-12.10547l0,-139.72266c0,-6.67578 -5.43359,-12.10937 -12.10547,-12.10937zm4.5586,151.83203c0,2.51172 -2.04688,4.55859 -4.5586,4.55859l-20.21093,0l0,-77.69922c0,-7.7539 -6.3086,-14.0625 -14.0625,-14.0625l-33.29688,0c-2.08203,0 -3.77344,1.6875 -3.77344,3.77344c0,2.08203 1.69141,3.77344 3.77344,3.77344l33.29688,0c3.59375,0 6.51562,2.92187 6.51562,6.51562l0,100.44922c0,3.58985 -2.92187,6.51563 -6.51562,6.51563l-100.44532,0c-3.59375,0 -6.51562,-2.92578 -6.51562,-6.51563l0,-100.44922c0,-3.59375 2.92187,-6.51562 6.51562,-6.51562l33.25391,0c2.08203,0 3.77344,-1.69141 3.77344,-3.77344c0,-2.08594 -1.69141,-3.77344 -3.77344,-3.77344l-33.25391,0c-7.7539,0 -14.0625,6.3086 -14.0625,14.0625l0,77.69922l-20.20703,0c-2.51562,0 -4.5625,-2.04687 -4.5625,-4.55859l0,-104.54688l178.10938,0l0,104.54688zm0,-112.09375l-178.10938,0l0,-27.62891c0,-2.51562 2.04688,-4.5625 4.5625,-4.5625l168.98828,0c2.51172,0 4.5586,2.04688 4.5586,4.5625l0,27.62891zm0,0" fill="#CFCFCF" fill-rule="nonzero" id="svg_6"/>
   <path d="m93.86328,146.74219c2.08203,0 3.77344,-1.69141 3.77344,-3.77344l0,-13.01953l13.01953,0c2.08203,0 3.77344,-1.6875 3.77344,-3.77344c0,-2.08594 -1.69141,-3.77344 -3.77344,-3.77344l-16.79297,0c-2.08594,0 -3.77344,1.6875 -3.77344,3.77344l0,16.79297c0,2.08203 1.6875,3.77344 3.77344,3.77344zm0,0" fill="#CFCFCF" fill-rule="nonzero" id="svg_7"/>
   <path d="m165.33594,129.94922l13.02734,0l0,13.01953c0,2.08203 1.69141,3.77344 3.77344,3.77344c2.08594,0 3.77344,-1.69141 3.77344,-3.77344l0,-16.79297c0,-2.08594 -1.6875,-3.77344 -3.77344,-3.77344l-16.80078,0c-2.08594,0 -3.77344,1.6875 -3.77344,3.77344c0,2.08594 1.6875,3.77344 3.77344,3.77344zm0,0" fill="#CFCFCF" fill-rule="nonzero" id="svg_8"/>
   <path d="m110.65625,210.67578l-13.01953,0l0,-13.02734c0,-2.08594 -1.69141,-3.77344 -3.77344,-3.77344c-2.08594,0 -3.77344,1.6875 -3.77344,3.77344l0,16.80078c0,2.08594 1.6875,3.77344 3.77344,3.77344l16.79297,0c2.08203,0 3.77344,-1.6875 3.77344,-3.77344c0,-2.08203 -1.69141,-3.77344 -3.77344,-3.77344zm0,0" fill="#CFCFCF" fill-rule="nonzero" id="svg_9"/>
   <path d="m182.13672,193.875c-2.08203,0 -3.77344,1.6875 -3.77344,3.77344l0,13.02734l-13.02734,0c-2.08594,0 -3.77344,1.69141 -3.77344,3.77344c0,2.08594 1.6875,3.77344 3.77344,3.77344l16.80078,0c2.08594,0 3.77344,-1.6875 3.77344,-3.77344l0,-16.80078c0,-2.08594 -1.6875,-3.77344 -3.77344,-3.77344zm0,0" fill="#CFCFCF" fill-rule="nonzero" id="svg_10"/>
   <path d="m124.57422,170.30859c0,7.40625 6.01953,13.4336 13.42187,13.4336c7.40625,0 13.42969,-6.02735 13.42969,-13.4336c0,-7.40234 -6.02344,-13.42187 -13.42969,-13.42187c-7.40234,0 -13.42187,6.01953 -13.42187,13.42187zm19.30469,0c0,3.2461 -2.64063,5.88672 -5.88282,5.88672c-3.24218,0 -5.875,-2.64062 -5.875,-5.88672c0,-3.23828 2.63282,-5.875 5.875,-5.875c3.24219,0 5.88282,2.63672 5.88282,5.875zm0,0" fill="#CFCFCF" fill-rule="nonzero" id="svg_11"/>
   <path d="m104.64453,152.28125c-6.71484,4.63281 -14.55469,12.13281 -14.55469,18.02734c0,5.89844 7.83985,13.39844 14.55469,18.03125c5.90235,4.07032 18.08594,10.89844 33.35156,10.89844c15.26563,0 27.44922,-6.82812 33.35157,-10.89844c6.71875,-4.6289 14.5625,-12.13281 14.5625,-18.03125c0,-5.89453 -7.84375,-13.39453 -14.5586,-18.02734c-5.90625,-4.07422 -18.09375,-10.90234 -33.35547,-10.90234c-15.26562,0 -27.44921,6.82812 -33.35156,10.90234zm-7.0039,18.02734c0.18359,-1.16406 2.92187,-5.72656 9.99218,-10.89453c-1.23828,3.45703 -1.89453,7.13672 -1.89453,10.89453c0,3.75782 0.65625,7.44141 1.89844,10.89844c-7.07813,-5.17187 -9.8125,-9.73437 -9.99609,-10.89844zm70.71484,-10.89843c7.07812,5.16797 9.82031,9.73437 10.00391,10.89843c-0.1836,1.16407 -2.92188,5.73047 -10.00782,10.90235c1.24219,-3.46094 1.89844,-7.14453 1.89844,-10.90235c0.00391,-3.76171 -0.65234,-7.4414 -1.89453,-10.89843zm-5.64844,10.89843c0,6.97266 -2.94922,13.59766 -8.09765,18.28907c-4.76172,1.76562 -10.40625,3.09375 -16.61329,3.09375c-6.20312,0 -11.83984,-1.32422 -16.60156,-3.08985c-5.16015,-4.6914 -8.10937,-11.3164 -8.10937,-18.29297c0,-6.98828 2.95703,-13.61718 8.125,-18.30078c4.75781,-1.76172 10.39062,-3.08593 16.58593,-3.08593c6.19922,0 11.83985,1.32812 16.60157,3.08984c5.15625,4.6875 8.10937,11.3125 8.10937,18.29687zm0,0" fill="#CFCFCF" fill-rule="nonzero" id="svg_12"/>
   <path d="m137.98438,113.57422l0.01171,0c2.08204,0 3.76563,-1.69141 3.76563,-3.77344c0,-2.08594 -1.69531,-3.77344 -3.77734,-3.77344c-2.08594,0 -3.77344,1.6875 -3.77344,3.77344c0,2.08203 1.6875,3.77344 3.77344,3.77344zm0,0" fill="#CFCFCF" fill-rule="nonzero" id="svg_13"/>
  </g>
  <text fill="#560A07" stroke="null" stroke-width="0" opacity="null" x="281.5" y="123" id="svg_14" font-size="80" font-family="sans-serif" text-anchor="start" xml:space="preserve">  View in</text>
  <text fill="#560A07" stroke="null" stroke-width="0" opacity="null" x="280.5" y="203" id="svg_15" font-size="80" font-family="sans-serif" text-anchor="start" xml:space="preserve">  Window</text>
 </g>
</svg>