<svg width="800" height="276" xmlns="http://www.w3.org/2000/svg">

 <g>
  <title>background</title>
  <rect fill="none" id="canvas_background" height="278" width="278" y="-1" x="-1"/>
 </g>
 <g>
  <title>Layer 1</title>
  <g id="surface1">
   <path id="svg_1" fill-rule="nonzero" fill="#A0A0A0" d="m276,138c0,76.21484 -61.78516,138 -138,138c-76.21484,0 -138,-61.78516 -138,-138c0,-76.21484 61.78516,-138 138,-138c76.21484,0 138,61.78516 138,138zm0,0"/>
   <path id="svg_2" fill-rule="nonzero" fill="#CFCFCF" d="m138,234.60156c53.35156,0 96.60156,-43.25 96.60156,-96.60156c0,-53.35156 -43.25,-96.60156 -96.60156,-96.60156c-53.35156,0 -96.60156,43.25 -96.60156,96.60156c0,53.35156 43.25,96.60156 96.60156,96.60156zm81.14453,-96.60156c0,44.74219 -36.40234,81.14453 -81.14453,81.14453c-44.74219,0 -81.14453,-36.40234 -81.14453,-81.14453c0,-44.74219 36.40234,-81.14453 81.14453,-81.14453c44.74219,0 81.14453,36.40234 81.14453,81.14453zm0,0"/>
   <path id="svg_3" fill-rule="nonzero" fill="#CFCFCF" d="m121.17578,187.05859c1.91406,0.78907 3.85938,1.17579 5.85156,1.17579c4.02344,0 7.94532,-1.56641 10.89844,-4.52735l34.76172,-34.77734c6.03516,-6.03516 6.02734,-15.82031 -0.00781,-21.85938l-34.78125,-34.77343c-2.95313,-2.95704 -6.91016,-4.53125 -10.9336,-4.53125c-1.98828,0 -3.8789,0.38671 -5.79296,1.17968c-5.77344,2.39063 -9.41407,8.02735 -9.41407,14.27735l0,69.55078c-0.0039,6.2539 3.64063,11.89062 9.41797,14.28515zm6.03516,-82.70703l0,-1.1289l34.77734,34.77734l-34.77734,34.77734l0,-68.42578zm0,0"/>
  </g>
  <text xml:space="preserve" text-anchor="start" font-family="sans-serif" font-size="80" id="svg_4" y="165" x="280.5" opacity="null" stroke-width="0" stroke="null" fill="#A0A0A0">  Start</text>
 </g>
</svg>