<?xml version="1.0" encoding="UTF-8"?>
<svg xmlns="http://www.w3.org/2000/svg" xmlns:xlink="http://www.w3.org/1999/xlink" width="100pt" height="100pt" viewBox="0 0 100 100" version="1.1">
<g id="surface1">
<path style=" stroke:none;fill-rule:nonzero;fill:rgb(0%,0%,0%);fill-opacity:1;" d="M 1.597656 33.238281 L 46.140625 77.777344 C 47.171875 78.808594 48.542969 79.375 50.039062 79.375 C 51.503906 79.375 52.875 78.808594 53.902344 77.777344 L 98.402344 33.28125 C 99.433594 32.25 100 30.875 100 29.410156 C 100 27.945312 99.433594 26.574219 98.402344 25.542969 L 95.125 22.265625 C 94.097656 21.238281 92.722656 20.667969 91.257812 20.667969 C 89.792969 20.667969 88.421875 21.238281 87.390625 22.265625 L 50.023438 59.632812 L 12.613281 22.222656 C 11.582031 21.195312 10.210938 20.625 8.746094 20.625 C 7.277344 20.625 5.90625 21.195312 4.875 22.222656 L 1.597656 25.5 C -0.53125 27.632812 -0.53125 31.105469 1.597656 33.238281 Z M 1.597656 33.238281 "/>
</g>
</svg>
