<?xml version="1.0" encoding="UTF-8"?>
<svg xmlns="http://www.w3.org/2000/svg" xmlns:xlink="http://www.w3.org/1999/xlink" width="30px" height="37px" viewBox="0 0 30 36" version="1.1">
<g id="surface1">
<path style=" stroke:none;fill-rule:nonzero;fill:rgb(100%,12.941176%,8.627451%);fill-opacity:1;" d="M 3.808594 0 C 1.707031 0 0 1.671875 0 3.71875 L 0 32.292969 C 0 34.34375 1.707031 36.015625 3.808594 36.015625 L 26.175781 36.015625 C 28.273438 36.015625 29.980469 34.34375 29.980469 32.292969 L 29.980469 8.796875 C 29.980469 8.796875 30.042969 8.109375 29.734375 7.441406 C 29.449219 6.8125 28.984375 6.375 28.984375 6.375 C 28.980469 6.375 28.980469 6.375 28.980469 6.371094 L 23.429688 1.054688 C 23.425781 1.050781 23.421875 1.050781 23.421875 1.046875 C 23.421875 1.046875 22.945312 0.605469 22.246094 0.3125 C 21.417969 -0.0351562 20.566406 0 20.566406 0 L 20.578125 0 Z M 3.808594 0 "/>
<path style=" stroke:none;fill-rule:nonzero;fill:rgb(96.078431%,96.078431%,96.078431%);fill-opacity:1;" d="M 3.808594 1.222656 L 20.578125 1.222656 C 20.582031 1.222656 20.585938 1.222656 20.589844 1.222656 C 20.589844 1.222656 21.261719 1.230469 21.75 1.433594 C 22.222656 1.632812 22.558594 1.933594 22.5625 1.933594 C 22.5625 1.933594 22.5625 1.9375 22.5625 1.9375 L 28.097656 7.242188 C 28.097656 7.242188 28.433594 7.585938 28.59375 7.9375 C 28.722656 8.222656 28.730469 8.746094 28.730469 8.746094 C 28.730469 8.753906 28.730469 8.765625 28.730469 8.773438 L 28.730469 32.292969 C 28.730469 33.6875 27.601562 34.792969 26.175781 34.792969 L 3.808594 34.792969 C 2.378906 34.792969 1.25 33.6875 1.25 32.292969 L 1.25 3.71875 C 1.25 2.324219 2.378906 1.222656 3.808594 1.222656 Z M 3.808594 1.222656 "/>
<path style=" stroke:none;fill-rule:nonzero;fill:rgb(100%,12.941176%,8.627451%);fill-opacity:1;" d="M 7.484375 21.441406 C 6.625 20.601562 7.558594 19.445312 10.085938 18.21875 L 11.675781 17.445312 L 12.292969 16.121094 C 12.636719 15.394531 13.144531 14.207031 13.425781 13.480469 L 13.933594 12.164062 L 13.582031 11.191406 C 13.152344 9.992188 12.996094 8.191406 13.269531 7.546875 C 13.644531 6.667969 14.859375 6.757812 15.34375 7.699219 C 15.71875 8.433594 15.679688 9.761719 15.234375 11.4375 L 14.867188 12.8125 L 15.191406 13.347656 C 15.367188 13.640625 15.886719 14.339844 16.339844 14.898438 L 17.199219 15.941406 L 18.265625 15.804688 C 21.648438 15.371094 22.808594 16.105469 22.808594 17.15625 C 22.808594 18.484375 20.152344 18.59375 17.917969 17.0625 C 17.414062 16.71875 17.070312 16.375 17.070312 16.375 C 17.070312 16.375 15.671875 16.652344 14.984375 16.835938 C 14.273438 17.023438 13.917969 17.140625 12.878906 17.484375 C 12.878906 17.484375 12.511719 18 12.273438 18.378906 C 11.390625 19.777344 10.355469 20.941406 9.617188 21.363281 C 8.789062 21.835938 7.921875 21.867188 7.484375 21.441406 Z M 8.835938 20.972656 C 9.320312 20.679688 10.300781 19.546875 10.976562 18.496094 L 11.253906 18.070312 L 10.003906 18.6875 C 8.074219 19.632812 7.191406 20.527344 7.648438 21.066406 C 7.90625 21.371094 8.214844 21.347656 8.835938 20.972656 Z M 21.375 17.53125 C 21.847656 17.210938 21.78125 16.554688 21.246094 16.292969 C 20.828125 16.089844 20.492188 16.046875 19.410156 16.0625 C 18.746094 16.105469 17.679688 16.238281 17.496094 16.277344 C 17.496094 16.277344 18.082031 16.671875 18.34375 16.820312 C 18.691406 17.011719 19.535156 17.371094 20.152344 17.554688 C 20.757812 17.738281 21.109375 17.71875 21.375 17.53125 Z M 16.335938 15.484375 C 16.046875 15.191406 15.5625 14.578125 15.25 14.121094 C 14.847656 13.605469 14.644531 13.238281 14.644531 13.238281 C 14.644531 13.238281 14.351562 14.167969 14.109375 14.726562 L 13.351562 16.550781 L 13.132812 16.964844 C 13.132812 16.964844 14.296875 16.589844 14.890625 16.4375 C 15.519531 16.277344 16.792969 16.035156 16.792969 16.035156 Z M 14.710938 9.121094 C 14.78125 8.523438 14.8125 7.925781 14.617188 7.625 C 14.070312 7.039062 13.410156 7.527344 13.523438 8.914062 C 13.558594 9.378906 13.679688 10.175781 13.835938 10.667969 L 14.125 11.5625 L 14.328125 10.890625 C 14.441406 10.519531 14.613281 9.722656 14.710938 9.121094 Z M 14.710938 9.121094 "/>
<path style=" stroke:none;fill-rule:nonzero;fill:rgb(17.254902%,17.254902%,17.254902%);fill-opacity:1;" d="M 8.949219 25.335938 L 10.347656 25.335938 C 10.792969 25.335938 11.15625 25.378906 11.433594 25.460938 C 11.714844 25.542969 11.949219 25.722656 12.136719 26.007812 C 12.328125 26.285156 12.421875 26.625 12.421875 27.019531 C 12.421875 27.382812 12.347656 27.695312 12.191406 27.957031 C 12.039062 28.21875 11.828125 28.40625 11.566406 28.523438 C 11.308594 28.640625 10.910156 28.695312 10.367188 28.695312 L 9.882812 28.695312 L 9.882812 30.847656 L 8.949219 30.847656 Z M 9.882812 26.042969 L 9.882812 27.964844 L 10.347656 27.964844 C 10.761719 27.964844 11.046875 27.890625 11.203125 27.738281 C 11.363281 27.589844 11.445312 27.34375 11.445312 27.003906 C 11.445312 26.75 11.390625 26.546875 11.285156 26.390625 C 11.179688 26.230469 11.066406 26.132812 10.9375 26.097656 C 10.816406 26.0625 10.617188 26.042969 10.347656 26.042969 Z M 9.882812 26.042969 "/>
<path style=" stroke:none;fill-rule:nonzero;fill:rgb(17.254902%,17.254902%,17.254902%);fill-opacity:1;" d="M 13.140625 25.335938 L 14.40625 25.335938 C 15.023438 25.335938 15.511719 25.441406 15.878906 25.65625 C 16.25 25.867188 16.527344 26.183594 16.714844 26.605469 C 16.90625 27.023438 17 27.492188 17 28 C 17 28.539062 16.914062 29.019531 16.746094 29.445312 C 16.574219 29.863281 16.316406 30.203125 15.96875 30.460938 C 15.621094 30.71875 15.125 30.847656 14.476562 30.847656 L 13.140625 30.847656 Z M 14.074219 26.066406 L 14.074219 30.117188 L 14.460938 30.117188 C 15.003906 30.117188 15.398438 29.933594 15.644531 29.570312 C 15.890625 29.199219 16.011719 28.707031 16.011719 28.09375 C 16.011719 26.742188 15.496094 26.066406 14.460938 26.066406 Z M 14.074219 26.066406 "/>
<path style=" stroke:none;fill-rule:nonzero;fill:rgb(17.254902%,17.254902%,17.254902%);fill-opacity:1;" d="M 17.898438 25.335938 L 21.03125 25.335938 L 21.03125 26.066406 L 18.832031 26.066406 L 18.832031 27.714844 L 20.59375 27.714844 L 20.59375 28.445312 L 18.832031 28.445312 L 18.832031 30.847656 L 17.898438 30.847656 Z M 17.898438 25.335938 "/>
</g>
</svg>
