<?xml version="1.0" encoding="UTF-8"?>
<svg xmlns="http://www.w3.org/2000/svg" xmlns:xlink="http://www.w3.org/1999/xlink" width="30pt" height="30pt" viewBox="0 0 30 30" version="1.1">
<g id="surface1">
<path style=" stroke:none;fill-rule:nonzero;fill:rgb(0%,0%,0%);fill-opacity:1;" d="M 27.703125 18.855469 C 27.289062 18.855469 26.957031 19.191406 26.957031 19.601562 L 26.957031 26.238281 C 26.953125 27.476562 25.949219 28.480469 24.710938 28.484375 L 3.738281 28.484375 C 2.5 28.480469 1.496094 27.476562 1.496094 26.238281 L 1.496094 6.761719 C 1.496094 5.523438 2.5 4.519531 3.738281 4.515625 L 10.375 4.515625 C 10.789062 4.515625 11.121094 4.183594 11.121094 3.769531 C 11.121094 3.359375 10.789062 3.023438 10.375 3.023438 L 3.738281 3.023438 C 1.675781 3.023438 0.00390625 4.695312 0 6.761719 L 0 26.242188 C 0.00390625 28.304688 1.675781 29.976562 3.738281 29.976562 L 24.710938 29.976562 C 26.777344 29.976562 28.449219 28.304688 28.449219 26.242188 L 28.449219 19.601562 C 28.449219 19.191406 28.117188 18.855469 27.703125 18.855469 Z M 27.703125 18.855469 "/>
<path style=" stroke:none;fill-rule:nonzero;fill:rgb(0%,0%,0%);fill-opacity:1;" d="M 28.152344 1.097656 C 26.839844 -0.214844 24.710938 -0.214844 23.398438 1.097656 L 10.058594 14.433594 C 9.96875 14.527344 9.902344 14.640625 9.867188 14.765625 L 8.113281 21.097656 C 8.042969 21.355469 8.117188 21.632812 8.304688 21.824219 C 8.496094 22.015625 8.773438 22.089844 9.035156 22.015625 L 15.367188 20.261719 C 15.492188 20.226562 15.605469 20.160156 15.695312 20.070312 L 29.03125 6.734375 C 30.34375 5.417969 30.34375 3.289062 29.03125 1.976562 Z M 11.6875 14.921875 L 22.605469 4.007812 L 26.125 7.527344 L 15.210938 18.441406 Z M 10.984375 16.332031 L 13.796875 19.144531 L 9.910156 20.222656 Z M 27.972656 5.675781 L 27.179688 6.46875 L 23.660156 2.949219 L 24.453125 2.15625 C 25.183594 1.425781 26.367188 1.425781 27.097656 2.15625 L 27.972656 3.035156 C 28.703125 3.765625 28.703125 4.945312 27.972656 5.675781 Z M 27.972656 5.675781 "/>
</g>
</svg>
