<?xml version="1.0" encoding="UTF-8"?>
<svg xmlns="http://www.w3.org/2000/svg" xmlns:xlink="http://www.w3.org/1999/xlink" width="100pt" height="100pt" viewBox="0 0 100 100" version="1.1">
<g id="surface1">
<path style=" stroke:none;fill-rule:nonzero;fill:rgb(0%,0%,0%);fill-opacity:1;" d="M 98.402344 66.761719 L 53.859375 22.222656 C 52.828125 21.191406 51.457031 20.625 49.960938 20.625 C 48.496094 20.625 47.125 21.191406 46.097656 22.222656 L 1.597656 66.71875 C 0.566406 67.75 0 69.125 0 70.589844 C 0 72.054688 0.566406 73.425781 1.597656 74.457031 L 4.875 77.734375 C 5.902344 78.761719 7.277344 79.332031 8.742188 79.332031 C 10.207031 79.332031 11.578125 78.761719 12.609375 77.734375 L 49.976562 40.367188 L 87.386719 77.777344 C 88.417969 78.804688 89.789062 79.375 91.253906 79.375 C 92.722656 79.375 94.09375 78.804688 95.125 77.777344 L 98.402344 74.5 C 100.53125 72.367188 100.53125 68.894531 98.402344 66.761719 Z M 98.402344 66.761719 "/>
</g>
</svg>
