<?xml version="1.0" encoding="UTF-8"?>
<svg xmlns="http://www.w3.org/2000/svg" xmlns:xlink="http://www.w3.org/1999/xlink" width="100pt" height="100pt" viewBox="0 0 100 100" version="1.1">
<g id="surface1">
<path style=" stroke:none;fill-rule:nonzero;fill:rgb(0%,0%,0%);fill-opacity:1;" d="M 6.011719 58.902344 C 6.675781 59.570312 7.445312 59.902344 8.3125 59.902344 C 9.183594 59.902344 9.949219 59.570312 10.617188 58.902344 L 49.988281 19.53125 L 89.359375 58.902344 C 90.027344 59.570312 90.796875 59.902344 91.660156 59.902344 C 92.53125 59.902344 93.300781 59.570312 93.96875 58.902344 L 98.976562 53.894531 C 99.644531 53.226562 99.976562 52.457031 99.976562 51.589844 C 99.976562 50.722656 99.640625 49.953125 98.976562 49.285156 L 52.289062 2.601562 C 51.625 1.933594 50.855469 1.601562 49.988281 1.601562 C 49.121094 1.601562 48.351562 1.933594 47.683594 2.601562 L 1.003906 49.285156 C 0.332031 49.953125 0 50.71875 0 51.589844 C 0 52.457031 0.335938 53.226562 1.003906 53.894531 Z M 6.011719 58.902344 "/>
<path style=" stroke:none;fill-rule:nonzero;fill:rgb(0%,0%,0%);fill-opacity:1;" d="M 52.289062 41.070312 C 51.625 40.402344 50.855469 40.070312 49.988281 40.070312 C 49.121094 40.070312 48.351562 40.402344 47.683594 41.070312 L 1.003906 87.753906 C 0.332031 88.421875 0 89.191406 0 90.058594 C 0 90.925781 0.335938 91.695312 1.003906 92.363281 L 6.011719 97.371094 C 6.675781 98.039062 7.445312 98.371094 8.3125 98.371094 C 9.183594 98.371094 9.949219 98.039062 10.617188 97.371094 L 49.988281 58 L 89.359375 97.371094 C 90.027344 98.039062 90.796875 98.371094 91.660156 98.371094 C 92.53125 98.371094 93.300781 98.039062 93.96875 97.371094 L 98.976562 92.363281 C 99.644531 91.695312 99.976562 90.925781 99.976562 90.058594 C 99.976562 89.191406 99.640625 88.421875 98.976562 87.753906 Z M 52.289062 41.070312 "/>
</g>
</svg>
