<svg width="800" height="276" xmlns="http://www.w3.org/2000/svg">
 <g>
  <title>background</title>
  <rect fill="none" id="canvas_background" height="278" width="802" y="-1" x="-1"/>
 </g>

 <g>
  <title>Layer 1</title>
  <text xml:space="preserve" text-anchor="start" font-family="sans-serif" font-size="80" id="svg_14" y="123" x="281.5" opacity="null" stroke-width="0" stroke="null" fill="#00344C">Save as</text>
  <text xml:space="preserve" text-anchor="start" font-family="sans-serif" font-size="80" id="svg_15" y="203" x="363.5" opacity="null" stroke-width="0" stroke="null" fill="#00344C">.csv</text>
  <g>
   <g id="svg_17">
    <path fill="rgb(81.176471%,81.568627%,81.960784%)" fill-rule="evenodd" d="m63.69531,42.30208c-2.38672,1.38281 -2.14843,-9.27344 -2.14843,95.82422l0,92.85156l0.58593,1.09765c0.33594,0.62891 1.03516,1.34766 1.625,1.6836l1.03907,0.58203l146.40625,0l1.03906,-0.58594c0.57422,-0.32031 1.30469,-1.05078 1.625,-1.625l0.58594,-1.03906l0,-77.71484c0,-75.6211 -0.01563,-77.74219 -0.51954,-78.64454c-0.6914,-1.23046 -31.58593,-32.07812 -32.67187,-32.61718c-0.74609,-0.375 -7.38281,-0.42188 -58.69141,-0.41407l-57.84765,0.00391l-1.02735,0.59766m111.26563,8.33203c0.20703,0.2539 0.29297,1.37109 0.23828,3.24219l-0.07813,2.85937l-52.28515,0.07031c-41.64453,0.05469 -52.32813,-0.0039 -52.50391,-0.27734c-0.35937,-0.56641 -0.27344,-5.57422 0.10156,-5.94922c0.53125,-0.52734 104.08594,-0.47656 104.52735,0.05469m16.77344,13.76172c3.99218,3.98437 7.25781,7.40234 7.25781,7.59375c0.0039,0.27343 -1.59375,0.33203 -7.51563,0.27343l-7.52343,-0.07031l-0.07032,-7.52344c-0.05859,-5.73828 0.00391,-7.51953 0.25782,-7.51953c0.18359,0 3.60156,3.25782 7.59375,7.2461m-16.53907,7.63672c0.11719,9.5625 -1.21484,8.85156 16.60157,8.85156c13.08984,0 13.53515,0.01953 13.8125,0.53515c0.4414,0.82422 0.39453,143.59375 -0.04297,144.03516c-0.48438,0.48047 -134.64844,0.48047 -135.13282,0c-0.34765,-0.35156 -0.51171,-158.40234 -0.16015,-159.3125c0.15234,-0.39844 4.95703,-0.43359 52.50781,-0.36719l52.33984,0.06641l0.07422,6.19141m-47.00781,23.28125c-0.07812,0.19921 -0.10547,2.15625 -0.0625,4.35156l0.07813,3.98828l19.87109,0l0,-8.55469l-9.875,-0.07422c-7.93359,-0.05468 -9.90234,0 -10.01172,0.28907m24.44141,4.0625l0,4.42187l10.0039,-0.07031l10.00391,-0.07422l0,-8.55469l-10.00391,-0.07422l-10.0039,-0.07031l0,4.42188m-48.13282,-1.86329c0.11329,0.19141 0.55469,0.86329 0.98438,1.5c0.42969,0.63282 0.78125,1.23047 0.78125,1.32422c0,0.08985 0.125,0.31641 0.27344,0.5c0.61328,0.73828 3.58984,5.47266 3.58984,5.71094c0,0.13672 -1.37109,2.33984 -3.05078,4.89063l-3.04688,4.63671l2.28907,0.08204c2.47656,0.08593 3.53125,-0.06641 3.53125,-0.51563c0,-0.16016 0.46875,-0.99609 1.04297,-1.85937c0.57421,-0.86329 1.21093,-1.90625 1.41796,-2.31641c0.79688,-1.57422 1.01954,-1.36328 4.57813,4.33203c0.22656,0.36328 0.73828,0.42578 2.96875,0.35938l2.69531,-0.08204l-1.28906,-1.93359c-0.71094,-1.0625 -1.375,-1.99219 -1.47656,-2.07031c-0.41016,-0.30078 -3.3125,-4.84766 -3.3125,-5.1875c0,-0.33985 1.28906,-2.4961 4.03906,-6.7461c0.66406,-1.02343 1.20312,-1.98437 1.20312,-2.13671c0,-0.15625 0.125,-0.28125 0.27735,-0.28125c0.15234,0 0.27734,-0.125 0.27734,-0.27344c0,-0.16797 -1.09765,-0.27735 -2.74219,-0.27735l-2.73828,0l-1.60547,2.90235c-1.79296,3.23437 -2.01953,3.34765 -3.05468,1.51172c-0.38672,-0.67969 -1,-1.73828 -1.36719,-2.34375c-0.36328,-0.60938 -0.73438,-1.32032 -0.82031,-1.58594c-0.13672,-0.41797 -0.53125,-0.48438 -2.90235,-0.48438c-2.11718,0 -2.69922,0.07813 -2.54297,0.34375m23.73829,11.40625c-0.09375,0.24219 -0.17188,2.23047 -0.17188,4.41797l0,3.98047l20.16406,0l-0.07812,-4.34765l-0.07422,-4.34766l-9.83594,-0.07031c-8.78906,-0.06641 -9.85547,-0.02735 -10.0039,0.36718m24.57812,-0.25c-0.10156,0.10157 -0.18359,2.08594 -0.18359,4.41407l0,4.23437l20.14843,0l0,-3.98047c0,-2.1875 -0.07812,-4.17578 -0.16796,-4.41406c-0.17579,-0.45703 -19.35157,-0.69922 -19.79688,-0.25391m-49.40234,13.80079c-0.10157,0.10156 -0.1875,2.02343 -0.1875,4.27734l0,4.09375l20.14843,0l0,-8.55469l-9.89062,0c-5.4375,0 -9.97266,0.08203 -10.07031,0.1836m24.83984,-0.00391c-0.10156,0.10156 -0.1875,2.02734 -0.1875,4.28125l0,4.09375l20.16406,0l-0.07812,-4.21094l-0.07422,-4.20703l-9.81641,-0.07422c-5.40234,-0.03906 -9.90234,0.01172 -10.00781,0.11719m24.37891,4.09375l0,4.28125l20.16015,0l-0.07422,-4.21094l-0.07812,-4.20703l-10.00391,-0.07422l-10.0039,-0.07031l0,4.28125m-49.21875,9.43359c-0.10157,0.10157 -0.1875,2.02735 -0.1875,4.27735l0,4.09375l20.14843,0l0,-8.55469l-9.89062,0c-5.4375,0 -9.97266,0.08203 -10.07031,0.18359m24.83984,-0.0039c-0.10156,0.10156 -0.1875,2.03125 -0.1875,4.28125l0,4.09375l20.16406,0l-0.07812,-4.20703l-0.07422,-4.21094l-9.81641,-0.07031c-5.40234,-0.04297 -9.90234,0.01171 -10.00781,0.11328m24.56641,0c-0.10547,0.10156 -0.1875,2.03125 -0.1875,4.28125l0,4.09375l20.16015,0l-0.07422,-4.20703l-0.07812,-4.21094l-9.81641,-0.07031c-5.39843,-0.04297 -9.90234,0.01171 -10.0039,0.11328m-40.89844,42.875c-0.09375,0.15234 -0.41406,0.27734 -0.71094,0.27734c-0.29687,0 -0.7539,0.10938 -1.01562,0.24219c-0.26563,0.13672 -0.84375,0.41406 -1.28516,0.62109c-7.44141,3.49219 -8.87109,18.52735 -2.28516,24.0586c3.6211,3.04296 9.24219,3.74609 14.95704,1.86718l1.3789,-0.45312l0.08203,-2.72266c0.08594,-3.03906 -0.04687,-3.36328 -1.21093,-2.89453c-3.36329,1.35938 -5.70313,1.67188 -7.5625,1.00781c-2.29297,-0.8164 -2.9336,-1.50781 -4.10547,-4.42187c-0.17188,-0.42578 -0.3125,-2.03906 -0.3125,-3.58985c0,-7.37109 3.64453,-10.16015 10.16797,-7.78515c1.11328,0.40625 2.05468,0.69531 2.09375,0.64453c0.13671,-0.17578 1.60937,-3.96875 1.82031,-4.67969c0.23828,-0.80859 -0.03906,-1.02734 -2.07422,-1.63672c-0.60938,-0.17968 -1.39063,-0.4375 -1.73828,-0.57031c-0.89063,-0.33594 -7.98828,-0.30859 -8.19922,0.03516m21.94141,0.04687c-4.9336,2.12891 -6.4961,4.57422 -5.77735,9.03125c0.53906,3.34766 1.67578,4.52344 6.8711,7.1211c4.23046,2.11328 4.70703,2.49218 4.69531,3.74218c-0.02344,2.23047 -1.83203,2.75391 -6.82422,1.98438c-0.64844,-0.09766 -1.24609,-0.28906 -1.32813,-0.42578c-0.08593,-0.13672 -0.39843,-0.2461 -0.70312,-0.2461c-0.30078,0 -1.0625,-0.25 -1.69141,-0.55468c-0.6289,-0.30079 -1.17968,-0.55079 -1.22656,-0.55079c-0.04687,0 -0.08594,1.41407 -0.08594,3.14063l0,3.14062l0.75782,0.28516c1.51562,0.56641 1.89453,0.67188 3.65625,1.05078c9.80468,2.10938 17.44921,-4.46094 14,-12.03515c-0.6211,-1.36329 -2.57813,-2.90235 -5.58985,-4.40235c-4.85156,-2.41015 -5.41797,-2.86328 -5.32031,-4.23828c0.15234,-2.07031 3.39453,-2.46094 7.5,-0.90625c2.17187,0.82031 2.10547,0.80859 2.10547,0.4375c0,-0.15234 0.26172,-0.86719 0.58203,-1.58594c1.54687,-3.49218 1.54687,-3.51172 0.46094,-3.92187c-0.4961,-0.1875 -1.15235,-0.44141 -1.45703,-0.56641c-1.20704,-0.5 -2.36329,-0.63672 -6.07032,-0.71484c-2.35156,-0.05078 -4.13281,0.03125 -4.55468,0.21484m15.17968,0.21485c0,0.29687 0.11719,0.82421 0.26172,1.17578c0.14063,0.34765 0.96094,2.86718 1.82422,5.60156c0.85547,2.73047 1.66406,5.21484 1.78906,5.51953c0.125,0.30469 0.37891,1.04688 0.5586,1.65625c0.17968,0.60547 0.4375,1.32031 0.57031,1.58203c0.13281,0.26563 0.24219,0.66797 0.24219,0.90235c0,0.23046 0.10937,0.63671 0.24609,0.89843c0.14063,0.26563 0.41016,1.03907 0.60156,1.72266c0.19141,0.68359 0.45313,1.35937 0.57813,1.50391c0.125,0.14453 0.23047,0.48828 0.23047,0.76171c0,0.27735 0.10937,0.71875 0.25,0.98047c0.13672,0.26563 0.55468,1.47266 0.93359,2.6875l0.6875,2.20703l8.75,0l1.61719,-4.96484c0.89062,-2.73437 1.73047,-5.1875 1.86719,-5.44922c0.13281,-0.26172 0.24609,-0.66797 0.24609,-0.90234c0,-0.23047 0.11328,-0.63672 0.25,-0.89844c0.27344,-0.52734 4.99219,-15.00781 4.99219,-15.32422c0,-0.10937 -1.72266,-0.19922 -3.82813,-0.19922c-4.125,0 -4.23047,0.03516 -4.5625,1.51953c-0.35937,1.58594 -0.79297,3.21094 -1.57812,5.9336c-0.15235,0.53125 -0.38672,1.40234 -0.51953,1.93359c-0.12891,0.53125 -0.35938,1.39844 -0.50782,1.92969c-0.60547,2.16406 -1.08203,4.08984 -1.39843,5.66016c-0.61329,3.03906 -1.39454,4.39062 -1.41016,2.4375c-0.00391,-0.42969 -0.44922,-2.51954 -0.98828,-4.64454c-0.53906,-2.1289 -1.08985,-4.30078 -1.21875,-4.83203c-0.12891,-0.53125 -0.35938,-1.40234 -0.51172,-1.93359c-0.14844,-0.53125 -0.53906,-1.95703 -0.86328,-3.17188c-0.96094,-3.59375 -1.03125,-3.84375 -1.24219,-4.34765c-0.32031,-0.78516 -7.86719,-0.73047 -7.86719,0.05469"/>
    <path fill="rgb(1.568627%,20.392157%,29.803922%)" fill-rule="evenodd" d="m123.02734,0.20833c-1.32812,0.05859 -2.41406,0.22656 -2.41406,0.37109c0,0.14453 -0.92578,0.26563 -2.05469,0.26563c-1.1289,0 -2.1289,0.125 -2.22265,0.27734c-0.09766,0.14844 -0.78516,0.27344 -1.53516,0.27344c-0.75,0 -1.36328,0.125 -1.36328,0.27734c0,0.15234 -0.68359,0.27734 -1.51953,0.27734c-0.83594,0 -1.51953,0.1211 -1.51953,0.27344c0,0.15235 -0.55078,0.27735 -1.22266,0.27735c-0.67578,0 -1.30469,0.125 -1.39844,0.27734c-0.09375,0.14844 -0.66015,0.27344 -1.25781,0.27344c-0.59765,0 -1.08594,0.125 -1.08594,0.27734c0,0.15234 -0.5,0.27734 -1.10546,0.27734c-0.60547,0 -1.10547,0.1211 -1.10547,0.27344c0,0.15235 -0.4961,0.27735 -1.10157,0.27735c-0.60937,0 -1.10546,0.125 -1.10546,0.27343c0,0.15235 -0.3711,0.27735 -0.82813,0.27735c-0.45312,0 -0.82812,0.125 -0.82812,0.27734c0,0.15234 -0.4336,0.27344 -0.96485,0.27344c-0.53125,0 -0.96484,0.125 -0.96484,0.27734c0,0.15235 -0.29688,0.27735 -0.66016,0.27735c-0.61328,0 -2.91797,0.60937 -4.17187,1.10546c-0.30469,0.1211 -0.98828,0.36719 -1.51953,0.55079c-1.16797,0.40234 -2.17969,0.80859 -2.82422,1.13671c-0.26172,0.13282 -0.73047,0.24219 -1.03516,0.24219c-0.30469,0 -0.55469,0.125 -0.55469,0.27735c0,0.15234 -0.25,0.27343 -0.55078,0.27343c-0.30469,0 -0.55469,0.125 -0.55469,0.27735c0,0.15234 -0.30078,0.27734 -0.67187,0.27734c-0.37109,0 -0.75,0.12109 -0.84375,0.27344c-0.09375,0.15234 -0.41406,0.27734 -0.70703,0.27734c-0.29688,0 -0.53516,0.125 -0.53516,0.27735c0,0.14843 -0.25,0.27343 -0.55469,0.27343c-0.30078,0 -0.55078,0.125 -0.55078,0.27735c0,0.15234 -0.1875,0.27734 -0.41797,0.27734c-0.40625,0 -0.69921,0.11328 -1.99218,0.78516c-0.33985,0.17187 -0.80469,0.3164 -1.03516,0.3164c-0.23047,0 -0.41797,0.125 -0.41797,0.27735c0,0.15234 -0.25,0.27343 -0.55078,0.27343c-0.30469,0 -0.55469,0.10157 -0.55469,0.22657c0,0.125 -0.43359,0.39453 -0.96484,0.60156c-0.53125,0.21094 -0.96484,0.48047 -0.96484,0.60547c0,0.125 -0.25,0.22265 -0.55469,0.22265c-0.30078,0 -0.55078,0.125 -0.55078,0.27735c0,0.15234 -0.2461,0.27734 -0.55078,0.27734c-0.30469,0 -0.55079,0.125 -0.55079,0.27344c0,0.15234 -0.22265,0.27734 -0.49218,0.27734c-0.26953,0 -0.67188,0.25 -0.89063,0.55078c-0.21875,0.30469 -0.55859,0.55469 -0.75781,0.55469c-0.48438,0 -3.21875,1.38672 -3.33594,1.69141c-0.05078,0.13281 -0.21484,0.23828 -0.36328,0.23828c-0.14844,0 -0.8125,0.375 -1.47656,0.82812c-0.66016,0.45704 -1.3086,0.82813 -1.4375,0.82813c-0.12891,0 -0.41406,0.25 -0.63281,0.55469c-0.21875,0.30078 -0.58985,0.55078 -0.82813,0.55078c-0.23437,0 -0.60937,0.24609 -0.82812,0.55078c-0.21875,0.30469 -0.58985,0.55078 -0.82813,0.55078c-0.23437,0 -0.60937,0.25 -0.82812,0.55469c-0.21875,0.30078 -0.5586,0.55078 -0.75391,0.55078c-0.19531,0 -0.74219,0.37109 -1.21875,0.82812c-0.47656,0.45704 -1.00781,0.82813 -1.17969,0.82813c-0.17187,0 -0.49219,0.25 -0.71094,0.55078c-0.21875,0.30469 -0.57031,0.55469 -0.77734,0.55469c-0.21094,0 -0.72656,0.37109 -1.15234,0.82812c-0.42578,0.45313 -0.85547,0.82813 -0.95313,0.82813c-0.1875,0 -0.46094,0.21484 -1.84375,1.44922c-0.46875,0.41406 -0.96094,0.75781 -1.08984,0.75781c-0.13281,0 -0.77344,0.52734 -1.42188,1.17578c-0.64843,0.64844 -1.61328,1.48438 -2.14453,1.85938c-0.53125,0.375 -2.17969,1.92578 -3.66797,3.44531c-3.24609,3.32422 -2.53515,2.61328 -5.85937,5.85937c-1.51953,1.48828 -3.07031,3.13282 -3.44531,3.66407c-0.375,0.52734 -1.27344,1.5664 -1.9961,2.30468c-0.72265,0.73828 -1.3164,1.46094 -1.3164,1.60157c0,0.14453 -0.27735,0.5625 -0.6211,0.92578c-0.94531,1.01172 -1.30859,1.47656 -1.30859,1.67187c0,0.09766 -0.375,0.52735 -0.82813,0.95313c-0.45703,0.42578 -0.82812,0.9414 -0.82812,1.15234c0,0.20703 -0.25,0.55859 -0.55469,0.77734c-0.30078,0.21875 -0.55078,0.5586 -0.55078,0.75c0,0.19532 -0.125,0.35547 -0.27734,0.35547c-0.15235,0 -0.27344,0.15625 -0.27344,0.35157c0,0.19531 -0.25,0.53125 -0.55469,0.75c-0.30078,0.21875 -0.55078,0.59375 -0.55078,0.82812c0,0.23828 -0.25,0.60938 -0.55078,0.82813c-0.30469,0.21875 -0.55469,0.59375 -0.55469,0.82812c0,0.23828 -0.24609,0.60938 -0.55078,0.82813c-0.30469,0.21875 -0.55078,0.59375 -0.55078,0.82812c0,0.23828 -0.25,0.60938 -0.55078,0.82813c-0.30469,0.21875 -0.55469,0.5039 -0.55469,0.63281c0,0.1289 -0.37109,0.77734 -0.82813,1.4375c-0.45312,0.66406 -0.82812,1.32812 -0.82812,1.47656c0,0.14844 -0.10547,0.3125 -0.23828,0.36328c-0.30469,0.11719 -1.69141,2.85156 -1.69141,3.33594c0,0.19922 -0.25,0.53906 -0.55469,0.75781c-0.30078,0.21875 -0.55078,0.6211 -0.55078,0.89063c0,0.26953 -0.125,0.49218 -0.27734,0.49218c-0.14844,0 -0.27344,0.2461 -0.27344,0.55079c0,0.30468 -0.125,0.55078 -0.27734,0.55078c-0.15235,0 -0.27735,0.25 -0.27735,0.55078c0,0.30469 -0.09765,0.55469 -0.22265,0.55469c-0.125,0 -0.39453,0.43359 -0.60547,0.96484c-0.20703,0.53125 -0.47656,0.96484 -0.60156,0.96484c-0.125,0 -0.22657,0.25 -0.22657,0.55469c0,0.30078 -0.12109,0.55078 -0.27343,0.55078c-0.15235,0 -0.27735,0.1836 -0.27735,0.40625c0,0.22266 -0.24609,0.84766 -0.55078,1.38672c-0.30469,0.54297 -0.55078,1.22656 -0.55078,1.52734c0,0.29688 -0.125,0.54297 -0.27734,0.54297c-0.15235,0 -0.27735,0.25 -0.27735,0.55078c0,0.30469 -0.125,0.55469 -0.27343,0.55469c-0.15235,0 -0.27735,0.2461 -0.27735,0.55078c0,0.30469 -0.125,0.55078 -0.27734,0.55078c-0.15235,0 -0.27344,0.375 -0.27344,0.82813c0,0.45703 -0.125,0.82812 -0.27734,0.82812c-0.15235,0 -0.27735,0.25 -0.27735,0.55469c0,0.30078 -0.12109,0.55078 -0.27343,0.55078c-0.15235,0 -0.27735,0.25 -0.27735,0.55469c0,0.30469 -0.10937,0.77344 -0.24219,1.03516c-0.13671,0.26562 -0.39843,0.85156 -0.58593,1.30859c-0.1875,0.45313 -0.44922,1.04297 -0.58594,1.30859c-0.13281,0.26172 -0.24219,0.66797 -0.24219,0.89844c0,0.23047 -0.11328,0.63672 -0.25,0.90235c-0.41406,0.78515 -1.1289,3.39062 -1.1289,4.09765c0,0.36328 -0.125,0.66016 -0.27735,0.66016c-0.15234,0 -0.27734,0.43359 -0.27734,0.96484c0,0.53125 -0.1211,0.96485 -0.27344,0.96485c-0.15234,0 -0.27734,0.375 -0.27734,0.82812c0,0.45703 -0.125,0.82813 -0.27735,0.82813c-0.14843,0 -0.27343,0.49609 -0.27343,1.10546c0,0.60547 -0.125,1.10157 -0.27735,1.10157c-0.15234,0 -0.27344,0.5 -0.27344,1.10547c0,0.60546 -0.125,1.10546 -0.27734,1.10546c-0.15234,0 -0.27734,0.48829 -0.27734,1.08594c0,0.59766 -0.125,1.16406 -0.27344,1.25781c-0.15234,0.09375 -0.27734,0.72266 -0.27734,1.39844c0,0.67188 -0.125,1.22266 -0.27735,1.22266c-0.15234,0 -0.27344,0.62109 -0.27344,1.38281c0,0.75781 -0.125,1.37891 -0.27734,1.37891c-0.15234,0 -0.27734,0.73047 -0.27734,1.64062c0,0.90235 -0.125,1.71485 -0.27344,1.8086c-0.15234,0.09375 -0.27734,0.94531 -0.27734,1.89453c0,1.00781 -0.14454,1.86328 -0.34375,2.0664c-0.26954,0.26953 -0.34766,4.14063 -0.34766,17.48828c0,13.47266 0.07422,17.17188 0.34766,17.26172c0.23046,0.07422 0.34375,0.73828 0.34375,2.00782c0,1.03906 0.125,1.96875 0.27734,2.0625c0.14844,0.09375 0.27344,0.90625 0.27344,1.80859c0,0.91016 0.125,1.64062 0.27734,1.64062c0.15234,0 0.27734,0.6211 0.27734,1.37891c0,0.76172 0.1211,1.38281 0.27344,1.38281c0.15235,0 0.27735,0.55078 0.27735,1.22266c0,0.67578 0.125,1.30469 0.27734,1.39844c0.14844,0.09375 0.27344,0.66015 0.27344,1.25781c0,0.59766 0.125,1.08594 0.27734,1.08594c0.15234,0 0.27734,0.5 0.27734,1.10547c0,0.60546 0.1211,1.10546 0.27344,1.10546c0.15235,0 0.27735,0.4961 0.27735,1.10157c0,0.60937 0.125,1.10547 0.27343,1.10547c0.15235,0 0.27735,0.37109 0.27735,0.82812c0,0.45313 0.125,0.82813 0.27734,0.82813c0.15234,0 0.27344,0.43359 0.27344,0.96484c0,0.53125 0.125,0.96484 0.27734,0.96484c0.15235,0 0.27735,0.29688 0.27735,0.66016c0,0.70703 0.71484,3.3125 1.1289,4.09766c0.13672,0.26562 0.25,0.67187 0.25,0.90234c0,0.23047 0.10938,0.63672 0.24219,0.89844c0.13672,0.26562 0.39844,0.85547 0.58594,1.30859c0.1875,0.45703 0.44922,1.04297 0.58593,1.30859c0.13282,0.26172 0.24219,0.73047 0.24219,1.03516c0,0.30469 0.125,0.55469 0.27735,0.55469c0.15234,0 0.27343,0.25 0.27343,0.55078c0,0.30469 0.125,0.55469 0.27735,0.55469c0.15234,0 0.27734,0.37109 0.27734,0.82812c0,0.45313 0.12109,0.82813 0.27344,0.82813c0.15234,0 0.27734,0.24609 0.27734,0.55078c0,0.30469 0.125,0.55078 0.27735,0.55078c0.14843,0 0.27343,0.25 0.27343,0.55469c0,0.30078 0.125,0.55078 0.27735,0.55078c0.15234,0 0.27734,0.1875 0.27734,0.41797c0,0.23047 0.12109,0.66406 0.27344,0.96484c0.15234,0.30078 0.40234,0.79688 0.55469,1.09766c0.14843,0.30078 0.27343,0.73437 0.27343,0.96484c0,0.23047 0.09375,0.41797 0.20703,0.41797c0.11329,0 0.51954,0.68359 0.89844,1.51953c0.37891,0.83203 0.78125,1.51563 0.89453,1.51563c0.11719,0 0.20703,0.25 0.20703,0.55468c0,0.30078 0.125,0.55078 0.27735,0.55078c0.15234,0 0.27734,0.2461 0.27734,0.55079c0,0.30468 0.125,0.55078 0.27344,0.55078c0.15234,0 0.27734,0.16406 0.27734,0.36328c0,0.19922 0.25,0.6289 0.55078,0.95703c0.30469,0.32422 0.55469,0.73437 0.55469,0.91016c0,0.40234 1.44531,3.12109 1.72266,3.24609c0.11328,0.05078 0.20703,0.21484 0.20703,0.36328c0,0.14844 0.375,0.8125 0.82812,1.47656c0.45704,0.66016 0.82813,1.3086 0.82813,1.4375c0,0.12891 0.25,0.41407 0.55469,0.63282c0.30078,0.21875 0.55078,0.58984 0.55078,0.82812c0,0.23438 0.24609,0.60938 0.55078,0.82813c0.30469,0.21875 0.55078,0.58984 0.55078,0.82812c0,0.23438 0.25,0.60938 0.55469,0.82813c0.30078,0.21875 0.55078,0.58984 0.55078,0.82812c0,0.23438 0.25,0.60938 0.55078,0.82813c0.30469,0.21875 0.55469,0.55468 0.55469,0.75c0,0.19531 0.12109,0.35156 0.27344,0.35156c0.15234,0 0.27734,0.16015 0.27734,0.35547c0,0.1914 0.25,0.53125 0.55078,0.75c0.30469,0.21875 0.55469,0.57031 0.55469,0.77734c0,0.21094 0.37109,0.72656 0.82812,1.15234c0.45313,0.42579 0.82813,0.85547 0.82813,0.95313c0,0.19531 0.18359,0.43359 1.3789,1.76953c0.45313,0.50781 0.82813,1.03516 0.82813,1.16406c0,0.13282 0.52734,0.77344 1.17578,1.42188c0.64844,0.64844 1.48438,1.61328 1.85938,2.14453c0.375,0.53125 1.92578,2.17969 3.44531,3.66797c3.32422,3.24609 2.61328,2.53515 5.85937,5.85937c1.48828,1.51953 3.13672,3.07032 3.66797,3.44532c0.53125,0.375 1.4961,1.21093 2.14453,1.85937c0.64844,0.64844 1.28516,1.17578 1.41407,1.17578c0.1289,0 0.71093,0.4336 1.28906,0.96485c0.58203,0.53125 1.15234,0.96875 1.26953,0.96875c0.11719,0 0.64453,0.43359 1.17578,0.96484c0.53125,0.53125 1.13281,0.96484 1.33203,0.96484c0.19922,0 0.53906,0.25 0.75781,0.55469c0.21875,0.30078 0.53907,0.55078 0.71094,0.55078c0.17188,0 0.70313,0.3711 1.17969,0.82813c0.47656,0.45703 1.02344,0.82812 1.21875,0.82812c0.19531,0 0.53516,0.25 0.75391,0.55078c0.21875,0.30469 0.59375,0.55469 0.82812,0.55469c0.23828,0 0.60938,0.24609 0.82813,0.55078c0.21875,0.30469 0.59375,0.55078 0.82812,0.55078c0.23828,0 0.60938,0.25 0.82813,0.55078c0.21875,0.30469 0.5039,0.55469 0.63281,0.55469c0.1289,0 0.77734,0.3711 1.4375,0.82813c0.66406,0.45312 1.33594,0.82812 1.5,0.82812c0.16015,0 0.29297,0.125 0.29297,0.27344c0,0.15234 0.13672,0.27734 0.30468,0.27734c0.16407,0 0.64063,0.24219 1.05079,0.53516c0.41406,0.29297 1.10937,0.62109 1.55078,0.73437c0.4414,0.10938 1.04687,0.42969 1.34765,0.70704c0.30078,0.27734 0.70703,0.50781 0.90625,0.50781c0.19922,0 0.36328,0.125 0.36328,0.27734c0,0.14844 0.2461,0.27344 0.55079,0.27344c0.30468,0 0.55078,0.125 0.55078,0.27734c0,0.15235 0.25,0.27735 0.55078,0.27735c0.30469,0 0.55469,0.12109 0.55469,0.27343c0,0.15235 0.23828,0.27735 0.52734,0.27735c0.29297,0 0.57031,0.09375 0.62109,0.20703c0.05078,0.11328 0.71485,0.5 1.47266,0.85937c0.75781,0.35547 1.59766,0.76172 1.85937,0.89454c0.26563,0.13671 0.66797,0.24609 0.89844,0.24609c0.23047,0 0.41797,0.125 0.41797,0.27734c0,0.15235 0.24609,0.27344 0.55078,0.27344c0.30469,0 0.55078,0.125 0.55078,0.27734c0,0.15235 0.25,0.27735 0.55078,0.27735c0.30469,0 0.55469,0.125 0.55469,0.27344c0,0.15234 0.23828,0.27734 0.53516,0.27734c0.29297,0 0.61328,0.125 0.70703,0.27734c0.09375,0.15235 0.47266,0.27344 0.84375,0.27344c0.37109,0 0.67187,0.125 0.67187,0.27734c0,0.15235 0.25,0.27735 0.55469,0.27735c0.30078,0 0.55078,0.12109 0.55078,0.27344c0,0.15234 0.25,0.27734 0.55469,0.27734c0.30469,0 0.77344,0.10937 1.03516,0.24219c0.64453,0.32812 1.65625,0.73437 2.82422,1.13672c0.53125,0.18359 1.21484,0.42968 1.51953,0.55078c1.2539,0.49609 3.55859,1.10547 4.17187,1.10547c0.36328,0 0.66016,0.125 0.66016,0.27734c0,0.15234 0.43359,0.27734 0.96484,0.27734c0.53125,0 0.96485,0.1211 0.96485,0.27344c0,0.15234 0.36718,0.27734 0.8125,0.27734c0.44531,0 0.88671,0.125 0.98046,0.27735c0.09375,0.14844 0.60157,0.27344 1.1211,0.27344c0.52344,0 0.94922,0.125 0.94922,0.27734c0,0.15234 0.5,0.27344 1.10547,0.27344c0.60546,0 1.10546,0.125 1.10546,0.27734c0,0.15234 0.48829,0.27734 1.08594,0.27734c0.59766,0 1.16406,0.125 1.25781,0.27344c0.09375,0.15235 0.72266,0.27735 1.39844,0.27735c0.67188,0 1.22266,0.125 1.22266,0.27734c0,0.15234 0.68359,0.27344 1.51953,0.27344c0.83594,0 1.51953,0.125 1.51953,0.27734c0,0.15234 0.67578,0.27734 1.5,0.27734c0.82422,0 1.57813,0.125 1.67188,0.27344c0.09375,0.15235 1.02343,0.27735 2.0625,0.27735c1.26953,0 1.93359,0.11328 2.00781,0.34375c0.16797,0.50781 34.47265,0.50781 34.64062,0c0.07422,-0.23047 0.73828,-0.34375 2.00782,-0.34375c1.03906,0 1.96875,-0.125 2.0625,-0.27735c0.09375,-0.14844 0.83984,-0.27344 1.65625,-0.27344c0.8164,0 1.5625,-0.125 1.65625,-0.27734c0.09375,-0.15234 0.78515,-0.27734 1.53515,-0.27734c0.75,0 1.36328,-0.1211 1.36328,-0.27344c0,-0.15234 0.48828,-0.27734 1.08594,-0.27734c0.59766,0 1.16406,-0.125 1.25781,-0.27735c0.09375,-0.14844 0.72266,-0.27344 1.39844,-0.27344c0.67188,0 1.22266,-0.125 1.22266,-0.27734c0,-0.15234 0.5,-0.27734 1.10547,-0.27734c0.60546,0 1.10546,-0.1211 1.10546,-0.27344c0,-0.15234 0.42579,-0.27734 0.94922,-0.27734c0.51953,0 1.02735,-0.125 1.1211,-0.27344c0.09375,-0.15235 0.53515,-0.27735 0.98047,-0.27735c0.44531,0 0.8125,-0.125 0.8125,-0.27734c0,-0.15234 0.43359,-0.27344 0.96484,-0.27344c0.53125,0 0.96484,-0.11328 0.96484,-0.24609c0,-0.13281 0.6836,-0.32813 1.51563,-0.43359c0.83203,-0.10547 1.58594,-0.30469 1.67187,-0.44532c0.08594,-0.14062 0.45313,-0.25781 0.81641,-0.25781c0.36328,0 0.73437,-0.125 0.82812,-0.27344c0.09375,-0.15234 0.41407,-0.27734 0.71094,-0.27734c0.29688,0 0.75391,-0.10938 1.01563,-0.24219c0.26562,-0.13672 0.85547,-0.39844 1.30859,-0.58594c0.45703,-0.1875 1.04297,-0.44921 1.30859,-0.58593c0.26172,-0.13282 0.73047,-0.24219 1.03516,-0.24219c0.30469,0 0.55469,-0.125 0.55469,-0.27734c0,-0.15235 0.25,-0.27344 0.55078,-0.27344c0.30469,0 0.55469,-0.125 0.55469,-0.27735c0,-0.15234 0.37109,-0.27734 0.82812,-0.27734c0.45313,0 0.82813,-0.12109 0.82813,-0.27344c0,-0.15234 0.24609,-0.27734 0.55078,-0.27734c0.30469,0 0.55078,-0.125 0.55078,-0.27734c0,-0.14844 0.25,-0.27344 0.55469,-0.27344c0.30078,0 0.55078,-0.125 0.55078,-0.27735c0,-0.15234 0.1875,-0.27734 0.41797,-0.27734c0.40625,0 0.69922,-0.11328 1.99218,-0.78516c0.33985,-0.17187 0.80469,-0.3164 1.03516,-0.3164c0.23047,0 0.41797,-0.09375 0.41797,-0.20703c0,-0.11328 0.68359,-0.51953 1.51953,-0.89844c0.83203,-0.37891 1.51563,-0.78125 1.51563,-0.89453c0,-0.11719 0.25,-0.20703 0.55468,-0.20703c0.30078,0 0.55078,-0.125 0.55078,-0.27735c0,-0.15234 0.2461,-0.27734 0.55079,-0.27734c0.30468,0 0.55078,-0.125 0.55078,-0.27344c0,-0.15234 0.16406,-0.27734 0.36328,-0.27734c0.19922,0 0.6289,-0.25 0.95703,-0.55078c0.32422,-0.30469 0.73437,-0.55469 0.91016,-0.55469c0.40234,0 3.12109,-1.44531 3.24609,-1.72266c0.05078,-0.11328 0.21484,-0.20703 0.36328,-0.20703c0.14844,0 0.8125,-0.375 1.47656,-0.82812c0.66016,-0.45703 1.3086,-0.82813 1.4375,-0.82813c0.12891,0 0.41407,-0.25 0.63282,-0.55469c0.21875,-0.30078 0.58984,-0.55078 0.82812,-0.55078c0.23438,0 0.60938,-0.24609 0.82813,-0.55078c0.21875,-0.30469 0.58984,-0.55078 0.82812,-0.55078c0.23438,0 0.60938,-0.25 0.82813,-0.55469c0.21875,-0.30078 0.58984,-0.55078 0.82812,-0.55078c0.23438,0 0.60938,-0.25 0.82813,-0.55078c0.21875,-0.30469 0.55468,-0.55469 0.75,-0.55469c0.19531,0 0.35156,-0.12109 0.35156,-0.27343c0,-0.15235 0.16015,-0.27735 0.35547,-0.27735c0.1914,0 0.53125,-0.25 0.75,-0.55078c0.21875,-0.30469 0.57031,-0.55469 0.77734,-0.55469c0.21094,0 0.72656,-0.37109 1.15234,-0.82812c0.42579,-0.45313 0.87891,-0.82813 1.00782,-0.82813c0.1289,0 0.78125,-0.49609 1.44531,-1.10156c0.66406,-0.60937 1.3125,-1.10547 1.44141,-1.10547c0.1289,0 0.76562,-0.52734 1.41406,-1.17578c0.64844,-0.64844 1.61328,-1.48437 2.14453,-1.85937c0.53125,-0.375 2.17969,-1.92579 3.66797,-3.44532c3.24609,-3.32422 2.53515,-2.61328 5.85937,-5.85937c1.51953,-1.48828 3.07032,-3.13672 3.44532,-3.66797c0.375,-0.53125 1.21093,-1.49609 1.85937,-2.14453c0.64844,-0.64844 1.17578,-1.28516 1.17578,-1.41406c0,-0.12891 0.4961,-0.77735 1.10547,-1.44141c0.60547,-0.66406 1.10156,-1.31641 1.10156,-1.44531c0,-0.12891 0.375,-0.58203 0.82813,-1.00782c0.45703,-0.42578 0.82812,-0.9414 0.82812,-1.15234c0,-0.20703 0.25,-0.55859 0.55469,-0.77734c0.30078,-0.21875 0.55078,-0.5586 0.55078,-0.75c0,-0.19532 0.125,-0.35547 0.27735,-0.35547c0.15234,0 0.27343,-0.15625 0.27343,-0.35156c0,-0.19532 0.25,-0.53125 0.55469,-0.75c0.30078,-0.21875 0.55078,-0.59375 0.55078,-0.82813c0,-0.23828 0.25,-0.60937 0.55078,-0.82812c0.30469,-0.21875 0.55469,-0.59375 0.55469,-0.82813c0,-0.23828 0.24609,-0.60937 0.55078,-0.82812c0.30469,-0.21875 0.55078,-0.59375 0.55078,-0.82813c0,-0.23828 0.25,-0.60937 0.55078,-0.82812c0.30469,-0.21875 0.55469,-0.50391 0.55469,-0.63282c0,-0.1289 0.3711,-0.77734 0.82813,-1.4375c0.45312,-0.66406 0.82812,-1.33593 0.82812,-1.5c0,-0.16015 0.125,-0.29297 0.27344,-0.29297c0.15234,0 0.27734,-0.25 0.27734,-0.55468c0,-0.30078 0.10157,-0.55078 0.22657,-0.55078c0.23828,0 1.15234,-1.76563 1.15234,-2.23047c0,-0.15235 0.25,-0.54297 0.55469,-0.86719c0.30078,-0.32813 0.55078,-0.75781 0.55078,-0.95703c0,-0.19922 0.125,-0.36328 0.27734,-0.36328c0.14844,0 0.27344,-0.2461 0.27344,-0.55078c0,-0.30469 0.125,-0.55079 0.27734,-0.55079c0.15235,0 0.27735,-0.25 0.27735,-0.55078c0,-0.30468 0.08984,-0.55468 0.20703,-0.55468c0.11328,0 0.51562,-0.6836 0.89453,-1.51563c0.37891,-0.83594 0.78516,-1.51953 0.89844,-1.51953c0.11328,0 0.20703,-0.1875 0.20703,-0.41797c0,-0.23047 0.125,-0.66406 0.27344,-0.96484c0.15234,-0.30078 0.40234,-0.79688 0.55468,-1.09766c0.15235,-0.30078 0.27344,-0.73437 0.27344,-0.96484c0,-0.23047 0.125,-0.41797 0.27734,-0.41797c0.15235,0 0.27735,-0.25 0.27735,-0.55078c0,-0.30469 0.125,-0.55469 0.27344,-0.55469c0.15234,0 0.27734,-0.23828 0.27734,-0.53516c0,-0.29297 0.125,-0.61328 0.27734,-0.70703c0.15235,-0.09375 0.27344,-0.47265 0.27344,-0.84375c0,-0.37109 0.125,-0.67187 0.27734,-0.67187c0.15235,0 0.27735,-0.25 0.27735,-0.55469c0,-0.30078 0.12109,-0.55078 0.27344,-0.55078c0.15234,0 0.27734,-0.25 0.27734,-0.55469c0,-0.30469 0.10937,-0.77344 0.24219,-1.03516c0.13672,-0.26562 0.39843,-0.85156 0.58593,-1.30859c0.1875,-0.45312 0.44922,-1.04297 0.58594,-1.30859c0.13281,-0.26172 0.24219,-0.71875 0.24219,-1.01563c0,-0.29687 0.125,-0.61719 0.27734,-0.71094c0.14844,-0.09375 0.27344,-0.46484 0.27344,-0.82812c0,-0.36328 0.11719,-0.73047 0.25781,-0.81641c0.14063,-0.08593 0.33985,-0.83984 0.44532,-1.67187c0.10546,-0.83203 0.30078,-1.51563 0.43359,-1.51563c0.13281,0 0.24609,-0.43359 0.24609,-0.96484c0,-0.53125 0.1211,-0.96484 0.27344,-0.96484c0.15234,0 0.27734,-0.36719 0.27734,-0.8125c0,-0.44532 0.125,-0.88672 0.27735,-0.98047c0.14844,-0.09375 0.27344,-0.60157 0.27344,-1.1211c0,-0.52343 0.125,-0.94922 0.27734,-0.94922c0.15234,0 0.27344,-0.5 0.27344,-1.10546c0,-0.60547 0.125,-1.10547 0.27734,-1.10547c0.15234,0 0.27734,-0.48828 0.27734,-1.08594c0,-0.59766 0.125,-1.16406 0.27344,-1.25781c0.15235,-0.09375 0.27735,-0.72266 0.27735,-1.39844c0,-0.67188 0.125,-1.22266 0.27734,-1.22266c0.15234,0 0.27344,-0.61328 0.27344,-1.36328c0,-0.75 0.125,-1.4414 0.27734,-1.53515c0.15234,-0.09375 0.27734,-0.83985 0.27734,-1.65625c0,-0.81641 0.125,-1.5625 0.27344,-1.65625c0.15235,-0.09375 0.27735,-1.02344 0.27735,-2.0625c0,-1.26954 0.11328,-1.9336 0.34375,-2.00782c0.27343,-0.08984 0.34765,-3.80078 0.34765,-17.32031c0,-13.51953 -0.07422,-17.23047 -0.34765,-17.32031c-0.23047,-0.07422 -0.34375,-0.73828 -0.34375,-2.00781c0,-1.03907 -0.125,-1.96875 -0.27735,-2.0625c-0.14844,-0.09375 -0.27344,-0.83985 -0.27344,-1.65625c0,-0.81641 -0.125,-1.5625 -0.27734,-1.65625c-0.15234,-0.09375 -0.27734,-0.78516 -0.27734,-1.53516c0,-0.75 -0.1211,-1.36328 -0.27344,-1.36328c-0.15234,0 -0.27734,-0.55078 -0.27734,-1.22266c0,-0.67578 -0.125,-1.30469 -0.27735,-1.39844c-0.14844,-0.09375 -0.27344,-0.66015 -0.27344,-1.25781c0,-0.59765 -0.125,-1.08594 -0.27734,-1.08594c-0.15234,0 -0.27734,-0.5 -0.27734,-1.10546c0,-0.60547 -0.1211,-1.10547 -0.27344,-1.10547c-0.15234,0 -0.27734,-0.42578 -0.27734,-0.94922c0,-0.51953 -0.125,-1.02735 -0.27344,-1.1211c-0.15235,-0.09375 -0.27735,-0.53515 -0.27735,-0.98046c0,-0.44532 -0.125,-0.8125 -0.27734,-0.8125c-0.15234,0 -0.27344,-0.4336 -0.27344,-0.96485c0,-0.53125 -0.11328,-0.96484 -0.24609,-0.96484c-0.13281,0 -0.32813,-0.6836 -0.43359,-1.51563c-0.10547,-0.83203 -0.30469,-1.58593 -0.44532,-1.67187c-0.14062,-0.08594 -0.25781,-0.45313 -0.25781,-0.81641c0,-0.36328 -0.125,-0.73437 -0.27344,-0.82812c-0.15234,-0.09375 -0.27734,-0.41407 -0.27734,-0.71094c0,-0.29688 -0.10938,-0.75391 -0.24219,-1.01563c-0.13672,-0.26562 -0.39844,-0.85546 -0.58594,-1.30859c-0.1875,-0.45703 -0.44921,-1.04297 -0.58593,-1.30859c-0.13282,-0.26172 -0.24219,-0.73047 -0.24219,-1.03516c0,-0.30469 -0.125,-0.55469 -0.27734,-0.55469c-0.15235,0 -0.27344,-0.25 -0.27344,-0.55078c0,-0.30469 -0.125,-0.55469 -0.27735,-0.55469c-0.15234,0 -0.27734,-0.37109 -0.27734,-0.82812c0,-0.45313 -0.12109,-0.82813 -0.27344,-0.82813c-0.15234,0 -0.27734,-0.24609 -0.27734,-0.55078c0,-0.30468 -0.125,-0.55078 -0.27734,-0.55078c-0.14844,0 -0.27344,-0.25 -0.27344,-0.55469c0,-0.30078 -0.125,-0.55078 -0.27735,-0.55078c-0.15234,0 -0.27734,-0.24609 -0.27734,-0.55078c0,-0.30469 -0.12109,-0.55078 -0.27344,-0.55078c-0.15234,0 -0.27734,-0.30469 -0.27734,-0.67578c0,-0.37109 -0.125,-0.75 -0.27734,-0.84375c-0.14844,-0.09375 -0.27344,-0.41406 -0.27344,-0.70703c0,-0.29297 -0.125,-0.53516 -0.27735,-0.53516c-0.15234,0 -0.27343,-0.25 -0.27343,-0.55078c0,-0.30469 -0.10157,-0.55469 -0.22657,-0.55469c-0.125,0 -0.39453,-0.43359 -0.60156,-0.96484c-0.21094,-0.53125 -0.48047,-0.96484 -0.60547,-0.96484c-0.125,0 -0.22265,-0.25 -0.22265,-0.55469c0,-0.30078 -0.125,-0.55078 -0.27735,-0.55078c-0.15234,0 -0.27734,-0.2461 -0.27734,-0.55078c0,-0.30469 -0.125,-0.55079 -0.27344,-0.55079c-0.15234,0 -0.27734,-0.16406 -0.27734,-0.36328c0,-0.19922 -0.25,-0.6289 -0.55078,-0.95703c-0.30469,-0.32422 -0.55469,-0.73828 -0.55469,-0.91797c0,-0.48828 -1.45703,-3.28515 -1.71094,-3.28515c-0.12109,0 -0.21875,-0.13282 -0.21875,-0.29297c0,-0.16406 -0.375,-0.83594 -0.82812,-1.5c-0.45703,-0.66016 -0.82813,-1.3086 -0.82813,-1.4375c0,-0.12891 -0.25,-0.41406 -0.55469,-0.63281c-0.30078,-0.21875 -0.55078,-0.58985 -0.55078,-0.82813c0,-0.23437 -0.24609,-0.60937 -0.55078,-0.82812c-0.30469,-0.21875 -0.55078,-0.58985 -0.55078,-0.82813c0,-0.23437 -0.25,-0.60937 -0.55469,-0.82812c-0.30078,-0.21875 -0.55078,-0.58985 -0.55078,-0.82813c0,-0.23437 -0.25,-0.60937 -0.55078,-0.82812c-0.30469,-0.21875 -0.55469,-0.53516 -0.55469,-0.70704c0,-0.17187 -0.37109,-0.70312 -0.82812,-1.17968c-0.45313,-0.47657 -0.82813,-1.00391 -0.82813,-1.17188c0,-0.16797 -0.37109,-0.65234 -0.82812,-1.07812c-0.45313,-0.42578 -0.82813,-0.87891 -0.82813,-1.00782c0,-0.1289 -0.49609,-0.78125 -1.10156,-1.44531c-0.60937,-0.66406 -1.10547,-1.3125 -1.10547,-1.4414c0,-0.12891 -0.52734,-0.76563 -1.17578,-1.41407c-0.64844,-0.64843 -1.48437,-1.61328 -1.85937,-2.14453c-0.375,-0.53125 -1.92579,-2.17969 -3.44532,-3.66797c-3.32422,-3.24609 -2.61328,-2.53515 -5.85937,-5.85937c-1.48828,-1.51953 -3.13281,-3.07031 -3.66406,-3.44531c-0.52735,-0.375 -1.56641,-1.27344 -2.30469,-1.9961c-0.73828,-0.72265 -1.46094,-1.3164 -1.60156,-1.3164c-0.14454,0 -0.5625,-0.27735 -0.92579,-0.6211c-1.01171,-0.94531 -1.47656,-1.30859 -1.67187,-1.30859c-0.09766,0 -0.52734,-0.375 -0.95313,-0.82813c-0.42578,-0.45703 -0.91015,-0.82812 -1.07812,-0.82812c-0.16797,0 -0.69531,-0.375 -1.17188,-0.82813c-0.47656,-0.45703 -1.00781,-0.82812 -1.17968,-0.82812c-0.17188,0 -0.48828,-0.25 -0.70703,-0.55469c-0.21875,-0.30078 -0.59375,-0.55078 -0.82813,-0.55078c-0.23828,0 -0.60937,-0.25 -0.82812,-0.55078c-0.21875,-0.30469 -0.59375,-0.55469 -0.82813,-0.55469c-0.23828,0 -0.60937,-0.24609 -0.82812,-0.55078c-0.21875,-0.30469 -0.59375,-0.55078 -0.82813,-0.55078c-0.23828,0 -0.60937,-0.25 -0.82812,-0.55078c-0.21875,-0.30469 -0.50391,-0.55469 -0.63282,-0.55469c-0.1289,0 -0.77734,-0.37109 -1.4375,-0.82813c-0.66406,-0.45312 -1.32812,-0.82812 -1.47656,-0.82812c-0.14844,0 -0.3125,-0.09375 -0.36328,-0.20703c-0.125,-0.27735 -2.84375,-1.72266 -3.24609,-1.72266c-0.17579,0 -0.58594,-0.25 -0.91016,-0.55469c-0.32813,-0.30078 -0.75781,-0.55078 -0.95703,-0.55078c-0.19922,0 -0.36328,-0.125 -0.36328,-0.27734c0,-0.14844 -0.2461,-0.27344 -0.55078,-0.27344c-0.30469,0 -0.55079,-0.125 -0.55079,-0.27734c0,-0.15235 -0.25,-0.27735 -0.55078,-0.27735c-0.30468,0 -0.55468,-0.09765 -0.55468,-0.22265c0,-0.125 -0.4336,-0.39453 -0.96485,-0.60547c-0.53125,-0.20703 -0.96484,-0.47656 -0.96484,-0.60156c0,-0.125 -0.25,-0.22657 -0.55469,-0.22657c-0.30078,0 -0.55078,-0.12109 -0.55078,-0.27343c0,-0.15235 -0.1875,-0.27735 -0.41797,-0.27735c-0.40625,0 -0.69922,-0.11328 -1.99219,-0.78515c-0.33984,-0.17578 -0.80468,-0.31641 -1.03515,-0.31641c-0.23047,0 -0.41797,-0.125 -0.41797,-0.27734c0,-0.15235 -0.25,-0.27735 -0.55078,-0.27735c-0.30469,0 -0.55469,-0.125 -0.55469,-0.27343c0,-0.15235 -0.24609,-0.27735 -0.55078,-0.27735c-0.30469,0 -0.55078,-0.125 -0.55078,-0.27734c0,-0.15235 -0.375,-0.27344 -0.82813,-0.27344c-0.45703,0 -0.82812,-0.125 -0.82812,-0.27734c0,-0.15235 -0.25,-0.27735 -0.55469,-0.27735c-0.30078,0 -0.55078,-0.12109 -0.55078,-0.27343c0,-0.15235 -0.25,-0.27735 -0.55469,-0.27735c-0.30469,0 -0.77344,-0.10937 -1.03516,-0.24219c-0.26562,-0.13671 -0.85156,-0.39843 -1.30859,-0.58593c-0.45312,-0.1875 -1.04297,-0.44922 -1.30859,-0.58594c-0.26172,-0.13281 -0.66797,-0.24219 -0.89844,-0.24219c-0.23047,0 -0.63672,-0.11328 -0.90234,-0.25c-0.78516,-0.41406 -3.39063,-1.1289 -4.09766,-1.1289c-0.36328,0 -0.66016,-0.125 -0.66016,-0.27735c0,-0.15234 -0.43359,-0.27734 -0.96484,-0.27734c-0.53125,0 -0.96484,-0.1211 -0.96484,-0.27344c0,-0.15234 -0.375,-0.27734 -0.82813,-0.27734c-0.45703,0 -0.82812,-0.125 -0.82812,-0.27735c0,-0.14843 -0.4961,-0.27343 -1.10547,-0.27343c-0.60547,0 -1.10157,-0.125 -1.10157,-0.27735c0,-0.15234 -0.5,-0.27344 -1.10546,-0.27344c-0.60547,0 -1.10547,-0.125 -1.10547,-0.27734c0,-0.15234 -0.48828,-0.27734 -1.08594,-0.27734c-0.59766,0 -1.16406,-0.125 -1.25781,-0.27344c-0.09375,-0.15234 -0.72266,-0.27734 -1.39844,-0.27734c-0.67188,0 -1.22266,-0.125 -1.22266,-0.27735c0,-0.15234 -0.62109,-0.27344 -1.38281,-0.27344c-0.75781,0 -1.37891,-0.125 -1.37891,-0.27734c0,-0.15234 -0.73046,-0.27734 -1.64062,-0.27734c-0.90234,0 -1.71484,-0.125 -1.80859,-0.27344c-0.09375,-0.15234 -1.02344,-0.27734 -2.0625,-0.27734c-1.25391,0 -1.9336,-0.11329 -2.00782,-0.33985c-0.10937,-0.33594 -26.08984,-0.57422 -32.29297,-0.29687m58.58204,41.45312c1.01953,0.57031 32.37109,32.05078 32.84765,32.98828c0.44922,0.88282 0.64453,155.40235 0.19531,157.00782c-0.43359,1.55468 -2.23437,2.89843 -4.14453,3.08984c-3.96093,0.39844 -146.02734,0.02734 -146.75,-0.38281c-1.0039,-0.57032 -2.18359,-1.91016 -2.41797,-2.7461c-0.44921,-1.58984 -0.24218,-186.73828 0.20704,-187.60547c0.23046,-0.4414 0.76953,-1.14453 1.20703,-1.5625c0.7539,-0.73046 1.10547,-0.8789 2.65625,-1.1289c2.21093,-0.35547 115.54687,-0.01953 116.19922,0.33984m-110.89454,11.96875l0.07813,2.82813l103.64062,0.14062l0,-5.79687l-103.79687,0l0.07812,2.82812m113.65235,11.19531l0,6.95313l6.90234,0c3.79297,0 6.89844,-0.05078 6.89844,-0.10938c0,-0.11718 -11.5,-11.67187 -12.92188,-12.98437l-0.8789,-0.8125l0,6.95312m-113.52735,1.33985c-0.10156,0.10156 -0.18359,35.93359 -0.18359,79.625l0,79.4414l134.6875,0l-0.06641,-71.82812l-0.07031,-71.82813l-13.66406,-0.13671c-18,-0.1836 -17.10938,0.34765 -17.10938,-10.17579l0,-5.28125l-51.70703,0c-28.4375,0 -51.78515,0.08204 -51.88672,0.1836m77.59375,28.85156c0.41797,0.41797 0.45704,8.01953 0.04297,8.79297c-0.27343,0.51172 -0.67968,0.53516 -10.33984,0.53516c-9.65625,0 -10.0625,-0.02344 -10.33984,-0.53516c-0.30079,-0.56641 -0.40235,-7.94531 -0.11719,-8.6875c0.21875,-0.57031 20.1875,-0.67188 20.7539,-0.10547m24.72657,0.10547c0.36328,0.94531 0.18359,8.58984 -0.21094,8.91797c-0.26953,0.22265 -3.23438,0.28906 -10.41797,0.23828l-10.04297,-0.07031l-0.07422,-4.40625c-0.04297,-2.42188 -0.01562,-4.56641 0.0586,-4.76172c0.22656,-0.59375 20.46093,-0.51172 20.6875,0.08203m-62.72266,2.53125c1.89063,3.73437 3.01172,5.0625 3.375,4c0.08984,-0.26563 0.69922,-1.41406 1.35156,-2.55078l1.1875,-2.07031l3.09766,-0.07813c3.42187,-0.08594 3.71484,0.09766 2.54297,1.59375c-0.29688,0.37891 -0.54297,0.84766 -0.54688,1.03516c-0.0039,0.1914 -0.1289,0.34375 -0.28125,0.34375c-0.15234,0 -0.27734,0.1289 -0.27734,0.28125c0,0.15625 -0.43359,0.96093 -0.96484,1.79297c-3.39063,5.3164 -3.24219,4.91015 -2.27735,6.28906c0.34375,0.48437 0.69531,0.94531 0.78125,1.02344c0.08985,0.07421 0.82422,1.1289 1.63672,2.34375c0.80859,1.21484 1.57813,2.25 1.70313,2.30078c0.125,0.05078 0.22656,0.21093 0.22656,0.35547c0,0.14843 0.2539,0.53515 0.55859,0.86718c1.07422,1.15235 0.65625,1.4375 -2.21875,1.52735c-3.59765,0.10937 -3.50781,0.15625 -5.23828,-2.82813c-0.83594,-1.4375 -1.64453,-2.61719 -1.79687,-2.62109c-0.30079,-0.00781 -1.51563,1.74219 -1.51563,2.1914c0,0.15235 -0.09375,0.27735 -0.21094,0.27735c-0.11328,0 -0.36718,0.35937 -0.5625,0.80078c-0.88672,2.00781 -1.41797,2.26562 -4.51562,2.17578c-1.64063,-0.04687 -2.84766,-0.19922 -2.90625,-0.36719c-0.08203,-0.24609 2.40234,-4.32812 3.21875,-5.28906c0.15625,-0.18359 0.28515,-0.40234 0.28515,-0.48437c0,-0.08594 0.57032,-1.01172 1.26563,-2.0586l1.26953,-1.90625l-1.23437,-2.02344c-0.67579,-1.11328 -1.98438,-3.19531 -2.91016,-4.62109c-2.04297,-3.15234 -2.08984,-3.0625 1.58984,-3.0625c2.98047,0 2.98438,0.00391 3.36719,0.76172m38.15234,11.17578c0.46094,1.72266 0.1836,8.46094 -0.35937,8.75391c-0.33984,0.17968 -4.03125,0.28515 -10.09375,0.28515c-6.05859,0 -9.75391,-0.10547 -10.08984,-0.28515c-0.53907,-0.28907 -0.84375,-7.69532 -0.36719,-8.9375c0.14844,-0.38672 1.32812,-0.4375 10.45703,-0.4375l10.28906,0l0.16406,0.62109m24.57032,-0.18359c0.48047,1.2539 0.17187,8.64843 -0.3711,8.9414c-0.35547,0.19141 -3.92578,0.26563 -10.42187,0.21485l-9.87891,-0.07032l-0.14844,-9.52343l10.32813,0c9.16016,0 10.34375,0.05078 10.49219,0.4375m-49.57422,17.84765l-0.07422,4.76172l-9.66016,0.07813c-12.36718,0.09765 -10.90234,0.75781 -10.90234,-4.91407l0,-4.6875l20.71094,0l-0.07422,4.76172m25.0039,-4.14062c0.32032,1.20312 0.19141,8.35937 -0.15625,8.70703c-0.43359,0.43359 -19.58203,0.47656 -20.38671,0.04687c-0.54688,-0.29296 -0.82422,-7.03125 -0.35938,-8.7539l0.16406,-0.6211l20.57422,0l0.16406,0.6211m24.57032,-0.1836c0.48047,1.25391 0.17187,8.64844 -0.3711,8.94141c-0.35547,0.19141 -3.92578,0.26563 -10.42187,0.21484l-9.87891,-0.07031l-0.14844,-9.52344l10.32813,0c9.16016,0 10.34375,0.05079 10.49219,0.4375m-49.57422,17.84766l-0.07422,4.76172l-20.42578,0l-0.07422,-4.76172l-0.07813,-4.76172l20.72657,0l-0.07422,4.76172m25.0039,-4.14062c0.32032,1.20312 0.19141,8.35937 -0.15625,8.71093c-0.47656,0.47266 -20.11718,0.47266 -20.58984,0c-0.35156,-0.35156 -0.48047,-7.50781 -0.15625,-8.71093l0.16406,-0.6211l20.57422,0l0.16406,0.6211m24.5625,0c0.35938,1.32812 0.19141,8.40625 -0.20312,8.73437c-0.26953,0.22266 -3.23438,0.29297 -10.41797,0.24219l-10.04297,-0.07422l-0.14844,-9.52344l20.64844,0l0.16406,0.6211m-53.84765,42.32421c0.875,0.09766 1.66015,0.28907 1.74219,0.42188c0.08203,0.13281 0.44531,0.24219 0.80859,0.24219c0.35937,0 0.73437,0.125 0.82812,0.27734c0.09375,0.15234 0.37891,0.27734 0.63672,0.28516c1.57422,0.02734 1.58203,1.53906 0.03125,4.47265c-0.14062,0.26172 -0.25781,0.63672 -0.26172,0.82813c-0.0039,0.1914 -0.22656,0.63281 -0.49609,0.98437l-0.49219,0.64063l-1.42187,-0.5625c-3.40235,-1.33985 -6.6211,-1.35156 -7.98438,-0.02735c-0.92187,0.89454 -1.46875,1.66016 -1.46875,2.0586c0,0.21875 -0.10937,0.46484 -0.24609,0.54687c-2.03906,1.26172 -0.29688,10.33203 2.23047,11.59375c0.96484,0.48438 5.67969,0.61328 6.50781,0.17969c0.86719,-0.45312 3.42969,-1.12891 3.67969,-0.97266c0.13672,0.08204 0.25,1.57813 0.25,3.32032l0,3.16797l-1.1836,0.5039c-5.625,2.41406 -13.37109,1.22266 -17.10937,-2.625c-5.08203,-5.23437 -4.43359,-18.24609 1.11719,-22.38672c0.5664,-0.41797 1.08984,-0.84375 1.16797,-0.9414c0.07421,-0.09766 0.75781,-0.44922 1.51562,-0.78125c0.76172,-0.33594 1.59766,-0.72266 1.85938,-0.85938c0.26562,-0.14062 0.88671,-0.26562 1.38281,-0.27344c0.49609,-0.01171 1.14844,-0.13281 1.45312,-0.27343c0.53907,-0.2461 2.2461,-0.1875 5.45313,0.17968m22.35547,0c0.8789,0.10157 1.66015,0.28907 1.74218,0.42188c0.08204,0.13281 0.51563,0.24219 0.96094,0.24219c0.44922,0 0.8125,0.125 0.8125,0.27734c0,0.15234 0.28125,0.27734 0.6211,0.28516c1.23828,0.01562 1.84765,0.86328 1.34375,1.85547c-0.13282,0.26562 -0.39844,0.85156 -0.58594,1.30859c-0.1875,0.45703 -0.44922,1.04297 -0.58203,1.30859c-0.13672,0.26172 -0.2461,0.60938 -0.2461,0.76563c0,0.16015 -0.1914,0.58203 -0.42187,0.9414l-0.42578,0.64844l-1.99219,-0.70312c-3.90234,-1.3711 -7.37109,-1.11328 -7.37109,0.55078c0,0.82812 0.59375,1.25 4.54296,3.24219c5.85938,2.96093 7.32422,4.72656 7.32422,8.83984c0,1.21875 -0.10937,2.42969 -0.24218,2.69531c-0.13282,0.26172 -0.41407,0.85156 -0.6211,1.3086c-2.23047,4.89062 -13.26172,6.99218 -18.66406,3.55468c-0.67188,-0.42968 -1,-7.28125 -0.34766,-7.28125c0.15235,0 1.05078,0.29297 2.00391,0.65625c4.76953,1.8125 8.6875,1.97657 9.57031,0.39844c0.67969,-1.20703 -0.05078,-1.88281 -4.24609,-3.93359c-5.83985,-2.85547 -7.33203,-4.73828 -7.31641,-9.2461c0.00781,-3.29297 1.58985,-5.87109 4.33594,-7.0664c0.57031,-0.25 1.25391,-0.56641 1.51953,-0.70703c0.26172,-0.13672 0.88281,-0.26172 1.37891,-0.27735c0.49609,-0.01562 1.21093,-0.13281 1.58984,-0.26562c0.67578,-0.23047 2.14063,-0.17969 5.31641,0.17968m15.8125,0.8711c0.09375,0.41797 0.27343,1.00781 0.39843,1.3125c0.12891,0.30078 0.30469,0.89062 0.39454,1.30859c0.08593,0.41797 0.23046,1.10156 0.3164,1.51953c0.08985,0.41797 0.26563,1.00782 0.39453,1.3125c0.12891,0.30078 0.29297,0.85938 0.3711,1.23828c0.07422,0.38282 0.39843,1.6836 0.72265,2.89844c0.32422,1.21485 0.9375,3.57422 1.36328,5.2461c0.8125,3.1875 0.86719,3.20703 1.40625,0.55078c0.1836,-0.91016 0.42969,-1.96485 0.55079,-2.34375c0.20312,-0.65625 0.42968,-1.50391 1.13281,-4.21094c0.16797,-0.64453 0.41797,-1.45703 0.55469,-1.80859c0.13671,-0.34766 0.24609,-0.92969 0.24609,-1.29297c0,-0.36328 0.125,-0.73828 0.27734,-0.83203c0.14844,-0.09375 0.27344,-0.52735 0.27344,-0.96485c0,-0.4375 0.125,-0.87109 0.27734,-0.96484c0.15235,-0.09375 0.27735,-0.51172 0.27735,-0.92969c0,-0.41406 0.11328,-0.875 0.25,-1.01562c0.14062,-0.14454 0.29687,-0.57422 0.34765,-0.95313l0.08985,-0.69141l8.83203,0l-0.09375,0.69141c-0.05469,0.37891 -0.90234,3.17188 -1.89063,6.21094c-0.98828,3.03515 -2.04687,6.32422 -2.35156,7.3125c-0.30469,0.98437 -0.66797,2.00781 -0.80078,2.27344c-0.13672,0.26171 -0.24609,0.70312 -0.24609,0.98046c0,0.27344 -0.10157,0.61719 -0.22657,0.76172c-0.125,0.14453 -0.38671,0.82032 -0.57812,1.50391c-0.19531,0.68359 -0.46484,1.45703 -0.60156,1.72266c-0.13672,0.26171 -0.25,0.71875 -0.25,1.01562c0,0.29688 -0.1211,0.61719 -0.27344,0.71094c-0.15234,0.09375 -0.27734,0.46875 -0.27734,0.82812c0,0.36328 -0.125,0.73438 -0.27344,0.82813c-0.15235,0.09375 -0.27735,0.46875 -0.27735,0.82812c0,0.36328 -0.125,0.73438 -0.27734,0.82813c-0.15234,0.09375 -0.27344,0.44922 -0.27344,0.78906c0,1.17969 -0.41015,1.28125 -5.17187,1.28125c-4.05078,0 -4.52344,-0.05078 -4.65625,-0.48437c-0.08203,-0.26563 -0.26563,-0.69922 -0.40625,-0.96094c-0.14063,-0.26563 -0.25391,-0.72266 -0.25391,-1.01953c0,-0.29688 -0.125,-0.61719 -0.27734,-0.71094c-0.15235,-0.09375 -0.27735,-0.46484 -0.27735,-0.82813c0,-0.35937 -0.12109,-0.73046 -0.27343,-0.82421c-0.15235,-0.09766 -0.27735,-0.46875 -0.27735,-0.82813c0,-0.36328 -0.125,-0.73437 -0.27734,-0.82812c-0.15234,-0.09375 -0.27344,-0.46875 -0.27344,-0.82813c0,-0.36328 -0.125,-0.73437 -0.27734,-0.82812c-0.15235,-0.09375 -0.27735,-0.41407 -0.27735,-0.71094c0,-0.29688 -0.11328,-0.75391 -0.25,-1.01953c-0.21093,-0.39844 -1.69531,-4.92578 -5.49609,-16.76172c-0.69922,-2.17969 -0.91797,-2.07031 4.10156,-2.07031l4.39453,0l0.16407,0.75781"/>
    <path fill="rgb(45.490196%,54.901961%,58.431373%)" fill-rule="evenodd" d="m93.92969,41.62239c15.91406,0.03906 41.87109,0.03906 57.68359,0c15.81641,-0.03906 2.79297,-0.07031 -28.92969,-0.07031c-31.72656,0 -44.66406,0.03125 -28.7539,0.07031m-30.48828,0.64062l-0.65235,0.56641l0.82813,-0.48437c1.08984,-0.63672 1.10547,-0.65235 0.76562,-0.65235c-0.16015,0 -0.58203,0.25781 -0.9414,0.57031m117.47656,-0.29296c0.09375,0.15234 0.30859,0.27343 0.48047,0.27343c0.17187,0 0.57422,0.21875 0.89453,0.48438c0.32031,0.26562 0.23437,0.14062 -0.19141,-0.27735c-0.75,-0.73046 -1.53515,-1.05078 -1.18359,-0.48046m4.40625,3.80859c0.90625,0.94141 1.69922,1.71094 1.75781,1.71094c0.27344,0 -1.96094,-2.35938 -2.86328,-3.01953c-0.29687,-0.21875 0.19922,0.37109 1.10547,1.30859m-114.89063,4.80078c-0.65234,0.65234 -0.39453,6.29297 0.28516,6.29297c0.17188,0 0.15625,-0.15234 -0.03906,-0.38672c-0.20703,-0.25 -0.29297,-1.33594 -0.24219,-3.10156l0.08203,-2.72266l104.32813,0l0.07812,2.72266c0.05469,1.91015 -0.02734,2.84375 -0.27734,3.14844c-0.29688,0.35937 -0.28516,0.40625 0.05859,0.29296c0.53516,-0.17578 0.75781,-5.58593 0.25391,-6.1914c-0.44141,-0.53125 -103.9961,-0.58203 -104.52735,-0.05469m126.48438,6.79297c1.05859,1.08984 1.97266,1.98437 2.03516,1.98437c0.28906,0 -2.42969,-2.83203 -3.42188,-3.57031c-0.29687,-0.21875 0.32813,0.49219 1.38672,1.58594m-13.09766,0.25781c0.00391,0.40235 0.04688,0.41797 0.25782,0.08203c0.19921,-0.3125 0.85546,0.1836 3.10156,2.33985l2.84765,2.74218l-2.7539,-2.82421c-2.71875,-2.78125 -3.46094,-3.28516 -3.45313,-2.33985m11.45313,10.5586l3.58594,3.72656l-7.29688,0.07422c-5.64062,0.05468 -7.35156,-0.00782 -7.54297,-0.27735c-0.18359,-0.26172 -0.21875,-0.24609 -0.13281,0.06641c0.15625,0.57031 15.10937,0.77344 15.10937,0.20703c0,-0.19531 -1.64453,-1.96875 -3.65234,-3.9375l-3.65234,-3.58594l3.58203,3.72657m-125,-2.04688c-0.35156,0.91016 -0.1875,158.96094 0.16015,159.3125c0.48438,0.48047 134.64844,0.48047 135.13282,0c0.2539,-0.25781 0.3125,-16.57422 0.26172,-72.10547l-0.07032,-71.77344l-0.13672,71.89844l-0.14062,71.89844l-134.96094,0l-0.07031,-79.46094c-0.05078,-58.50781 0.01172,-79.55859 0.23828,-79.83203c0.19531,-0.23437 0.20703,-0.375 0.03125,-0.375c-0.15234,0 -0.35547,0.19531 -0.44531,0.4375m104.35937,-0.11719c0.23828,0.28907 0.36328,2.13672 0.42188,6.1875l0.08594,5.77344l-0.00782,-6.04687c-0.00781,-5.12891 -0.07422,-6.07032 -0.42578,-6.1875c-0.33594,-0.10938 -0.35156,-0.0586 -0.07422,0.27343m33.875,2.9375c0.90625,0.94141 1.69922,1.71094 1.76172,1.71094c0.28516,0 -1.85156,-2.24609 -2.8789,-3.01953c-0.29297,-0.21875 0.21093,0.37109 1.11718,1.30859m6.08203,84.3711c0,42.35547 0.03125,59.63672 0.07032,38.41406c0.03906,-21.22656 0.03906,-55.87891 0,-77.00391c-0.03907,-21.1289 -0.07032,-3.76172 -0.07032,38.58985m-39.07421,-74.48047c0.33593,0.70312 1.85546,2.03125 2.32031,2.03125c0.17578,0 -0.0625,-0.23438 -0.52735,-0.51953c-0.46875,-0.28516 -1.1289,-0.875 -1.46484,-1.3086c-0.38281,-0.49609 -0.50781,-0.57031 -0.32812,-0.20312m7.75,2.23047c12.39453,0.19531 22.28906,0.19531 22.17187,0.00781c-0.07031,-0.11328 -6.17187,-0.17969 -13.56641,-0.14453c-7.39062,0.03515 -11.26171,0.09765 -8.60546,0.13672m-55.29297,14.0625c-0.23047,0.23047 -0.2461,7.89062 -0.01563,8.48437c0.17969,0.46875 20.25391,0.69922 20.25391,0.23047c0,-0.11328 -4.5,-0.20703 -10.00391,-0.20703l-10.0039,0l0,-4.34766c0,-2.39062 -0.01172,-4.34375 -0.02344,-4.34375c-0.01172,0 -0.10547,0.08203 -0.20703,0.1836m44.66406,4.17578l0,4.33203l-10.07422,0.14453l-10.07422,0.14844l10.21485,-0.00781l10.21093,-0.00782l0.07813,-4.25781c0.03906,-2.33984 -0.02344,-4.35156 -0.14063,-4.47266c-0.11718,-0.11718 -0.21484,1.73829 -0.21484,4.1211m-62.77734,-1.73828c0,0.15234 0.2539,0.58593 0.5664,0.96484c0.375,0.45703 0.46875,0.50391 0.27735,0.14063c-0.46485,-0.90235 -0.84766,-1.40235 -0.84375,-1.10547m5.92187,0.96484c-0.23437,0.45703 -0.36719,0.82813 -0.28906,0.82813c0.07422,0 0.33203,-0.3711 0.5664,-0.82813c0.23438,-0.45312 0.36719,-0.82812 0.28907,-0.82812c-0.07422,0 -0.33203,0.375 -0.56641,0.82812m-10.60547,0.48438c0.70313,1.17187 1.08594,1.65234 1.08594,1.35937c0,-0.25 -1.41406,-2.39453 -1.57813,-2.39453c-0.07031,0 0.15235,0.46484 0.49219,1.03516m5.78125,0.55078c0.00391,0.11328 0.26172,0.51953 0.57031,0.89843l0.5625,0.6875l-0.4375,-0.89453c-0.41796,-0.85156 -0.70703,-1.14453 -0.69531,-0.6914m9.20703,0.96484c-0.94922,1.61328 -1.01172,1.75 -0.52734,1.17578c0.5625,-0.66797 1.04297,-1.51953 0.86328,-1.51953c-0.07031,0 -0.22266,0.15625 -0.33594,0.34375m-13.46484,0.89844c0.25,0.3789 0.49609,0.6914 0.55078,0.6914c0.05859,0 -0.03906,-0.3125 -0.21094,-0.6914c-0.17578,-0.37891 -0.42187,-0.69141 -0.55468,-0.69141c-0.12891,0 -0.03516,0.3125 0.21484,0.69141m7.26172,0.3164l-0.6211,1.00782l-0.64062,-0.80078c-0.73047,-0.91407 -0.86328,-0.70313 -0.19922,0.3164c0.61719,0.94141 0.97266,0.85156 1.70313,-0.42578c0.78906,-1.38281 0.60156,-1.45703 -0.24219,-0.09766m4.33594,1.89063c-0.24219,0.37891 -0.64454,1.03125 -0.89063,1.44922l-0.44922,0.76172l0.5586,-0.67188c0.65234,-0.79687 1.52343,-2.22656 1.35156,-2.22656c-0.07031,0 -0.32422,0.30859 -0.57031,0.6875m-8.86329,2.01953c0.48047,0.98438 0.44532,1.10156 -1.09765,3.45703c-0.26563,0.40235 -0.42578,0.73438 -0.35156,0.73438c0.23437,0 2.14062,-3.01563 2.13281,-3.375c-0.00391,-0.19141 -0.25781,-0.66016 -0.56641,-1.03907l-0.5625,-0.6914l0.44531,0.91406m7.44922,2.12109c1.14453,1.85938 2.90235,4.39844 2.90235,4.19532c0,-0.25 -2.6875,-4.32813 -3.125,-4.7461c-0.16016,-0.15234 -0.0586,0.09766 0.22265,0.55078m11.03907,1.3125c-0.08594,0.33985 -0.11719,2.35938 -0.07422,4.48438l0.07812,3.86328l10.21094,0.00781l10.21484,0.00391l-10.16406,-0.07813l-10.16016,-0.07812l0.08594,-4.41406c0.08985,-4.51953 0.07422,-4.86328 -0.1914,-3.78907m44.80468,3.80469l0.08594,4.39844l-10.16016,0.07812l-10.16406,0.07813l10.21485,-0.00391l10.21093,-0.00781l0.07813,-4.25781c0.03906,-2.33985 -0.02344,-4.35156 -0.14063,-4.46875c-0.11718,-0.1211 -0.17578,1.76172 -0.125,4.18359m-60.07031,-1.92969c-0.32812,0.35157 -0.59766,0.77344 -0.59766,0.9375c0,0.16016 0.28516,-0.0664 0.63672,-0.5039l0.63672,-0.79688l0.91016,1.41797c0.5,0.77735 0.96484,1.41797 1.03125,1.41797c0.17578,0 -0.73438,-1.51172 -1.4375,-2.39062l-0.57813,-0.72657l-0.60156,0.64453m-2.38281,3.73829c-0.25781,0.39062 -0.42188,0.76171 -0.36328,0.8164c0.05859,0.0586 0.32422,-0.26172 0.58984,-0.71094c0.59375,-1.00781 0.41797,-1.08984 -0.22656,-0.10546m-5.92188,0.49218c-0.3164,0.50782 -0.57422,1.00782 -0.57422,1.10157c0,0.25 5.73438,0.21875 5.89063,-0.03125c0.07031,-0.11329 -1.17969,-0.16407 -2.78125,-0.11329l-2.91016,0.09766l0.61328,-0.99219c0.33594,-0.54687 0.55079,-0.99218 0.47266,-0.99218c-0.07422,0 -0.39453,0.41796 -0.71094,0.92968m12.04297,0.24219l0.51953,0.89844l2.95313,0.07812c2.75781,0.07032 3.51172,-0.11718 2.63281,-0.66015c-0.19531,-0.1211 -0.24219,-0.07422 -0.12109,0.125c0.14453,0.23047 -0.54688,0.3164 -2.57032,0.3164l-2.76953,0l-0.42968,-0.82812c-0.23438,-0.45313 -0.4961,-0.82813 -0.58204,-0.82813c-0.08984,0 0.07813,0.40625 0.36719,0.89844m-13.27734,6.99219c-0.09375,0.23828 -0.14453,2.25781 -0.10938,4.48437l0.05469,4.04688l0.15234,-4.27735l0.14844,-4.27734l10.07422,-0.14453l10.07422,-0.14063l-10.11328,-0.0664c-9.00781,-0.05469 -10.13281,-0.01563 -10.28125,0.375m24.83984,0c-0.09375,0.23828 -0.14453,2.25781 -0.10937,4.48437l0.05468,4.04688l0.15235,-4.27735l0.14844,-4.27734l10.0039,0c5.50391,0 10.00391,-0.09375 10.00391,-0.20703c0,-0.46484 -20.07422,-0.23828 -20.25391,0.23047m34.60547,-0.16797l10.07422,0.14453l0.07812,4.20703l0.07422,4.20313l-10.14843,0.07812l-10.15235,0.07813l10.21485,-0.00391l10.21093,-0.00781l0.07813,-3.86328c0.04297,-2.125 0.01172,-4.14453 -0.07422,-4.48438l-0.15234,-0.62109l-10.13672,0.0625l-10.14063,0.0664l10.07422,0.14063m-39.12891,4.35156l-0.0625,4.20313l-10.0039,0.07812l-10.00391,0.07422l10.01172,0.06641c7.99219,0.05078 10.04297,-0.00782 10.15234,-0.29297c0.07422,-0.19531 0.09766,-2.15235 0.05079,-4.34766l-0.08594,-3.98828l-0.0586,4.20703m9.80469,4.41797c2.76953,0.04297 7.30469,0.04297 10.07422,0c2.76953,-0.04687 0.50391,-0.08203 -5.03516,-0.08203c-5.54296,0 -7.80859,0.03516 -5.03906,0.08203m-30.15625,5.10547c-0.08594,0.34375 -0.11719,2.35937 -0.07422,4.48437l0.07813,3.86329l20.42578,0l0.00781,-4.20704l0.01172,-4.21093l-0.17187,8.28125l-20.14844,0l0.07422,-4.20703l0.07812,-4.21094l10.07422,-0.14453l10.07422,-0.14063l-10.14063,-0.0664l-10.13671,-0.0625l-0.15235,0.62109m24.83985,0c-0.08594,0.34375 -0.11719,2.35937 -0.07422,4.48437l0.07812,3.86329l10.21094,0.00781l10.21484,0.0039l-10.15234,-0.07812l-10.14844,-0.07813l0.07422,-4.20312l0.07813,-4.20703l10.0039,0c5.50391,0 10.00391,-0.09375 10.00391,-0.20703c0,-0.11328 -4.53125,-0.20703 -10.06641,-0.20703l-10.07031,0l-0.15234,0.62109m24.70703,-0.41406c0,0.11328 4.5,0.20703 10.0039,0.20703l10.00391,0l0.07812,4.20703l0.07422,4.20312l-10.14843,0.07813l-10.15235,0.07812l10.21485,-0.0039l10.21093,-0.00781l0.07813,-3.86329c0.04297,-2.125 0.01172,-4.14062 -0.07422,-4.48437l-0.15234,-0.62109l-10.07032,0c-5.53515,0 -10.0664,0.09375 -10.0664,0.20703m-38.29688,42.77734c0.875,0.05469 2.30078,0.05469 3.17578,0c0.8711,-0.05469 0.15625,-0.10156 -1.58593,-0.10156c-1.7461,0 -2.46094,0.04687 -1.58985,0.10156m22.35547,0c0.875,0.05469 2.30078,0.05469 3.17578,0c0.8711,-0.05469 0.16016,-0.10156 -1.58594,-0.10156c-1.74609,0 -2.46093,0.04687 -1.58984,0.10156m-25.59766,0.34766c-0.53125,0.23047 -0.53125,0.23828 0.05079,0.25781c0.33593,0.00781 0.68359,-0.10547 0.77734,-0.25781c0.20312,-0.32422 -0.06641,-0.32422 -0.82813,0m8.96875,-0.01172c0.23047,0.15234 0.65235,0.28125 0.94532,0.28515c0.70703,0.00391 0.48437,-0.15234 -0.53125,-0.3789c-0.60157,-0.13672 -0.71485,-0.11328 -0.41407,0.09375m22.35547,0c0.23047,0.15234 0.65235,0.28125 0.94532,0.28515c0.70703,0.00391 0.48437,-0.15234 -0.53125,-0.3789c-0.60157,-0.13672 -0.71485,-0.11328 -0.41407,0.09375m-18.74218,1.16797c0.24218,0.19922 0.3789,0.53515 0.30859,0.74609c-0.07813,0.23047 -0.00391,0.30859 0.18359,0.19141c0.48438,-0.30078 0.3711,-0.66407 -0.30859,-0.9961c-0.52734,-0.2539 -0.55469,-0.24609 -0.18359,0.0586m22.54296,0.01172c0.45313,0.21875 0.58204,0.46093 0.47266,0.8789c-0.14844,0.54688 -0.14062,0.55078 0.17188,0.04688c0.33593,-0.53907 -0.25391,-1.29297 -0.97657,-1.2461c-0.16015,0.00782 -0.01172,0.15235 0.33203,0.32032m-40.10546,1.9375l-1.08985,1.17187l1.17188,-1.08984c1.08984,-1.01563 1.30078,-1.25391 1.08984,-1.25391c-0.04297,0 -0.57031,0.52734 -1.17187,1.17188m60.17968,0.48437c-0.10156,0.32422 -0.125,0.65234 -0.05078,0.73047c0.07813,0.07422 0.22266,-0.12891 0.32813,-0.45703c0.10156,-0.32422 0.125,-0.65625 0.05078,-0.73047c-0.07813,-0.07422 -0.22266,0.12891 -0.32813,0.45703m-8.3789,0c0,0.22656 0.10937,0.66016 0.23828,0.96484c0.14844,0.34766 0.23828,0.39844 0.23828,0.13672c0,-0.22656 -0.10938,-0.66015 -0.23828,-0.96484c-0.14844,-0.34766 -0.23828,-0.39844 -0.23828,-0.13672m-29.94922,1.52734c-0.09375,0.2461 -0.16016,0.78125 -0.14063,1.1836c0.02344,0.55078 0.08594,0.46094 0.2461,-0.36719c0.23047,-1.17187 0.17968,-1.55859 -0.10547,-0.81641m9.41797,0.32813c0.49218,0.05859 1.30078,0.05859 1.79297,0c0.49609,-0.0625 0.08984,-0.11328 -0.89454,-0.11328c-0.98828,0 -1.39062,0.05078 -0.89843,0.11328m-24.35547,0.58203c-0.45703,0.28125 -1.01563,0.73828 -1.24219,1.02344c-0.25391,0.3164 -0.03906,0.23437 0.55859,-0.21875c0.53516,-0.40235 1.28125,-0.85547 1.65625,-1.00391c0.375,-0.15234 0.4961,-0.28125 0.26954,-0.28906c-0.23047,-0.00781 -0.78907,0.21094 -1.24219,0.48828m4.96484,-0.23047c0.30469,0.12891 0.73828,0.23828 0.96875,0.23828c0.26172,0 0.20703,-0.08984 -0.14062,-0.23828c-0.30078,-0.13281 -0.73828,-0.23828 -0.96485,-0.23828c-0.26172,0 -0.21093,0.08984 0.13672,0.23828m17.52344,0.14453c-0.51563,0.6211 -0.21875,0.69141 0.39844,0.09375c0.28906,-0.28125 0.39843,-0.51562 0.23828,-0.51562c-0.16016,0 -0.44531,0.1914 -0.63672,0.42187m5.38672,-0.14453c0.30469,0.12891 0.73828,0.23828 0.96484,0.23828c0.26172,0 0.21094,-0.08984 -0.13672,-0.23828c-0.30468,-0.13281 -0.73828,-0.23828 -0.96484,-0.23828c-0.26172,0 -0.21094,0.08984 0.13672,0.23828m-13.08985,3.0586c0.01172,0.51953 0.125,1.1914 0.25782,1.49609c0.15234,0.35547 0.18359,0.05859 0.07812,-0.82813c-0.1875,-1.64062 -0.36328,-1.98828 -0.33594,-0.66796m-25.24218,0.67578c-0.09375,0.25 -0.15625,0.84375 -0.13672,1.32422c0.03125,0.72656 0.07031,0.66796 0.24219,-0.36719c0.21875,-1.32031 0.17968,-1.69141 -0.10547,-0.95703m62.0664,0.1289c-0.10156,0.32813 -0.125,0.65625 -0.05078,0.73047c0.07813,0.07813 0.22266,-0.1289 0.32813,-0.45312c0.10156,-0.32813 0.125,-0.65625 0.05078,-0.73438c-0.07813,-0.07422 -0.22266,0.12891 -0.32813,0.45703m-5.09765,0.27735c0,0.22656 0.12109,0.59765 0.26953,0.82812c0.23828,0.36719 0.26562,0.36719 0.26562,0c0,-0.23047 -0.12109,-0.60156 -0.26562,-0.82812c-0.23828,-0.36719 -0.26953,-0.36719 -0.26953,0m12.55078,0.55078c-0.10156,0.32812 -0.125,0.65625 -0.05078,0.73047c0.07812,0.07812 0.22265,-0.12891 0.32812,-0.45313c0.10156,-0.32812 0.125,-0.65625 0.05078,-0.73437c-0.07812,-0.07422 -0.22265,0.1289 -0.32812,0.45703m-62.06641,0.14844c-0.09375,0.24609 -0.15625,0.84375 -0.13672,1.32421c0.02735,0.72657 0.07032,0.66407 0.24219,-0.36718c0.21875,-1.32032 0.17578,-1.69141 -0.10547,-0.95703m29.35938,-0.03125c0,0.1914 1.73437,1 1.86718,0.87109c0.0625,-0.06641 -0.26171,-0.31641 -0.72265,-0.55469c-0.85938,-0.44531 -1.14453,-0.52344 -1.14453,-0.3164m-11.03125,0.64062c0.0039,0.11328 0.25781,0.51953 0.5664,0.89844l0.5625,0.6914l-0.4375,-0.89843c-0.41406,-0.85157 -0.70703,-1.14063 -0.6914,-0.69141m35.73437,0.34766c-0.10547,0.32422 -0.125,0.65234 -0.05078,0.73047c0.07813,0.07421 0.22266,-0.12891 0.32813,-0.45704c0.10156,-0.32421 0.125,-0.65625 0.05078,-0.73046c-0.07813,-0.07422 -0.22657,0.1289 -0.32813,0.45703m-3.96484,0.27343c0,0.23047 0.10937,0.66407 0.23828,0.96875c0.14844,0.34766 0.23828,0.39844 0.23828,0.13672c0,-0.22656 -0.10547,-0.66406 -0.23828,-0.96484c-0.14844,-0.34766 -0.23828,-0.39844 -0.23828,-0.14063m11.41797,0.27735c-0.10547,0.32812 -0.12891,0.65625 -0.05078,0.73047c0.07421,0.07812 0.22265,-0.12891 0.32421,-0.45313c0.10547,-0.32812 0.12891,-0.65625 0.05079,-0.73437c-0.07422,-0.07422 -0.22266,0.1289 -0.32422,0.45703m-69.32422,1.93359c0,1.13672 0.05078,1.60156 0.10937,1.03516c0.0586,-0.57031 0.0586,-1.50391 0,-2.07031c-0.05859,-0.57032 -0.10937,-0.10547 -0.10937,1.03515m41.03125,-1.46484c0.38281,0.26953 1.11328,0.89844 1.625,1.39844c0.51562,0.5 0.98437,0.86328 1.04297,0.80078c0.16015,-0.16016 -1.96094,-2.02344 -2.71094,-2.37891c-0.60156,-0.28516 -0.59766,-0.26953 0.04297,0.17969m-12.70703,1.30859c0.21484,0.25781 0.76953,0.66016 1.23437,0.89844c1.05078,0.53516 0.88281,0.33594 -0.53125,-0.625c-0.59765,-0.40625 -0.91406,-0.52734 -0.70312,-0.27344m30.13672,0.15625c0,0.22656 0.10546,0.66016 0.23437,0.96485c0.15234,0.34765 0.23828,0.39843 0.23828,0.13671c0,-0.22656 -0.10547,-0.66015 -0.23828,-0.96484c-0.14844,-0.34766 -0.23437,-0.39844 -0.23437,-0.13672m-50.82032,1.95313c0.00391,0.51953 0.11719,1.125 0.25782,1.34375c0.16406,0.25781 0.19921,-0.03516 0.09765,-0.82813c-0.19531,-1.52344 -0.35937,-1.76172 -0.35547,-0.51562m53.125,-0.02344c-0.10156,0.47656 -0.125,0.92969 -0.05078,1.00781c0.07422,0.07422 0.22266,-0.2539 0.32813,-0.73047c0.10547,-0.47656 0.1289,-0.92968 0.05078,-1.00781c-0.07422,-0.07422 -0.22266,0.25391 -0.32813,0.73047m-1.74609,0.27734c0.01562,0.71485 0.44922,1.89453 0.45703,1.24219c0.00391,-0.30469 -0.09766,-0.80078 -0.22656,-1.10547c-0.14844,-0.33594 -0.23438,-0.39062 -0.23047,-0.13672m-26.20703,0.15235c0.26562,0.26172 2.97656,1.5039 2.97656,1.35937c0,-0.14453 -1.38672,-0.87109 -2.40625,-1.26172c-0.41797,-0.15625 -0.67187,-0.19922 -0.57031,-0.09765m-32.58594,0.76953c-0.04297,0.80859 0.75,3.89844 0.94922,3.69922c0.0625,-0.0625 -0.06641,-0.72266 -0.28516,-1.46875c-0.21484,-0.7461 -0.44531,-1.73047 -0.50781,-2.1875l-0.11328,-0.82813l-0.04297,0.78516m44.14063,-0.3711c0.00781,0.22657 0.125,0.66407 0.2539,0.96485l0.23828,0.55469l0.01563,-0.55469c0.00781,-0.30078 -0.10547,-0.73828 -0.25391,-0.96485c-0.23828,-0.36718 -0.26562,-0.36718 -0.2539,0m-8.02735,1.46094c0.23047,0.19922 0.58594,0.53906 0.79297,0.76172c0.32422,0.33984 0.33594,0.31641 0.07813,-0.1875c-0.16797,-0.32422 -0.52344,-0.66797 -0.79297,-0.76172c-0.42578,-0.14844 -0.4375,-0.125 -0.07813,0.1875m23.95313,0.15235c-0.10157,0.36718 -0.3086,0.57031 -0.47266,0.46875c-0.17187,-0.10547 -0.29687,0.05468 -0.29687,0.38671c0,0.3125 0.12109,0.56641 0.26953,0.56641c0.3789,0 0.88672,-1.04687 0.77343,-1.60156c-0.07421,-0.35547 -0.14062,-0.3125 -0.27343,0.17969m-51.54297,1.03125c0.01172,0.33593 0.55078,0.98828 1.23437,1.48437c0.30078,0.22266 0.17969,-0.02344 -0.27734,-0.55078c-0.45703,-0.52344 -0.85938,-1.00391 -0.89844,-1.07031c-0.03515,-0.0625 -0.0625,0 -0.05859,0.13672m16.65625,3.84375c0,1.82031 0.04687,2.52734 0.10156,1.57421c0.05078,-0.95312 0.05078,-2.44531 -0.00391,-3.3125c-0.05468,-0.86718 -0.09765,-0.08593 -0.09765,1.73829m11.40625,-2.1836c-0.27344,0.36719 -0.39844,0.66406 -0.27344,0.66406c0.23828,0 1,-1.10546 0.85547,-1.24218c-0.04688,-0.04688 -0.30859,0.21484 -0.58203,0.57812m7.6914,-0.00781c-0.10156,0.40625 -0.13281,0.78906 -0.0664,0.85547c0.0625,0.0664 0.19922,-0.21485 0.30078,-0.61719c0.10156,-0.40625 0.13281,-0.78906 0.06641,-0.85547c-0.0625,-0.0625 -0.19922,0.21485 -0.30079,0.61719m-23.66796,2.38672c0.07421,2.4375 0.02343,2.86719 -0.39844,3.17187c-0.26563,0.19532 -0.36328,0.35547 -0.21094,0.35547c0.73047,0 0.93359,-0.76562 0.93359,-3.5039c0,-1.5625 -0.09375,-2.84375 -0.20703,-2.84375c-0.11328,0 -0.16797,1.26953 -0.11718,2.82031m32.35937,-2.62891c0.0625,0.71875 0.49609,1.32422 0.51563,0.72266c0.00781,-0.33203 -0.10547,-0.67969 -0.25782,-0.77344c-0.15234,-0.09375 -0.26562,-0.07031 -0.25781,0.05078m-35.76172,0.63672c-0.53125,0.23047 -0.52734,0.23828 0.05469,0.25781c0.33203,0.01172 0.67969,-0.10547 0.77344,-0.25781c0.20312,-0.32422 -0.06641,-0.32422 -0.82813,0m11.8711,0c0.09375,0.15234 0.4414,0.26953 0.77343,0.25781c0.58203,-0.01953 0.58594,-0.02734 0.05469,-0.25781c-0.76172,-0.32422 -1.03125,-0.32422 -0.82812,0m-16.87891,0.61719c0.39844,0.2539 2.91016,0.23828 3.57031,-0.02344c0.27344,-0.10547 -0.49219,-0.19141 -1.69531,-0.1875c-1.20703,0.00391 -2.05078,0.10156 -1.875,0.21094m19.32031,0c0.17188,0.11328 1.0625,0.20312 1.97266,0.20312c0.91015,0 1.80078,-0.08984 1.97265,-0.20312c0.17579,-0.10938 -0.71484,-0.20313 -1.97265,-0.20313c-1.26172,0 -2.15235,0.09375 -1.97266,0.20313m-29.51953,0.90234c0.21875,0.45313 0.875,1.26953 1.45313,1.8086c1.87109,1.73437 2.21484,1.8125 0.50781,0.11328c-0.91016,-0.90625 -1.8125,-1.89453 -2.00391,-2.19922c-0.19531,-0.30469 -0.17187,-0.17969 0.04297,0.27734m51.52344,-0.5c0.05859,0.71875 0.49219,1.32422 0.51172,0.72266c0.01172,-0.33203 -0.10547,-0.67969 -0.25782,-0.77344c-0.15234,-0.09375 -0.26562,-0.07031 -0.2539,0.05078m-10.5625,1.67188c-0.52735,0.61328 -0.84766,1.17187 -0.67188,1.17187c0.07422,0 0.40235,-0.37109 0.72657,-0.82812c0.64062,-0.90235 0.60937,-1.11719 -0.05469,-0.34375m21.20703,2.96875c-0.14844,0.38281 -0.75391,0.42968 -4.5625,0.35547c-2.41797,-0.04297 -4.33594,0.01171 -4.26563,0.125c0.26954,0.4375 8.5586,0.23828 8.9336,-0.21094c0.1914,-0.23438 0.28515,-0.48828 0.20312,-0.56641c-0.07812,-0.07812 -0.21875,0.05469 -0.30859,0.29688m-54.96484,0.67578c0.53125,0.23828 2.00781,0.39844 1.77343,0.1875c-0.0625,-0.05469 -0.61328,-0.17578 -1.21875,-0.26953c-0.76953,-0.11719 -0.9375,-0.09375 -0.55468,0.08203m6.48828,0.01172l-0.69141,0.22265l0.69141,0.00782c0.3789,0.0039 0.9375,-0.09766 1.24218,-0.23047l0.55079,-0.23438l-0.55079,0.00781c-0.30468,0.00391 -0.86328,0.10547 -1.24218,0.22657m13.52343,0c0.37891,0.12109 0.9375,0.22265 1.24219,0.22265c0.4375,0 0.40625,-0.04687 -0.13672,-0.22265c-0.38281,-0.1211 -0.9414,-0.21875 -1.24218,-0.21875c-0.4375,0 -0.41016,0.04297 0.13671,0.21875m6.89844,0l-0.6875,0.22265l0.6875,0.00782c0.37891,0.0039 0.94141,-0.09766 1.24219,-0.23047l0.55469,-0.23438l-0.55469,0.00781c-0.30078,0.00391 -0.86328,0.10547 -1.24219,0.22657m75.27735,25.46484l-0.48829,0.89453l0.55469,-0.65234c0.47656,-0.55469 0.72656,-1.14453 0.48828,-1.14063c-0.03906,0 -0.28906,0.40625 -0.55468,0.89844m-150.38672,1.56641c0.35937,0.3125 0.78125,0.57031 0.9414,0.57031c0.33985,0 0.32422,-0.01563 -0.76562,-0.65234l-0.82813,-0.48438l0.65235,0.56641m148.66406,0.03515c-0.45313,0.29297 -0.70313,0.53125 -0.55078,0.53125c0.15234,0 0.64844,-0.24609 1.10156,-0.54687c0.45703,-0.30469 0.70703,-0.54297 0.55469,-0.53125c-0.15235,0.01172 -0.64844,0.25781 -1.10547,0.54687m-110.74609,0.74219c20.15234,0.03906 53.1289,0.03906 73.28125,0c20.14843,-0.03906 3.66406,-0.07031 -36.64063,-0.07031c-40.30469,0 -56.78906,0.03125 -36.64062,0.07031"/>
    <path fill="rgb(25.098039%,40%,46.27451%)" fill-rule="evenodd" d="m94.34375,41.34895c15.6875,0.03906 41.27344,0.03906 56.85547,0c15.58594,-0.03906 2.75391,-0.07422 -28.51563,-0.07422c-31.27343,0 -44.02343,0.03516 -28.33984,0.07422m86.46094,0.15235c0.78515,0.57031 1.63281,0.98046 1.63281,0.79296c0,-0.1289 -0.31641,-0.3789 -0.70312,-0.55859c-0.64454,-0.29297 -1.20704,-0.43359 -0.92969,-0.23437m4.80469,4.05468c1.35937,1.36719 2.53515,2.48438 2.60937,2.48438c0.07813,0 -0.97266,-1.11719 -2.33203,-2.48438c-1.35938,-1.36718 -2.53516,-2.48437 -2.60938,-2.48437c-0.07812,0 0.97266,1.11719 2.33204,2.48437m-124.47657,92.46094c0,50.625 0.03125,71.33594 0.07032,46.02344c0.03906,-25.3125 0.03906,-66.73438 0,-92.04688c-0.03907,-25.3125 -0.07032,-4.60156 -0.07032,46.02344m61.46875,-87.28516l51.8125,0.07032l0.1875,5.79687l-0.03125,-5.9375l-103.77734,0l51.80859,0.07031m74.60157,6.41797c1.51171,1.51563 2.8125,2.75782 2.88671,2.75782c0.07422,0 -1.09765,-1.24219 -2.61328,-2.75782c-1.51172,-1.51953 -2.80859,-2.76172 -2.88672,-2.76172c-0.07421,0 1.10157,1.24219 2.61329,2.76172m-13.04688,7.65625l0.07422,7.10938l7.23828,0.07422c6.74219,0.0664 7.22656,0.03906 7.05469,-0.40235c-0.11328,-0.29297 -0.22266,-0.34765 -0.29297,-0.14062c-0.07813,0.24609 -1.88281,0.33203 -6.98438,0.33203l-6.8789,0l0,-13.90625l0.88672,0.8125c0.78515,0.71875 0.61718,0.27734 -0.2461,-0.63672c-0.85547,-0.91016 -0.92578,-0.34766 -0.85156,6.75781m-9.60937,6.69532c0,3.11328 0.04296,4.38281 0.08984,2.82812c0.05078,-1.55469 0.05078,-4.10156 0,-5.65625c-0.04688,-1.55859 -0.08984,-0.28516 -0.08984,2.82813m34.24609,-2.76172c1.35937,1.36718 2.53516,2.48437 2.60937,2.48437c0.07813,0 -0.97265,-1.11719 -2.33203,-2.48437c-1.35937,-1.36328 -2.53515,-2.48438 -2.60937,-2.48438c-0.07813,0 0.97265,1.1211 2.33203,2.48438m-12.70703,0.77343c1.10547,1.17969 1.63281,1.55469 0.9414,0.67969c-0.51171,-0.65625 -0.83203,-0.96484 -1.48437,-1.4375c-0.30078,-0.22265 -0.05859,0.1211 0.54297,0.75781m18.77734,83.82032c0,42.20312 0.03125,59.42578 0.07031,38.27343c0.03907,-21.14843 0.03907,-55.67578 0,-76.72656c-0.03906,-21.05078 -0.07031,-3.74609 -0.07031,38.45313m-39.8789,-74.97657c0,0.55469 1.05468,1.9336 1.74218,2.27735c0.46875,0.23047 0.4336,0.15625 -0.14843,-0.34375c-0.41407,-0.35547 -0.9375,-1.01953 -1.17188,-1.47656c-0.23047,-0.45313 -0.41797,-0.66016 -0.42187,-0.45704m-42.16016,16.53516c2.84766,0.04297 7.50391,0.04297 10.35156,0c2.84375,-0.04687 0.51563,-0.08203 -5.17578,-0.08203c-5.69141,0 -8.01953,0.03516 -5.17578,0.08203m24.83984,0c2.84766,0.04297 7.50391,0.04297 10.35157,0c2.84375,-0.04687 0.51562,-0.08203 -5.17579,-0.08203c-5.6914,0 -8.01953,0.03516 -5.17578,0.08203m-30.03906,4.48438c0,2.35546 0.03906,3.3164 0.09375,2.14062c0.05078,-1.17578 0.05078,-3.10156 0,-4.27734c-0.05469,-1.17969 -0.09375,-0.21485 -0.09375,2.13672m20.97266,0c0,2.35546 0.04297,3.3164 0.09375,2.14062c0.05468,-1.17578 0.05468,-3.10156 0,-4.27734c-0.05078,-1.17969 -0.09375,-0.21485 -0.09375,2.13672m24.44922,0.13671l-0.13282,4.41797l-10.2539,0c-5.64063,0 -10.19922,0.09375 -10.12891,0.20703c0.25781,0.41407 20.14453,0.2461 20.49609,-0.17578c0.21485,-0.26172 0.28907,-1.72265 0.23438,-4.62109l-0.07813,-4.24219l-0.13671,4.41406m-56.78125,-2.27343c-0.39063,0.49218 -0.9375,1.58593 -0.79688,1.58593c0.06641,0 0.37891,-0.43359 0.69141,-0.96484c0.57031,-0.96875 0.62109,-1.27344 0.10547,-0.62109m-11.24219,2.01562c0.25781,0.46875 0.71094,1.15235 1.01172,1.51953l0.54687,0.67188l-0.46484,-0.84375c-0.25781,-0.46875 -0.71485,-1.15235 -1.01172,-1.51953l-0.54688,-0.67188l0.46485,0.84375m7.57812,2.53516c0.16797,0.34375 0.51563,0.61328 0.77344,0.60156c0.38672,-0.01953 0.39453,-0.05469 0.0625,-0.18359c-0.23047,-0.08985 -0.57812,-0.35938 -0.77734,-0.59766c-0.30469,-0.375 -0.3125,-0.34375 -0.0586,0.17969m6.01563,1.79687c-0.22266,0.33985 -0.55469,0.92969 -0.73828,1.3086c-0.46875,0.96875 0.38281,-0.0625 0.96875,-1.17188c0.48047,-0.91406 0.33203,-1.0039 -0.23047,-0.13672m-10.61719,0.34375c0.23438,0.45703 0.63281,1.07813 0.88281,1.37891c0.25391,0.30469 0.1836,0.05469 -0.16015,-0.55078c-0.75,-1.33985 -1.31641,-1.98438 -0.72266,-0.82813m19.96875,0.20703c0.07031,0.11329 4.64844,0.20704 10.16797,0.20704c5.52344,0 10.10156,-0.09375 10.17187,-0.20704c0.07032,-0.11328 -4.50781,-0.20703 -10.17187,-0.20703c-5.66406,0 -10.23828,0.09375 -10.16797,0.20703m-19.875,4.75782c-0.55469,0.83203 -1.00391,1.60547 -1.00391,1.71875c0,0.1914 0.58204,-0.61719 1.78125,-2.47657c0.26954,-0.41406 0.42969,-0.75781 0.35938,-0.75781c-0.07422,0 -0.58594,0.6836 -1.13672,1.51563m23.14453,-0.48828c9.0625,0.1914 17.25,0.19531 17.25,0.00781c0,-0.11328 -4.6875,-0.17969 -10.41797,-0.14453c-5.73047,0.03125 -8.80468,0.09375 -6.83203,0.13672m26.3086,0.00781c2.92968,0.04297 7.64843,0.04297 10.48437,0c2.83984,-0.04688 0.4375,-0.08203 -5.32812,-0.08203c-5.76954,0 -8.08985,0.03906 -5.15625,0.08203m-29.98438,4.53906c-0.02734,2.37891 0.04297,4.38672 0.15625,4.45703c0.11328,0.07422 0.17578,-1.1914 0.13672,-2.8125c-0.13672,-5.42578 -0.23828,-6.00781 -0.29297,-1.64453m45.60156,0.08594c0,2.42578 0.04297,3.38281 0.09375,2.125c0.05078,-1.26172 0.05078,-3.2461 0,-4.41797c-0.05078,-1.16797 -0.09375,-0.13672 -0.09375,2.29297m-24.67578,0.1914c-0.07812,2.38672 -0.04297,4.23829 0.07813,4.1211c0.11718,-0.1211 0.17968,-2.07031 0.13672,-4.33594l-0.07813,-4.11719l-0.13672,4.33203m-35.88672,-1.64062c-0.2539,0.52344 -0.24609,0.55469 0.0586,0.17969c0.19922,-0.23828 0.54687,-0.50782 0.77734,-0.59766c0.33203,-0.12891 0.32422,-0.16406 -0.0625,-0.18359c-0.25781,-0.01172 -0.60547,0.25781 -0.77344,0.60156m1.52344,0.75781c0.23438,0.45703 0.49219,0.82813 0.56641,0.82813c0.07812,0 -0.05469,-0.3711 -0.28907,-0.82813c-0.23437,-0.45703 -0.49218,-0.82812 -0.5664,-0.82812c-0.07813,0 0.05469,0.37109 0.28906,0.82812m-10.07422,2.82813c-0.82031,1.33984 -0.64062,1.44922 2.4375,1.46484l2.8086,0.01563l-2.76172,-0.09375c-1.51563,-0.05079 -2.75782,-0.16797 -2.75782,-0.25782c0,-0.08984 0.25782,-0.58593 0.57422,-1.09375c0.31641,-0.51172 0.5,-0.92968 0.41016,-0.92968c-0.08984,0 -0.41016,0.40234 -0.71094,0.89453m11.90235,0.14062c0.875,1.4375 0.875,1.4375 4.04687,1.44141c3.10156,0.00781 3.54297,-0.22656 2.70703,-1.42188c-0.24219,-0.34375 -0.4375,-0.48437 -0.4375,-0.30468c0,0.17578 0.1211,0.39843 0.27344,0.49218c1.05078,0.64453 0.1875,0.96485 -2.61719,0.96485l-2.89453,0l-0.73047,-1.10547c-0.92187,-1.39453 -1.1875,-1.44922 -0.34765,-0.06641m36.63671,2.34766c0.11719,0.11719 4.67579,0.17969 10.12891,0.13672l9.91797,-0.07032l-10.12891,-0.14062c-5.57031,-0.07422 -10.03515,-0.04297 -9.91797,0.07422m-19.33203,0.13281c2.77735,0.04688 7.25,0.04688 9.9336,0c2.6875,-0.04297 0.41015,-0.08203 -5.05469,-0.08203c-5.46484,0 -7.66016,0.03906 -4.87891,0.08203m-30.30859,4.14063c0,0.1914 8.1875,0.18359 17.25,-0.00782c1.97266,-0.04297 -1.10156,-0.10547 -6.83203,-0.13672c-5.73047,-0.03515 -10.41797,0.03125 -10.41797,0.14454m28.28906,-0.00782c9.0625,0.19141 17.25,0.19922 17.25,0.00782c0,-0.11329 -4.6875,-0.17969 -10.41797,-0.14454c-5.73047,0.03125 -8.80468,0.09375 -6.83203,0.13672m21.11328,0.00782c0,0.1914 8.1875,0.18359 17.25,-0.00782c1.97266,-0.04297 -1.10156,-0.10547 -6.83203,-0.13672c-5.73047,-0.03515 -10.41797,0.03125 -10.41797,0.14454m20.69922,4.67968c-0.07422,2.46094 -0.03906,4.375 0.07813,4.25782c0.11718,-0.11719 0.17968,-2.13282 0.13672,-4.47266l-0.07813,-4.25781l-0.13672,4.47265m-45.48828,-0.0039c-0.02734,2.30859 0.04297,4.25 0.15625,4.32031c0.11328,0.07422 0.17578,-1.19141 0.13672,-2.80859c-0.13281,-5.23438 -0.23828,-5.80079 -0.29297,-1.51172m20.92188,0.08593l-0.13282,4.27735l-20.14843,0.28906l9.96875,0.0625c11.86718,0.07422 10.63281,0.63672 10.52734,-4.80469l-0.08203,-4.10156l-0.13281,4.27734m-35.04688,4.41797l-10.07422,0.14844l9.98828,0.0625c6.42969,0.03906 10.04688,-0.03516 10.16016,-0.21094c0.09375,-0.15234 0.12891,-0.25 0.08203,-0.21484c-0.04687,0.03516 -4.61719,0.13281 -10.15625,0.21484m39.15234,0.07032c0.11719,0.11718 4.67579,0.17968 10.12891,0.13671l9.91797,-0.07031l-10.12891,-0.13672c-5.57031,-0.07812 -10.03515,-0.04687 -9.91797,0.07032m-49.64062,4.27343c0,0.11719 4.65625,0.20703 10.34766,0.20703c5.69531,0 10.35156,-0.08984 10.35156,-0.20703c0,-0.11328 -4.65625,-0.20703 -10.35156,-0.20703c-5.69141,0 -10.34766,0.09375 -10.34766,0.20703m24.83984,0c0,0.11719 4.65625,0.20703 10.34766,0.20703c5.69531,0 10.35156,-0.08984 10.35156,-0.20703c0,-0.11328 -4.65625,-0.20703 -10.35156,-0.20703c-5.69141,0 -10.34766,0.09375 -10.34766,0.20703m24.5625,0c0,0.11719 4.65625,0.20703 10.35157,0.20703c5.6914,0 10.34765,-0.08984 10.34765,-0.20703c0,-0.11328 -4.65625,-0.20703 -10.34765,-0.20703c-5.69532,0 -10.35157,0.09375 -10.35157,0.20703m-24.78125,4.63672c-0.04297,2.9336 0.03907,4.25391 0.27344,4.48828c0.24609,0.24219 2.91406,0.32813 10.29297,0.32813c7.38281,0 10.05078,-0.08594 10.29687,-0.32813c0.23438,-0.23437 0.3125,-1.55468 0.27344,-4.48828l-0.05859,-4.15234l-0.29688,8.55469l-20.42578,0l-0.29687,-8.55469l-0.0586,4.15234m45.47657,0.125l-0.13282,4.27735l-10.2539,0c-5.64063,0 -10.19922,0.09375 -10.12891,0.20703c0.25781,0.41797 20.14453,0.24609 20.49609,-0.17188c0.21485,-0.26172 0.28907,-1.6914 0.23438,-4.48828l-0.07813,-4.10156l-0.13671,4.27734m-69.91797,4.48438c0.07031,0.11718 4.64453,0.20703 10.16797,0.20703c5.52343,0 10.10156,-0.08985 10.17187,-0.20703c0.07031,-0.11328 -4.50781,-0.20703 -10.17187,-0.20703c-5.66407,0 -10.23829,0.09375 -10.16797,0.20703m10.80078,33.27734c-0.26172,0.10547 0.67187,0.19531 2.07031,0.20313c1.41016,0.00781 2.23438,-0.07422 1.85156,-0.17969c-0.89453,-0.25 -3.3164,-0.26172 -3.92187,-0.02344m22.42578,0.01953c-0.375,0.10547 0.48828,0.19141 1.92187,0.19141c1.42969,0 2.29297,-0.08594 1.91797,-0.19141c-0.37109,-0.10547 -1.23437,-0.1875 -1.91797,-0.1875c-0.68359,0 -1.55078,0.08203 -1.92187,0.1875m-16.15625,0.58203c0.75781,0.32813 1.02734,0.32813 0.82812,0c-0.09375,-0.14843 -0.44531,-0.26562 -0.77734,-0.2539c-0.58203,0.01562 -0.58594,0.02734 -0.05078,0.2539m22.35547,0c0.75781,0.32813 1.02734,0.32813 0.82812,0c-0.09375,-0.14843 -0.44531,-0.26562 -0.77734,-0.2539c-0.58203,0.01562 -0.58203,0.02734 -0.05078,0.2539m5.84765,-0.0664c-0.0664,0.11328 -0.01171,0.45312 0.125,0.75781c0.23047,0.51562 0.24219,0.51172 0.13282,-0.05469c-0.0625,-0.33594 0.02734,-0.66797 0.20312,-0.73828c0.22656,-0.09375 0.22266,-0.13672 -0.01562,-0.15234c-0.17969,-0.01172 -0.38282,0.07422 -0.44532,0.1875m8.73438,0.46093c0.17187,0.3711 0.35937,0.62891 0.41406,0.57422c0.17188,-0.17187 -0.25781,-1.24218 -0.5,-1.24218c-0.125,0 -0.08984,0.30078 0.08594,0.66796m-48.875,0.77344c-0.34375,0.16406 -0.62109,0.40625 -0.62109,0.53906c0,0.1875 0.84375,-0.21875 1.63281,-0.79296c0.27344,-0.19922 -0.44531,-0.01954 -1.01172,0.2539m22.44531,0.08203c-0.29297,0.21875 -0.48047,0.45313 -0.41406,0.51953c0.0625,0.0625 0.41016,-0.12109 0.76953,-0.41015c0.75391,-0.61328 0.4375,-0.71094 -0.35547,-0.10938m-6.59375,1.42578c-0.25781,0.70313 -0.42578,1.32032 -0.37109,1.37891c0.05859,0.05469 0.32031,-0.46875 0.58594,-1.16406c0.26562,-0.69922 0.43359,-1.31641 0.37109,-1.37891c-0.0625,-0.05859 -0.32422,0.46485 -0.58594,1.16406m33.50391,-0.82812c0.05859,0.71875 0.49219,1.32422 0.51172,0.72266c0.01172,-0.33204 -0.10547,-0.67969 -0.25782,-0.77344c-0.15234,-0.09375 -0.26562,-0.07031 -0.2539,0.05078m-52.10156,1.55078c-1.07813,1.23047 -2.11719,2.94141 -1.91016,3.14844c0.09375,0.09375 0.17187,0.03125 0.17187,-0.13672c0,-0.16797 0.61329,-1.12109 1.36719,-2.11719c1.48438,-1.96094 1.64453,-2.34375 0.3711,-0.89453m60.54296,0.09766c-0.10156,0.10156 -0.17578,0.44531 -0.16406,0.76172c0.01563,0.52734 0.03906,0.51953 0.28125,-0.08594c0.26953,-0.67578 0.21485,-1.00391 -0.11719,-0.67578m-7.74218,0.78515c0.22656,1.01172 0.38672,1.23438 0.3789,0.52735c0,-0.28907 -0.1289,-0.71485 -0.28515,-0.94141c-0.20313,-0.30469 -0.23047,-0.19141 -0.09375,0.41406m7.1914,1.14844c-0.10156,0.10156 -0.17578,0.44141 -0.16797,0.75781c0.01954,0.53125 0.03907,0.52344 0.28516,-0.08593c0.26953,-0.67579 0.21094,-1 -0.11719,-0.67188m-37.89843,2.4375c0,1.36719 0.04687,1.96094 0.10546,1.32031c0.05469,-0.64062 0.0586,-1.75781 0,-2.48437c-0.05468,-0.72656 -0.10546,-0.20313 -0.10546,1.16406m-13.48438,-1.73047c-0.80078,0.28516 -2.07812,1.03906 -1.75781,1.03906c0.08594,0 0.57812,-0.21484 1.09765,-0.48046c0.64454,-0.33204 1.54297,-0.47657 2.8711,-0.46485c1.20312,0.01172 1.67187,-0.05859 1.23828,-0.17969c-1.00781,-0.28906 -2.5,-0.25 -3.44922,0.08594m22.63281,-0.19922c0.61328,0.20703 4.38282,0.32422 3.86328,0.1211c-0.30078,-0.1211 -1.35937,-0.22266 -2.34375,-0.21875c-0.98828,0 -1.67187,0.04297 -1.51953,0.09765m22.1836,0.75c0.1289,0.76563 0.16797,0.80469 0.2539,0.25c0.0586,-0.35937 -0.01172,-0.76562 -0.14843,-0.90625c-0.15625,-0.15234 -0.19532,0.10547 -0.10547,0.65625m-23.26953,-0.08203c-0.26172,0.29297 -0.42188,0.75781 -0.35157,1.03516c0.1211,0.46484 0.13282,0.46484 0.16407,-0.02735c0.01562,-0.29296 0.23828,-0.75781 0.48828,-1.03515c0.25,-0.27735 0.39453,-0.50391 0.32031,-0.50391c-0.07813,0 -0.35547,0.23828 -0.62109,0.53125m29.27343,0.9961c-0.09765,0.24609 -0.16406,0.65625 -0.14843,0.91015c0.01171,0.25391 0.13281,0.09375 0.26562,-0.35547c0.26172,-0.87109 0.16797,-1.30078 -0.11719,-0.55468m-5.51172,0.95703c0.09375,0.53125 0.27344,1.15234 0.40235,1.3789c0.14062,0.25 0.16797,0.03125 0.0625,-0.55078c-0.09375,-0.53125 -0.27344,-1.15234 -0.40235,-1.38281c-0.14062,-0.24609 -0.16796,-0.02734 -0.0625,0.55469m-56.89843,0.27343c-0.10547,0.32813 -0.12891,0.65625 -0.05078,0.73438c0.07421,0.07422 0.22265,-0.12891 0.32421,-0.45703c0.10547,-0.32422 0.12891,-0.65625 0.05079,-0.73047c-0.07422,-0.07813 -0.22266,0.12891 -0.32422,0.45312m48.58593,0.07032c0.61719,2.07422 1.03907,3.25 1.12891,3.16015c0.13281,-0.1289 -1.01172,-3.78125 -1.18359,-3.78125c-0.07422,0 -0.04688,0.28125 0.05468,0.6211m13.26954,0.63281c-0.09375,0.24609 -0.16016,0.71875 -0.14063,1.04687c0.01563,0.37891 0.10938,0.24219 0.25391,-0.36718c0.24218,-1.02344 0.17578,-1.42578 -0.11328,-0.67969m-62.375,1.81641c-0.21094,1.0664 -0.16797,5.05859 0.0664,6.16406c0.09766,0.44531 0.17578,-0.95313 0.17578,-3.10547c0,-4.32031 0.00391,-4.28125 -0.24218,-3.05859m8.41796,-0.53907c-0.01953,0.25391 -0.10546,0.6875 -0.1914,0.96485c-0.15235,0.48047 -0.14453,0.48047 0.15625,0.01562c0.17187,-0.26953 0.25781,-0.70703 0.1914,-0.96875c-0.11328,-0.42578 -0.1289,-0.42578 -0.15625,-0.01172m17.62891,0.6875c0,0.30469 1.63281,2.57813 1.85156,2.57813c0.08203,0 0.02344,-0.15625 -0.1289,-0.34375c-0.15235,-0.19141 -0.60157,-0.82813 -1,-1.42188c-0.39453,-0.58984 -0.72266,-0.95312 -0.72266,-0.8125m32.46094,1.0586c0.22656,1.01562 0.38672,1.23437 0.3789,0.53125c0,-0.29297 -0.1289,-0.71485 -0.28125,-0.94532c-0.20703,-0.30078 -0.23046,-0.1875 -0.09765,0.41407m-15.34766,1.65625c0.51563,0.53125 1,0.96875 1.07422,0.96875c0.07813,0 -0.28516,-0.4375 -0.79687,-0.96875c-0.51563,-0.53125 -1,-0.96485 -1.07422,-0.96485c-0.07813,0 0.28125,0.4336 0.79687,0.96485m18.11328,-0.53907c-0.09765,0.2461 -0.16015,0.71485 -0.14453,1.04688c0.01953,0.375 0.11328,0.24219 0.25391,-0.36719c0.24219,-1.02734 0.17578,-1.42969 -0.10938,-0.67969m-2.05859,1.64454c-0.00391,0.30468 0.09766,0.80078 0.23047,1.10156c0.30078,0.70312 0.30078,-0.01953 0,-0.96485c-0.17969,-0.55468 -0.22266,-0.58203 -0.23047,-0.13671m-29.57813,0.0039c0,0.07031 0.75391,0.50781 1.67969,0.97266c1.78516,0.90234 3.2461,1.51172 2.97656,1.24219c-0.26171,-0.26172 -4.65625,-2.35157 -4.65625,-2.21485m15.06641,1.21485c0.30469,0.76562 0.40625,1.76171 0.33984,3.42578c-0.04687,1.28906 0.00391,2.28515 0.11719,2.21484c0.65625,-0.41016 -0.05859,-6.72266 -0.75781,-6.72266c-0.07422,0 0.0625,0.48829 0.30078,1.08204m-36.42578,0.4375c0.22656,1.01562 0.38281,1.23437 0.37891,0.52734c-0.00391,-0.28906 -0.12891,-0.71484 -0.28516,-0.94141c-0.20313,-0.30468 -0.23047,-0.1914 -0.09375,0.41407m51.53906,0.76562c0.04297,0.77734 0.48828,1.07031 0.69141,0.45703c0.0625,-0.18359 -0.01953,-0.2539 -0.17969,-0.15234c-0.16406,0.09765 -0.35156,-0.09766 -0.42578,-0.44531c-0.10156,-0.47657 -0.12109,-0.44141 -0.08594,0.14062m-7.80469,0.11328c-0.01171,0.33203 0.10547,0.6836 0.25782,0.77735c0.32422,0.19921 0.32422,-0.07032 0,-0.82813c-0.23047,-0.53125 -0.23828,-0.53125 -0.25782,0.05078m-15.61328,1.08594c0.45703,0.44141 0.875,0.77344 0.9375,0.73828c0.1875,-0.11719 -0.58984,-0.92578 -1.1914,-1.24219c-0.39063,-0.20312 -0.3086,-0.04297 0.2539,0.50391m-27.73828,-0.20313c0,0.13672 0.2461,0.53907 0.55078,0.89844l0.54688,0.65235l-0.42969,-0.89844c-0.42969,-0.89063 -0.66797,-1.125 -0.66797,-0.65235m43.90235,0.77344c-0.00782,0.33203 0.10546,0.6836 0.25781,0.77735c0.32812,0.19921 0.32812,-0.07032 0,-0.82813c-0.22656,-0.53516 -0.23828,-0.53125 -0.25781,0.05078m-25.6875,1.02735c0.38281,0.20312 1,0.44531 1.38281,0.54296c0.3789,0.09375 0.1914,-0.07031 -0.41406,-0.35937c-1.25,-0.60156 -2.02344,-0.74609 -0.96875,-0.18359m-5.84766,0.10156c0.27344,0.1914 0.34375,1.04687 0.27734,3.45703c-0.04687,1.76172 0.01172,3.10547 0.12891,2.98437c0.42969,-0.42578 0.10156,-6.46093 -0.35156,-6.58593c-0.32422,-0.08594 -0.33594,-0.05469 -0.05469,0.14453m8.07812,0.71094c0.06641,0.05468 0.48829,0.18359 0.94532,0.28515c0.60547,0.13672 0.71484,0.10938 0.41406,-0.09375c-0.375,-0.2539 -1.63281,-0.42969 -1.35938,-0.1914m-16.125,0.74218c0.62891,0.125 1.7461,0.125 2.48438,0c1.17969,-0.19531 1.04687,-0.22265 -1.14453,-0.22656c-2.03906,0 -2.28125,0.03906 -1.33985,0.22656m19.9375,0.0625c1.00782,0.14844 2.11329,0.16016 2.58594,0.02344c0.60938,-0.17578 0.15625,-0.24219 -1.76562,-0.26172l-2.58203,-0.02344l1.76171,0.26172m-31.22265,0.61719c0.35937,0.6875 1.99609,2.75781 1.99609,2.52344c0,-0.15625 -1.76953,-2.58985 -2.13672,-2.9375c-0.07812,-0.07813 -0.01562,0.10937 0.14063,0.41406m41.03515,2.96484l-0.8125,0.89844l0.89844,-0.8125c0.49219,-0.44531 0.89453,-0.84765 0.89453,-0.89453c0,-0.21484 -0.22656,-0.02734 -0.98047,0.80859m-17.39453,0.98829c0.27344,0.45312 2.19141,1.29687 3.48438,1.53125c0.52344,0.09765 0.10937,-0.125 -0.92188,-0.49219c-1.02734,-0.36719 -2.07812,-0.83203 -2.32812,-1.03516c-0.375,-0.30469 -0.41797,-0.30859 -0.23438,-0.0039m-19.16015,0.47265c0,0.19141 2.0039,0.97656 2.26953,0.88672c0.13281,-0.04297 -0.32422,-0.28906 -1.01563,-0.54297c-0.6875,-0.25781 -1.2539,-0.41406 -1.2539,-0.34375m58.72656,0.33985c-0.17969,0.67968 -9.08594,0.99609 -9.41797,0.33203c-0.07422,-0.15625 -0.10547,-0.125 -0.06641,0.07031c0.11329,0.55859 9.07032,0.64453 9.53516,0.08984c0.1875,-0.22656 0.28906,-0.5664 0.22266,-0.75781c-0.0625,-0.19141 -0.1875,-0.07031 -0.27344,0.26563m-45.75391,0.21875c-0.53125,0.19921 -0.76172,0.37109 -0.51562,0.3789c0.25,0.01172 0.87109,-0.16406 1.3789,-0.38672c1.15235,-0.5 0.45704,-0.49218 -0.86328,0.00782m-7.51953,0.875c0.94531,0.05468 2.5,0.05468 3.44922,0c0.94922,-0.05079 0.17188,-0.09766 -1.72656,-0.09766c-1.89844,0 -2.67188,0.04687 -1.72266,0.09766m20.29688,0c1.03125,0.05468 2.64453,0.05468 3.58593,0c0.94141,-0.05079 0.10157,-0.09766 -1.875,-0.09766c-1.97265,0.00391 -2.74218,0.04687 -1.71093,0.09766m-29.38282,18.21875c18.57032,0.03906 48.875,0.03906 67.34375,0c18.46875,-0.03907 3.27344,-0.07032 -33.76562,-0.07032c-37.03906,0 -52.14844,0.03125 -33.57813,0.07032m-43.26562,5.72656c0,0.30469 0.17578,0.86328 0.39453,1.24219c0.50391,0.88281 0.50391,0.69531 0.00781,-0.6875c-0.21875,-0.60938 -0.39843,-0.85547 -0.40234,-0.55469m40.34375,3.66015c20,0.03907 52.72656,0.03907 72.72656,0c20,-0.03906 3.63672,-0.07421 -36.36328,-0.07421c-40,0 -56.36328,0.03515 -36.36328,0.07421"/>
    <path fill="rgb(38.039216%,48.627451%,54.901961%)" fill-rule="evenodd" d="m183.40234,43.6263c0.59375,0.60546 1.14063,1.10156 1.21485,1.10156c0.07812,0 -0.34766,-0.4961 -0.9375,-1.10156c-0.59375,-0.60938 -1.14063,-1.10547 -1.21875,-1.10547c-0.07422,0 0.34765,0.49609 0.9414,1.10547m-121.99218,94.39062c0,51.08203 0.03125,71.97656 0.07031,46.4375c0.03906,-25.53906 0.03906,-67.33594 0,-92.875c-0.03906,-25.53906 -0.07031,-4.64453 -0.07031,46.4375m129.99609,-86.38672c1.81641,1.82031 3.36328,3.3125 3.44141,3.3125c0.07422,0 -1.34766,-1.49219 -3.16407,-3.3125c-1.82031,-1.82422 -3.36718,-3.3125 -3.4414,-3.3125c-0.07813,0 1.34765,1.48828 3.16406,3.3125m-120.90625,-0.73828c-0.07812,0.19922 -0.10547,1.53516 -0.05859,2.96484l0.08203,2.60157l0.13281,-2.96875c0.13672,-2.9375 0.11328,-3.3086 -0.15625,-2.59766m104.20703,2.61328l0.13672,2.95313l0.08203,-2.73438c0.04297,-1.5039 -0.01953,-2.83594 -0.13672,-2.95312c-0.12109,-0.1211 -0.15625,1.10937 -0.08203,2.73437m-77.8789,3.29688c14.32031,0.04297 37.66796,0.04297 51.89062,0c14.21875,-0.03907 2.5,-0.07032 -26.03516,-0.07032c-28.53906,0 -40.17578,0.03125 -25.85546,0.07032m87.10546,7.9375c0,3.79297 0.04297,5.38672 0.08985,3.53515c0.04687,-1.85156 0.04687,-4.95703 0,-6.90234c-0.04688,-1.94141 -0.08594,-0.42969 -0.08985,3.36719m18.78907,-1.79297c1.8164,1.82031 3.36328,3.30859 3.4414,3.30859c0.07422,0 -1.34765,-1.48828 -3.16797,-3.30859c-1.8164,-1.82422 -3.36328,-3.3125 -3.4375,-3.3125c-0.07812,0 1.34766,1.48828 3.16407,3.3125m-12.14453,0.82812c1.35937,1.36328 2.53515,2.48047 2.60937,2.48047c0.07813,0 -0.97266,-1.11719 -2.33203,-2.48047c-1.36328,-1.36718 -2.53516,-2.48437 -2.61328,-2.48437c-0.07422,0 0.97656,1.11719 2.33594,2.48437m-93.75,2.13672c14.32031,0.03906 37.66796,0.03906 51.89062,0c14.21875,-0.03906 2.5,-0.07031 -26.03516,-0.07031c-28.53906,0 -40.17578,0.03125 -25.85546,0.07031m-26.37891,79.7461c-0.03906,43.75 0.02344,79.60156 0.13672,79.67187c0.1875,0.11328 0.1875,-53.73047 0,-130.50781c-0.03906,-15.78516 -0.10156,7.08984 -0.13672,50.83594m104.375,-73.87891c0,3.10937 0.03906,4.38281 0.08984,2.82812c0.05078,-1.55859 0.05078,-4.10156 0,-5.66015c-0.05078,-1.55469 -0.08984,-0.28125 -0.08984,2.83203m37.55859,0.82812c0.59375,0.60547 1.14063,1.10157 1.21485,1.10157c0.07422,0 -0.34766,-0.4961 -0.94141,-1.10157c-0.58984,-0.60937 -1.13672,-1.10546 -1.21484,-1.10546c-0.07422,0 0.34765,0.49609 0.9414,1.10546m-20.08203,8.76172l13.04297,0.07422l0.14063,143.78906l0,-71.96484l-0.00391,-71.96875l-26.21875,-0.00781l13.03906,0.07812m-43.97656,18.00782c0,2.5039 0.04297,3.53125 0.09375,2.27734c0.05078,-1.25391 0.05078,-3.30078 0,-4.55469c-0.05078,-1.25 -0.09375,-0.22656 -0.09375,2.27735m4.14062,0c0,2.5039 0.04297,3.53125 0.09375,2.27734c0.05079,-1.25391 0.05079,-3.30078 0,-4.55469c-0.05078,-1.25 -0.09375,-0.22656 -0.09375,2.27735m-46.8164,-2.28125c0.80078,0.05859 2.04297,0.05859 2.75781,0c0.71875,-0.05469 0.0625,-0.10157 -1.45703,-0.10157c-1.51563,0 -2.10156,0.04688 -1.30078,0.10157m13.71094,0c1.73828,0.05859 2.83984,0.21875 2.98828,0.42968c0.17187,0.23828 0.20703,0.21485 0.125,-0.07812c-0.08985,-0.33594 -0.67578,-0.41797 -2.98828,-0.4336l-2.875,-0.01562l2.75,0.09766m33.10546,15.80468c0,2.50782 0.04297,3.53125 0.09375,2.27735c0.05079,-1.25 0.05079,-3.30078 0,-4.55469c-0.05078,-1.25 -0.09375,-0.22656 -0.09375,2.27734m-4.14062,0.14063c0,2.42578 0.04297,3.38281 0.09375,2.125c0.05078,-1.26172 0.05078,-3.2461 0,-4.41797c-0.05469,-1.16797 -0.09375,-0.13672 -0.09375,2.29297m0,13.52344c0,2.42968 0.04297,3.38281 0.09375,2.125c0.05078,-1.25782 0.05078,-3.2461 0,-4.41407c-0.05469,-1.17187 -0.09375,-0.14062 -0.09375,2.28907m4.14062,0c0,2.42968 0.04297,3.38281 0.09375,2.125c0.05079,-1.25782 0.05079,-3.2461 0,-4.41407c-0.05468,-1.17187 -0.09375,-0.14062 -0.09375,2.28907m-4.14062,13.52343c0,2.42969 0.04297,3.38672 0.09375,2.125c0.05078,-1.25781 0.05078,-3.24609 0,-4.41406c-0.05469,-1.17187 -0.09375,-0.14062 -0.09375,2.28906m4.14062,0c0,2.42969 0.04297,3.38672 0.09375,2.125c0.05079,-1.25781 0.05079,-3.24609 0,-4.41406c-0.05468,-1.17187 -0.09375,-0.14062 -0.09375,2.28906m-37.30078,38.14844c0.42188,0.0625 1.04297,0.0625 1.37891,-0.00391c0.33984,-0.0664 -0.00391,-0.11718 -0.76172,-0.11718c-0.75781,0.0039 -1.03516,0.05859 -0.61719,0.12109m22.49219,-0.00391c0.33984,0.06641 0.89844,0.06641 1.24219,0c0.33984,-0.0664 0.0625,-0.12109 -0.6211,-0.12109c-0.68359,0 -0.96484,0.05469 -0.62109,0.12109m13.24609,0.28516c1.10157,0.05469 2.90235,0.05469 4.00391,0c1.09766,-0.05078 0.19922,-0.09375 -2.00391,-0.09375c-2.19921,0 -3.10156,0.04297 -2,0.09375m18.76954,0c1.10156,0.05469 2.90234,0.05469 4,0c1.10156,-0.05078 0.20312,-0.09375 -2,-0.09375c-2.19922,0 -3.10157,0.04297 -2,0.09375m-59.7461,14.28516c0.00391,0.76172 0.0586,1.03906 0.1211,0.61718c0.0625,-0.41796 0.0625,-1.03906 -0.00391,-1.3789c-0.06641,-0.33985 -0.11719,0.0039 -0.11719,0.76172m51.87891,4.62109c0.04687,0.14063 0.19922,0.25 0.34375,0.25c0.14453,0 0.30078,-0.10937 0.34765,-0.25c0.04688,-0.13672 -0.10937,-0.25 -0.34765,-0.25c-0.23438,0 -0.39063,0.11328 -0.34375,0.25m-34.46485,4.76563c0,1.66796 0.04688,2.3164 0.10157,1.4375c0.05468,-0.87891 0.05468,-2.2461 -0.00391,-3.03516c-0.05469,-0.79297 -0.09766,-0.07422 -0.09766,1.59766"/>
   </g>
  </g>
 </g>
</svg>