<svg width="450" height="400" xmlns="http://www.w3.org/2000/svg">

 <g>
  <title>background</title>
  <rect fill="none" id="canvas_background" height="402" width="452" y="-1" x="-1"/>
 </g>
 <g>
  <title>Layer 1</title>
  <g id="surface1">
   <path id="svg_1" fill-rule="nonzero" fill="rgb(23.921569%,49.411765%,69.411765%)" d="m372,138c0,76.21484 -61.78516,138 -138,138c-76.21484,0 -138,-61.78516 -138,-138c0,-76.21484 61.78516,-138 138,-138c76.21484,0 138,61.78516 138,138zm0,0"/>
   <path id="svg_2" fill-rule="nonzero" fill="rgb(0%,0%,0%)" d="m294.375,74.60547l-120.75,0c-1.66797,0 -3.01953,1.35156 -3.01953,3.01953l0,120.75c0,1.66797 1.35156,3.01953 3.01953,3.01953l120.75,0c1.66797,0 3.01953,-1.35156 3.01953,-3.01953l0,-120.75c0,-1.66797 -1.35156,-3.01953 -3.01953,-3.01953zm-3.01953,60.375l-54.33594,0l0,-54.33594l54.33594,0l0,54.33594zm-114.71094,-54.33594l54.33594,0l0,54.33594l-54.33594,0l0,-54.33594zm0,60.375l54.33594,0l0,54.33594l-54.33594,0l0,-54.33594zm114.71094,54.33594l-54.33594,0l0,-54.33594l54.33594,0l0,54.33594zm0,0"/>
   <path id="svg_3" fill-rule="nonzero" fill="rgb(0%,0%,0%)" d="m251.50391,125.86328c0.20312,0.03906 0.41015,0.0625 0.60937,0.0625c0.79297,0 1.5625,-0.3164 2.13281,-0.88672l33.20704,-33.20312l-4.26954,-4.26953l-29.96875,29.96875l-4.33984,-10.84375l-5.60547,2.24218l6.03906,15.09375c0.375,0.94532 1.20313,1.63282 2.19532,1.83594zm0,0"/>
   <path id="svg_4" fill-rule="nonzero" fill="rgb(0%,0%,0%)" d="m219.78906,87.56641l-15.97656,15.97656l-15.97656,-15.97656l-4.26953,4.26953l15.97656,15.97656l-15.97656,15.97656l4.26953,4.26953l15.97656,-15.97656l15.97656,15.97656l4.26953,-4.26953l-15.97656,-15.97656l15.97656,-15.97656l-4.26953,-4.26953zm0,0"/>
   <path id="svg_5" fill-rule="nonzero" fill="rgb(0%,0%,0%)" d="m219.78906,147.94141l-15.97656,15.97656l-15.97656,-15.97656l-4.26953,4.26953l15.97656,15.97656l-15.97656,15.97656l4.26953,4.26953l15.97656,-15.97656l15.97656,15.97656l4.26953,-4.26953l-15.97656,-15.97656l15.97656,-15.97656l-4.26953,-4.26953zm0,0"/>
   <path id="svg_6" fill-rule="nonzero" fill="rgb(0%,0%,0%)" d="m248.21094,188.43359l15.97656,-15.97656l15.97656,15.97656l4.26953,-4.26953l-15.97656,-15.97656l15.97656,-15.97656l-4.26953,-4.26953l-15.97656,15.97656l-15.97656,-15.97656l-4.26953,4.26953l15.97656,15.97656l-15.97656,15.97656l4.26953,4.26953zm0,0"/>
   <path id="svg_7" fill-rule="nonzero" fill="rgb(0%,0%,0%)" d="m326.23828,57l-18.11328,-12.07422c-0.92578,-0.61719 -2.11719,-0.67187 -3.09766,-0.15234c-0.98437,0.52734 -1.59765,1.55078 -1.59765,2.66406l0,3.01953l-129.80469,0c-1.66797,0 -3.01953,1.35156 -3.01953,3.01953l0,12.07422c0,1.66406 1.35156,3.01953 3.01953,3.01953l129.80469,0l0,3.01563c0,1.11719 0.61328,2.14062 1.59375,2.66406c0.44922,0.23828 0.9375,0.35547 1.42578,0.35547c0.58594,0 1.17187,-0.17188 1.67578,-0.50781l18.11328,-12.07422c0.83985,-0.5625 1.34375,-1.50391 1.34375,-2.51172c0,-1.00781 -0.5039,-1.94922 -1.34375,-2.51172zm-16.76953,8.94531l0,-0.39453c0,-1.66797 -1.34766,-3.01953 -3.01953,-3.01953l-129.80469,0l0,-6.03906l129.80469,0c1.67187,0 3.01953,-1.35156 3.01953,-3.01563l0,-0.39843l9.65234,6.43359l-9.65234,6.43359zm0,0"/>
   <path id="svg_8" fill-rule="nonzero" fill="rgb(0%,0%,0%)" d="m167.58594,207.42969l-3.01563,0l0,-129.80469c0,-1.66797 -1.35156,-3.01953 -3.01953,-3.01953l-12.07422,0c-1.67187,0 -3.01953,1.35156 -3.01953,3.01953l0,129.80469l-3.01953,0c-1.11328,0 -2.13672,0.61328 -2.66406,1.59375c-0.52344,0.98437 -0.46485,2.17578 0.15234,3.09765l12.07422,18.11329c0.5625,0.84375 1.50391,1.34765 2.51172,1.34765c1.00781,0 1.94922,-0.5039 2.51172,-1.34375l12.07422,-18.11328c0.61718,-0.92578 0.67578,-2.11719 0.15234,-3.09766c-0.52344,-0.98046 -1.54687,-1.59765 -2.66406,-1.59765zm-12.07422,15.6914l-6.43359,-9.65234l0.39843,0c1.66797,0 3.01563,-1.34766 3.01563,-3.01953l0,-129.80469l6.03906,0l0,129.80469c0,1.67187 1.34766,3.01953 3.01953,3.01953l0.39844,0l-6.4375,9.65234zm0,0"/>
  </g>
  <text xml:space="preserve" text-anchor="start" font-family="sans-serif" font-size="80" id="svg_10" y="366" x="9.29688" stroke-opacity="null" stroke-width="0" stroke="null" fill="#00344C">Recombination</text>
   </g>
</svg>