<svg width="450" height="400" xmlns="http://www.w3.org/2000/svg">

 <g>
  <title>background</title>
  <rect fill="none" id="canvas_background" height="402" width="452" y="-1" x="-1"/>
 </g>
 <g>
  <title>Layer 1</title>
  <g id="surface1">
   <path id="svg_1" fill-rule="nonzero" fill="#A0A0A0" d="m268.83281,150.59766l25.125,4.98437c0.88281,14.1211 13.04688,24.84766 27.16406,23.96485c14.11719,-0.88282 24.84766,-13.04297 23.96485,-27.16016c-0.88281,-14.12109 -13.04297,-24.84766 -27.16406,-23.96484c-9.15235,0.57031 -17.30079,5.99218 -21.36329,14.21484l-26,-5.16016c-0.28125,-9.84765 -4.09375,-19.26562 -10.73828,-26.54297l35.05078,-49.50781c16.23047,7.03906 35.08985,-0.41406 42.12891,-16.64062c7.03906,-16.23047 -0.41016,-35.09375 -16.64062,-42.13282c-16.22657,-7.03515 -35.08985,0.41407 -42.12891,16.64063c-5.05078,11.64453 -2.75,25.17578 5.86719,34.49219l-34.63282,48.92578c-16.5664,-9.30078 -37.34765,-6.04688 -50.28515,7.87109l-45.38281,-35.24609c5.99218,-12.84766 0.43359,-28.11719 -12.41016,-34.10938c-12.84766,-5.99218 -28.12109,-0.4375 -34.11328,12.41016c-5.99219,12.84766 -0.4336,28.11719 12.41406,34.10937c8.33203,3.89063 18.10938,3.01954 25.62891,-2.27343l46.49609,36.10547c-7.46875,16.3125 -3.51562,35.58203 9.77344,47.63281l-27.84766,39.38672c-16.4414,-9.16407 -37.20312,-3.26563 -46.36719,13.17578c-9.16796,16.4414 -3.26953,37.19922 13.17188,46.36719c16.44141,9.16406 37.19922,3.26562 46.36719,-13.17579c6.71875,-12.05468 5.50781,-26.96875 -3.07032,-37.78125l28.81641,-40.76171c10.04297,4.45703 21.44922,4.70703 31.67578,0.69531l34.45313,50.89453c-10.53516,12 -9.34766,30.26562 2.65234,40.80078c11.99609,10.53516 30.26563,9.35156 40.80078,-2.64844c10.53516,-12 9.34766,-30.26562 -2.65234,-40.80078c-8.25,-7.24609 -19.89063,-9.1914 -30.04688,-5.02344l-33.82031,-49.95703c6.21094,-5.17187 10.76953,-12.05078 13.11328,-19.78515zm50.67969,-9.02344c6.84766,0 12.40234,5.55469 12.40234,12.40234c0,6.85157 -5.55468,12.40235 -12.40234,12.40235c-6.85156,0 -12.40234,-5.55078 -12.40234,-12.40235c0.0039,-6.84765 5.55468,-12.39453 12.40234,-12.40234zm-11.98438,-128.21094c10.35157,0 18.73829,8.38672 18.73829,18.73828c0,10.34766 -8.39063,18.73828 -18.73829,18.73828c-10.34765,-0.0039 -18.73828,-8.39062 -18.73828,-18.73828c0.01172,-10.34765 8.39453,-18.73047 18.73828,-18.73828zm-176.94531,63.58203c-6.84765,-0.00781 -12.39453,-5.55468 -12.40234,-12.40234c0,-6.84766 5.55469,-12.40234 12.40234,-12.40234c6.84766,0 12.40235,5.55468 12.40235,12.40234c0,6.84766 -5.55079,12.40234 -12.40235,12.40234zm26.64453,182.13282c-11.48047,0 -20.78906,-9.30469 -20.78515,-20.78516c0,-11.48047 9.30468,-20.78906 20.78515,-20.78516c11.48047,0 20.78516,9.30469 20.78516,20.78516c-0.01172,11.47656 -9.3125,20.77344 -20.78516,20.78516zm143.28125,-27.69532c8.69532,0.00782 15.7461,7.0586 15.75391,15.75391c0,8.70312 -7.05469,15.75781 -15.75391,15.75781c-8.70312,0 -15.75781,-7.05469 -15.75781,-15.75781c0,-8.69922 7.05469,-15.75391 15.75781,-15.75391zm-71.17578,-64.63281c-15.48828,-0.01562 -28.03906,-12.56641 -28.05469,-28.05078c0,-15.49219 12.5586,-28.05469 28.05469,-28.05469c15.49219,0 28.05078,12.5625 28.05078,28.05469c0,15.49219 -12.55859,28.05078 -28.05078,28.05078zm0,0"/>
  </g>
  <text xml:space="preserve" text-anchor="start" font-family="sans-serif" font-size="80" id="svg_10" y="370" x="78.29688" stroke-opacity="null" stroke-width="0" stroke="null" fill="#A0A0A0">Network</text>
 </g>
</svg>
